<svg width="113" height="39" viewBox="0 0 113 39" fill="none" xmlns="http://www.w3.org/2000/svg">
<path d="M112.402 18.2345C111.729 16.7027 110.193 15.2692 108.608 13.8286C107.024 12.388 105.314 10.9689 103.069 9.62761C99.0291 7.22212 93.3877 5.16507 86.5884 3.61814C79.5343 2.01049 71.3791 0.986869 63.0292 0.447912C55.2694 -0.0531344 45.9552 -0.424054 38.8494 0.996088C35.625 1.64058 33.2828 2.70723 31.2447 3.73801C30.7489 3.98597 30.2652 4.23701 29.7816 4.48805L28.8021 4.69298C25.1883 5.4635 21.8332 6.30267 18.8096 7.32526C15.8407 8.3294 13.2125 9.44932 10.6756 10.5774C8.00818 11.7382 5.72157 12.9929 3.85573 14.3194C2.00019 15.674 1.08156 17.0859 0.485355 18.5552C-0.123018 20.0727 -0.265979 21.6025 0.683084 23.1077C1.60666 24.51 2.98054 25.8743 4.78047 27.1765C8.29991 29.7852 13.5471 32.2782 20.294 34.0467C23.8073 34.9689 27.5945 35.8347 31.5824 36.4956C35.3725 37.1216 39.4608 37.5089 43.6038 37.7579C47.8411 38.013 52.2184 38.179 56.4922 37.9413C58.7645 37.8153 60.9789 37.5315 63.2056 37.3388C65.4322 37.1462 67.7684 37.1616 70.0437 36.9905C71.5553 36.8608 73.0325 36.6895 74.4605 36.4781C75.0322 36.4536 75.593 36.4058 76.1305 36.3357C76.3288 36.3101 76.4916 36.2604 76.5868 36.1964C78.5153 35.9515 80.4591 35.7209 82.342 35.4361C84.304 35.1389 86.3968 34.9976 88.3193 34.6584C90.2417 34.3192 92.2037 33.9483 94.0653 33.561C97.5817 32.8305 100.289 31.8489 102.643 30.7146C105.162 29.5004 107.605 28.1755 109.445 26.8292C113.056 24.1702 113.658 21.0963 112.402 18.2345ZM11.5091 29.027C10.4243 28.3336 9.56358 27.6029 8.94176 26.8476C9.89386 27.5228 11.4878 28.2719 11.5091 29.027ZM1.79337 19.9754C2.15231 17.6945 3.71279 15.5193 6.96455 13.512C10.0673 11.6011 14.2255 9.83868 18.5814 8.23513C20.3859 7.57564 22.3496 6.96766 24.4522 6.41743C22.7762 7.01684 21.1761 7.647 19.5852 8.24129C16.5478 9.36924 13.8516 10.5963 11.5364 11.9044C9.24304 13.1797 7.28572 14.5203 5.68694 15.9107C4.10821 17.3318 3.73713 18.8524 3.99873 20.3576C4.24519 21.7123 4.95142 23.0531 6.10367 24.3537C6.10367 24.4039 6.10367 24.4561 6.10367 24.5053C6.14017 25.7762 6.89376 27.0332 8.32425 28.2094C4.15081 25.7123 1.34314 22.8464 1.79638 19.9754H1.79337ZM25.0454 6.98508L24.5191 7.26173C22.0857 8.53023 19.6765 9.81 17.5745 11.1482C15.4726 12.4863 13.9243 13.9147 12.4034 15.3492C9.74782 17.8185 7.17137 20.2869 6.36831 22.8884C5.98808 22.2429 5.70216 21.5902 5.50748 20.9416C5.06945 19.462 5.32497 17.9763 6.60863 16.55C7.88013 15.1401 10.1615 13.7722 12.3091 12.4956C14.4929 11.2164 17.055 10.0149 19.9563 8.90934C21.599 8.25972 23.2902 7.60908 25.0484 6.98508H25.0454ZM54.0557 37.3972C49.5963 37.5274 44.8632 37.2415 40.5346 36.8962C36.2053 36.5442 32.0736 35.9583 28.3002 35.1615C26.326 34.7516 24.367 34.3182 22.4963 33.8479C27.2234 34.8889 32.5557 35.681 37.7391 36.2486C42.0616 36.7338 46.5562 37.0235 51.1051 37.1104C54.0006 37.143 56.8992 37.0991 59.7744 36.9792C57.8976 37.1616 56.0329 37.3358 54.0587 37.3972H54.0557ZM110.996 21.4396C110.836 22.9668 109.95 24.4754 108.371 25.908C106.811 27.3251 104.189 28.6499 101.761 29.9133C99.3338 31.1767 96.4532 32.2505 92.5931 33.0518C90.8653 33.4114 89.0493 33.7352 87.2698 34.0662C85.2318 34.4453 82.926 34.6041 80.8119 34.9269C78.6978 35.2496 76.5533 35.4781 74.4423 35.7619C73.9039 35.8347 73.3685 35.9064 72.8331 35.9751C71.5008 35.9996 70.1198 35.9751 68.8787 36.016C66.3935 36.0939 63.9144 36.2087 61.4352 36.3081C56.5682 36.5038 51.683 36.6154 46.81 36.3583C37.9064 35.8921 29.4439 34.6686 22.0127 32.9688C17.8764 32.0268 14.4413 30.7761 11.9745 29.3139C12.1109 29.3153 12.2437 29.299 12.3451 29.2683C12.4466 29.2375 12.5088 29.1948 12.519 29.1489C12.6741 28.5669 11.9319 28.0772 11.2018 27.5669C10.2011 26.8681 9.28243 26.156 8.46417 25.4295C8.27354 25.256 8.09004 25.0811 7.91361 24.9049C7.66113 23.5452 8.3638 22.1384 9.08472 20.8238C9.94557 19.2551 11.6916 17.7499 13.2947 16.2529C14.9251 14.7354 16.4491 13.2159 18.6057 11.7711C20.6255 10.4207 23.0256 9.13784 25.456 7.86832C27.1067 7.00421 28.7534 6.13873 30.396 5.27188C33.3355 4.47021 36.6264 3.82695 40.1513 3.36504C41.7993 3.15715 43.4861 2.986 45.2008 2.85273C45.6267 2.82301 46.0525 2.79433 46.4814 2.76974C47.5461 2.70826 48.6107 2.70929 49.6875 2.65703C50.3993 2.62219 51.0929 2.57403 51.7955 2.55457C52.1849 2.55457 52.5743 2.54431 52.9667 2.54328C54.0709 2.54328 54.0587 1.98793 52.9667 1.96847C52.1856 1.95759 51.4032 1.96857 50.6275 2.00126C48.3478 2.0591 46.0886 2.18668 43.8776 2.38242C42.6693 2.48519 41.4774 2.60865 40.3064 2.75231L40.1634 2.77076C37.7582 3.06552 35.4199 3.41893 33.1672 3.82818C35.1657 2.84248 37.4653 1.92543 40.6197 1.34139C44.5164 0.624146 49.2404 0.58112 53.569 0.658992C57.9558 0.74271 62.309 0.966738 66.5699 1.32807C75.0689 2.04531 83.2089 3.3466 89.9497 5.24115C96.6905 7.1357 101.603 9.67679 104.952 12.4136C108.545 15.3225 111.322 18.254 110.999 21.4396H110.996Z" fill="#50735F"/>
</svg>
