<svg width="150" height="155" viewBox="0 0 150 155" fill="none" xmlns="http://www.w3.org/2000/svg">
<path fill-rule="evenodd" clip-rule="evenodd" d="M49.8291 153.225C52.2414 150.637 52.0475 143.823 49.412 138.535C45.5863 130.862 34.9993 122.823 22.5517 118.139L17.0466 116.068L23.9082 122.486C32.4937 130.515 36.6209 136.621 39.2192 145.137C41.9963 154.238 46.0239 157.308 49.8291 153.225ZM67.2183 148.727C70.7347 142.159 61.9379 131.126 51.1033 128.516C48.9759 128.003 49.1255 128.264 52.9164 131.671C57.6595 135.933 59.145 138.426 60.9027 145.068C62.0068 149.238 62.4144 149.844 64.2663 150.06C65.7273 150.23 66.6327 149.821 67.2183 148.727ZM79.1428 122.794C80.6663 122.649 84.5838 122.134 87.8485 121.647C103.913 119.256 114.757 111.265 114.757 101.818V99.0208L120.967 98.5421C129.029 97.9211 135.113 95.5873 139.908 91.278C152.457 79.9997 153.471 59.5435 142.006 48.9787L138.467 45.7185L140.345 43.1782C149.812 30.3753 141.579 7.63116 125.241 1.45166C121.473 0.026043 119.607 -0.199425 114.361 0.137596C108.556 0.510217 99.6416 3.2048 99.7642 4.54972C99.7888 4.81791 102.371 6.25856 105.502 7.75063C120.341 14.8217 129.003 29.6459 129.003 47.9692C129.003 80.752 101.64 109.599 66.5947 113.762C59.4821 114.607 48.4322 113.718 32.9598 111.055C26.6157 109.964 20.6112 109.073 19.6163 109.074C17.9622 109.077 18.0184 109.206 20.2764 110.582C24.3269 113.051 39.4273 118.29 47.5276 120.037C51.6858 120.934 58.9867 122.037 63.7519 122.489C72.2677 123.297 73.598 123.323 79.1428 122.794ZM12.1967 110.593C14.529 107.822 14.7403 105.993 13.0958 102.814C9.77967 96.4037 2.59098e-06 98.8428 2.59098e-06 106.081C2.59098e-06 112.755 7.91269 115.682 12.1967 110.593ZM63.6727 107.44C76.9988 105.388 88.7689 97.7368 93.3956 88.1174C96.7695 81.1049 96.5376 71.4974 92.8907 67.1644C90.5536 64.3883 87.3974 64.0102 83.8834 66.0853C81.0628 67.7506 80.155 69.7672 79.0652 76.7877C77.8488 84.6246 75.8781 88.7163 71.0204 93.4876C64.6161 99.7795 52.9457 105.116 45.591 105.116C42.4712 105.116 43.1217 106.434 46.4964 106.95C53.0478 107.953 59.1988 108.129 63.6727 107.44ZM29.0106 105.083C40.9975 102.712 48.9134 94.4283 47.0963 86.157C46.4378 83.161 43.003 79.7995 40.5995 79.7995C38.1745 79.7995 35.6261 82.7726 35.5557 85.6847C35.3673 93.4394 31.1522 99.1996 22.7258 103.216C21.109 103.987 19.7857 104.908 19.7857 105.262C19.7857 106.053 24.5746 105.961 29.0106 105.083ZM96.3445 94.4132C112.401 81.5708 121.577 66.0173 122.467 50.1322C123.204 36.9805 119.784 27.6839 110.988 18.9309C102.735 10.7189 93.7351 7.04256 81.8416 7.02516C74.3 7.01408 64.9968 9.18494 59.0999 12.3313C53.7411 15.1912 45.8791 23.0582 43.7058 27.7345C38.7713 38.3578 40.9049 52.5997 48.5826 60.2737C53.104 64.7934 55.8289 65.9239 62.1682 65.9073C66.821 65.8954 68.3707 65.5291 71.4849 63.7048C78.4139 59.6455 81.2947 52.7334 78.7898 46.1773C78.0443 44.228 77.1341 42.4472 76.7661 42.2193C76.3981 41.9923 76.6482 43.2098 77.3225 44.925C79.6928 50.9573 76.9458 57.0261 70.3603 60.3069C65.4479 62.7538 61.7781 62.92 57.3223 60.8971C50.5058 57.8022 46.2827 49.6108 46.3943 39.7004C46.4766 32.4386 49.0044 26.998 54.8752 21.4474C63.0523 13.7173 71.8601 10.6557 84.6582 11.0932C92.7815 11.3708 93.4368 11.5275 99.913 14.7355C113.314 21.3739 120.579 33.2637 120.477 48.3933C120.424 56.2848 119.252 61.238 115.575 69.1193C111.02 78.885 103.227 88.1783 92.2013 96.9939C90.4602 98.3855 89.2272 99.5366 89.4614 99.5508C89.6957 99.5659 92.7925 97.2534 96.3445 94.4132ZM55.2622 97.1482C65.5366 92.0161 69.4407 82.1832 63.5445 76.2893C59.1307 71.8779 54.6592 75.4285 56.3323 82.017C57.4315 86.3461 55.8083 90.8721 51.3352 95.952C47.5561 100.244 48.4932 100.529 55.2622 97.1482ZM113.929 63.6257C116.067 61.0505 112.529 57.9533 110.158 60.3235C109.151 61.3314 109.047 61.9493 109.711 63.003C110.866 64.8369 112.699 65.1075 113.929 63.6257ZM66.7435 53.0467C69.0964 50.4486 69.1502 47.2659 66.9247 42.4021C65.0158 38.2304 64.9461 37.702 65.979 35.2297C67.546 31.4813 72.3405 26.9387 77.017 24.7733C80.8444 23.0012 80.9108 22.915 78.8642 22.4015C73.4809 21.0511 63.4187 24.123 57.8597 28.8136C52.44 33.3879 50.664 41.9772 53.8487 48.2169C56.652 53.7089 63.7408 56.3639 66.7435 53.0467ZM113.768 48.8956C114.899 48.4574 115.544 47.5468 115.537 46.3996C115.512 42.8388 112.797 41.228 110.054 43.1481C106.713 45.4875 109.887 50.4004 113.768 48.8956ZM108.267 33.7558C110.487 31.5367 108.815 27.585 105.656 27.585C104.742 27.585 103.566 28.0122 103.044 28.5344C102.522 29.0565 102.094 30.2313 102.094 31.1451C102.094 32.0588 102.522 33.2337 103.044 33.7558C103.566 34.278 104.742 34.7052 105.656 34.7052C106.57 34.7052 107.745 34.278 108.267 33.7558ZM95.9068 24.0249C96.5811 22.5455 96.5811 21.5487 95.9068 20.0693C94.2757 16.491 87.8485 18.0685 87.8485 22.0471C87.8485 26.0257 94.2757 27.6032 95.9068 24.0249Z" fill="#8F323A"/>
</svg>
