<svg width="72" height="75" viewBox="0 0 72 75" fill="none" xmlns="http://www.w3.org/2000/svg">
<path fill-rule="evenodd" clip-rule="evenodd" d="M47.9886 0.84785C46.8329 2.0839 46.9258 5.33858 48.1884 7.86433C50.0212 11.5294 55.093 15.3694 61.0563 17.6065L63.6936 18.5957L60.4064 15.5304C56.2934 11.6953 54.3162 8.7788 53.0714 4.71092C51.741 0.363786 49.8115 -1.10239 47.9886 0.84785ZM39.658 2.9961C37.9734 6.13364 42.1876 11.4036 47.3782 12.6502C48.3973 12.895 48.3256 12.7703 46.5095 11.1432C44.2373 9.10718 43.5256 7.91648 42.6836 4.74417C42.1546 2.75199 41.9594 2.46253 41.0722 2.35975C40.3723 2.2785 39.9385 2.47387 39.658 2.9961ZM33.9454 15.383C33.2155 15.4522 31.3387 15.6985 29.7747 15.9309C22.0788 17.0729 16.8837 20.8899 16.8837 25.4021V26.7383L13.9086 26.9669C10.0466 27.2636 7.13209 28.3783 4.83484 30.4366C-1.17692 35.8237 -1.66299 45.5945 3.82972 50.6407L5.52488 52.198L4.62555 53.4114C0.0901907 59.5266 4.03446 70.3903 11.8612 73.3419C13.6663 74.0228 14.5603 74.1305 17.0733 73.9696C19.8544 73.7916 24.1251 72.5045 24.0663 71.8621C24.0546 71.734 22.8174 71.0459 21.3175 70.3332C14.2089 66.9557 10.0591 59.875 10.0591 51.1229C10.0591 35.4643 23.1677 21.6857 39.9567 19.6973C43.3641 19.2937 48.6578 19.7184 56.0701 20.99C59.1093 21.5111 61.9859 21.937 62.4625 21.9362C63.2549 21.9351 63.228 21.8735 62.1463 21.216C60.2058 20.0366 52.9717 17.5343 49.0911 16.6999C47.0991 16.2714 43.6015 15.7446 41.3186 15.5289C37.239 15.1431 36.6017 15.1306 33.9454 15.383ZM66.017 21.2111C64.8997 22.5344 64.7984 23.4081 65.5863 24.9264C67.1749 27.9883 71.8601 26.8233 71.8601 23.3661C71.8601 20.1783 68.0693 18.7802 66.017 21.2111ZM41.3565 22.7169C34.9725 23.6971 29.3338 27.3516 27.1173 31.9463C25.501 35.2958 25.6121 39.8848 27.3592 41.9544C28.4788 43.2804 29.9909 43.461 31.6743 42.4698C33.0255 41.6744 33.4604 40.7112 33.9825 37.3579C34.5653 33.6146 35.5093 31.6602 37.8365 29.3812C40.9046 26.3759 46.4955 23.8271 50.0189 23.8271C51.5135 23.8271 51.2019 23.1976 49.5852 22.9508C46.4466 22.4717 43.4999 22.3878 41.3565 22.7169ZM57.962 23.8426C52.2195 24.9751 48.4273 28.9319 49.2978 32.8826C49.6132 34.3137 51.2587 35.9193 52.4102 35.9193C53.5719 35.9193 54.7928 34.4992 54.8265 33.1082C54.9167 29.4043 56.9361 26.6529 60.9729 24.7344C61.7474 24.3664 62.3814 23.9265 62.3814 23.7572C62.3814 23.3793 60.0872 23.4235 57.962 23.8426ZM25.7046 28.9391C18.0125 35.0732 13.6166 42.5023 13.1901 50.0898C12.8371 56.3717 14.4754 60.8121 18.6892 64.993C22.643 68.9154 26.9546 70.6714 32.6525 70.6797C36.2654 70.685 40.7222 69.6481 43.5473 68.1453C46.1145 66.7793 49.8809 63.0216 50.922 60.788C53.286 55.7138 52.2638 48.9112 48.5857 45.2457C46.4197 43.0869 45.1143 42.5469 42.0773 42.5549C39.8483 42.5605 39.1059 42.7355 37.614 43.6069C34.2946 45.5458 32.9145 48.8473 34.1145 51.9788C34.4716 52.9099 34.9076 53.7605 35.0839 53.8694C35.2602 53.9778 35.1404 53.3962 34.8174 52.577C33.6819 49.6957 34.9979 46.797 38.1528 45.2299C40.5061 44.0611 42.2642 43.9817 44.3988 44.948C47.6644 46.4262 49.6875 50.3388 49.6341 55.0725C49.5946 58.5411 48.3836 61.1398 45.5711 63.791C41.6538 67.4832 37.4343 68.9456 31.3031 68.7367C27.4115 68.604 27.0976 68.5292 23.995 66.9969C17.5749 63.8261 14.0947 58.147 14.1436 50.9204C14.1691 47.151 14.7302 44.7851 16.4917 41.0207C18.6741 36.3561 22.4075 31.9172 27.6894 27.7064C28.5236 27.0417 29.1143 26.4919 29.002 26.4851C28.8898 26.478 27.4062 27.5825 25.7046 28.9391ZM45.3857 27.6328C40.4636 30.0841 38.5933 34.7807 41.418 37.5959C43.5325 39.703 45.6746 38.0071 44.8731 34.8601C44.3465 32.7923 45.1241 30.6305 47.2671 28.2041C49.0775 26.1541 48.6286 26.0177 45.3857 27.6328ZM17.2803 43.6447C16.2563 44.8747 17.951 46.3541 19.087 45.2219C19.5696 44.7405 19.6193 44.4454 19.3012 43.9421C18.7476 43.0661 17.8699 42.9369 17.2803 43.6447ZM39.8855 48.6977C38.7582 49.9386 38.7325 51.4589 39.7986 53.7821C40.7131 55.7746 40.7465 56.0271 40.2517 57.2079C39.501 58.9983 37.2041 61.1681 34.9637 62.2024C33.1302 63.0488 33.0983 63.09 34.0788 63.3353C36.6578 63.9803 41.4782 62.513 44.1414 60.2725C46.7378 58.0876 47.5886 53.985 46.0629 51.0046C44.72 48.3814 41.3239 47.1132 39.8855 48.6977ZM17.3577 50.6804C16.8155 50.8898 16.5069 51.3247 16.5103 51.8726C16.522 53.5735 17.8229 54.3428 19.1366 53.4257C20.7374 52.3083 19.2166 49.9617 17.3577 50.6804ZM19.9928 57.9119C18.9292 58.9719 19.7304 60.8594 21.2439 60.8594C21.6818 60.8594 22.2449 60.6553 22.4951 60.4059C22.7454 60.1565 22.9501 59.5954 22.9501 59.1589C22.9501 58.7225 22.7454 58.1613 22.4951 57.9119C22.2449 57.6625 21.6818 57.4585 21.2439 57.4585C20.806 57.4585 20.243 57.6625 19.9928 57.9119ZM25.9143 62.5598C25.5912 63.2665 25.5912 63.7426 25.9143 64.4492C26.6957 66.1584 29.7747 65.4049 29.7747 63.5045C29.7747 61.6042 26.6957 60.8507 25.9143 62.5598Z" fill="#8F323A"/>
</svg>
