<svg width="69" height="13" viewBox="0 0 69 13" fill="none" xmlns="http://www.w3.org/2000/svg">
<g clip-path="url(#clip0_1_49393)">
<path d="M5.67887 6.36144C5.67887 5.19304 4.8078 4.37186 3.73783 4.37186C2.66784 4.37186 1.79678 5.20688 1.79678 6.36144C1.79678 7.50217 2.66784 8.35107 3.73783 8.35107C4.80888 8.34998 5.67887 7.52985 5.67887 6.36144ZM5.69416 9.83903V8.93473C5.16627 9.56104 4.38046 9.94978 3.43945 9.94978C1.4842 9.94978 0 8.41922 0 6.36144C0 4.31646 1.54103 2.75928 3.48317 2.75928C4.39688 2.75928 5.16739 3.14911 5.69524 3.76047V2.88389H7.4505V9.83903H5.69416Z" fill="white"/>
<path d="M15.9768 8.29461C15.3626 8.29461 15.1921 8.07198 15.1921 7.48832V4.40056H16.32V2.88388H15.1921V1.18717H13.3931V2.88388H11.0761V2.46103C11.0761 1.87629 11.3045 1.65368 11.933 1.65368H12.3275V0.304199H11.4619C9.97769 0.304199 9.27822 0.777104 9.27822 2.22351V2.88281H8.2793V4.39952H9.27822V9.83792H11.0772V4.39952H13.3942V7.80782C13.3942 9.22654 13.9505 9.83901 15.4063 9.83901H16.3342V8.29461H15.9768Z" fill="white"/>
<path d="M22.4281 5.73527C22.3002 4.83097 21.5428 4.28883 20.6586 4.28883C19.7733 4.28883 19.0455 4.81714 18.8608 5.73527H22.4281ZM18.8455 6.8206C18.9744 7.84949 19.7307 8.43424 20.6871 8.43424C21.4434 8.43424 22.0292 8.08592 22.3712 7.52994H24.2128C23.7844 9.00406 22.4281 9.94987 20.6445 9.94987C18.4892 9.94987 16.9766 8.47576 16.9766 6.37537C16.9766 4.27499 18.5755 2.7583 20.6881 2.7583C22.815 2.7583 24.356 4.28887 24.356 6.37537C24.356 6.52877 24.3418 6.68108 24.3134 6.8206H18.8455Z" fill="white"/>
<path d="M35.7933 6.36144C35.7933 5.23455 34.9222 4.37186 33.8522 4.37186C32.7822 4.37186 31.9111 5.20688 31.9111 6.36144C31.9111 7.50217 32.7822 8.35107 33.8522 8.35107C34.9222 8.34998 35.7933 7.48833 35.7933 6.36144ZM30.1406 2.88389H31.8958V3.78816C32.4237 3.14804 33.2085 2.75928 34.1506 2.75928C36.0774 2.75928 37.59 4.30367 37.59 6.3476C37.59 8.39259 36.049 9.95083 34.108 9.95083C33.2085 9.95083 32.4664 9.60255 31.9527 9.01889V12.701H30.1406V2.88389Z" fill="white"/>
<path d="M43.9171 6.36144C43.9171 5.19304 43.0472 4.37186 41.976 4.37186C40.9061 4.37186 40.035 5.20688 40.035 6.36144C40.035 7.50217 40.9061 8.35107 41.976 8.35107C43.0472 8.34998 43.9171 7.52985 43.9171 6.36144ZM43.9325 9.83903V8.93473C43.4046 9.56104 42.6186 9.94978 41.6776 9.94978C39.7224 9.94978 38.2383 8.41922 38.2383 6.36144C38.2383 4.31646 39.7793 2.75928 41.7204 2.75928C42.634 2.75928 43.4046 3.14911 43.9325 3.76047V2.88389H45.6879V9.83903H43.9325Z" fill="white"/>
<path d="M26.9759 3.56556C26.9759 3.56556 27.423 2.75928 28.5169 2.75928C28.9847 2.75928 29.2875 2.91584 29.2875 2.91584V4.69031C29.2875 4.69031 28.6273 4.29302 28.0208 4.3729C27.4142 4.45279 27.0306 4.99598 27.0328 5.72239V9.84008H25.2207V2.88496H26.9759V3.56556Z" fill="white"/>
<path d="M53.8855 2.88403L49.4537 12.6787H47.5849L49.3249 8.89227L46.3828 2.88403H48.501L50.2223 6.8984L51.9884 2.88403H53.8855Z" fill="white"/>
<path d="M68.0326 2.72634L63.639 0.255306C62.3492 -0.470026 60.7373 0.436376 60.7373 1.88811V2.1416C60.7373 2.3706 60.8628 2.58255 61.0661 2.69652L61.8957 3.16303C62.1393 3.30044 62.4432 3.12895 62.4432 2.85522V2.22468C62.4432 1.90941 62.7931 1.71237 63.0729 1.87L66.8783 4.01086C67.1584 4.16849 67.1584 4.56258 66.8783 4.71917L63.0729 6.86002C62.7931 7.01765 62.4432 6.8206 62.4432 6.50533V6.1698C62.4432 4.71808 60.8312 3.81062 59.5406 4.537L55.147 7.00805C53.8572 7.73341 53.8572 9.54833 55.147 10.2736L59.5406 12.7447C60.83 13.47 62.4432 12.5636 62.4432 11.1119V10.8584C62.4432 10.6294 62.3176 10.4185 62.1144 10.3035L61.2847 9.83588C61.0411 9.6985 60.7373 9.86998 60.7373 10.1437V10.7743C60.7373 11.0895 60.3877 11.2866 60.1076 11.1289L56.3022 8.98807C56.0224 8.83044 56.0224 8.43637 56.3022 8.27874L60.1076 6.13784C60.3877 5.98021 60.7373 6.17726 60.7373 6.49253V6.82806C60.7373 8.27978 62.3492 9.18727 63.639 8.46086L68.0326 5.98981C69.3224 5.26659 69.3224 3.45168 68.0326 2.72634Z" fill="white"/>
</g>
<defs>
<clipPath id="clip0_1_49393">
<rect width="69" height="13" fill="white"/>
</clipPath>
</defs>
</svg>
