<svg width="35" height="14" viewBox="0 0 35 14" fill="none" xmlns="http://www.w3.org/2000/svg">
<g clip-path="url(#clip0_1_49388)">
<path d="M6.63324 1.77067C7.04056 1.27524 7.3315 0.614672 7.24422 -0.0458984C6.63324 -0.0183747 5.9059 0.339434 5.46949 0.807339C5.09127 1.2202 4.74214 1.90829 4.82942 2.54134C5.52768 2.62391 6.19684 2.2661 6.63324 1.77067ZM7.24422 2.70648C6.25502 2.65143 5.4113 3.22943 4.9458 3.22943C4.48029 3.22943 3.75294 2.734 2.96741 2.734C1.94912 2.76153 1.01811 3.28448 0.494424 4.16524C-0.552958 5.89924 0.203485 8.45895 1.25087 9.86266C1.74546 10.5508 2.35644 11.3214 3.14197 11.2939C3.89841 11.2664 4.18935 10.826 5.09127 10.826C5.99318 10.826 6.25502 11.2939 7.06965 11.2664C7.88428 11.2389 8.40798 10.5783 8.90257 9.86266C9.48445 9.06447 9.7172 8.29381 9.7172 8.26628C9.68811 8.23876 8.11703 7.68828 8.11703 5.98181C8.08794 4.55057 9.33898 3.86248 9.39717 3.83495C8.72801 2.8441 7.62244 2.734 7.24422 2.70648Z" fill="white"/>
<path d="M15.7974 0.752197C17.9503 0.752197 19.4341 2.15591 19.4341 4.16515C19.4341 6.20191 17.9212 7.60562 15.7392 7.60562H13.3826V11.1562H11.666V0.752197H15.7974ZM13.3826 6.25695H15.3319C16.8156 6.25695 17.6594 5.48629 17.6594 4.19267C17.6594 2.87153 16.8156 2.12839 15.3319 2.12839H13.3535V6.25695H13.3826ZM19.8705 9.03685C19.8705 7.71571 20.947 6.89 22.8672 6.7799L25.0783 6.66981V6.09181C25.0783 5.23857 24.4673 4.74315 23.4782 4.74315C22.5181 4.74315 21.9362 5.18353 21.7907 5.8441H20.2196C20.3069 4.46791 21.558 3.44953 23.5363 3.44953C25.4856 3.44953 26.7367 4.41286 26.7367 5.95419V11.1837H25.1656V9.94514H25.1365C24.671 10.7984 23.6527 11.3213 22.6053 11.3213C20.9761 11.3213 19.8705 10.3855 19.8705 9.03685ZM25.0783 8.34876V7.74324L23.0999 7.85333C22.1107 7.90838 21.558 8.32124 21.558 8.98181C21.558 9.64238 22.1398 10.0828 23.0126 10.0828C24.1764 10.0828 25.0783 9.33962 25.0783 8.34876ZM28.1914 13.9911V12.725C28.3077 12.7526 28.5987 12.7526 28.7151 12.7526C29.4715 12.7526 29.8788 12.4498 30.1407 11.6791C30.1407 11.6516 30.2861 11.2112 30.2861 11.2112L27.3767 3.61467H29.1515L31.188 9.80752H31.2171L33.2537 3.61467H34.9994L32.0027 11.6241C31.3044 13.4682 30.5189 14.0462 28.8605 14.0462C28.7442 14.0187 28.3368 14.0187 28.1914 13.9911Z" fill="white"/>
</g>
<defs>
<clipPath id="clip0_1_49388">
<rect width="35" height="14" fill="white"/>
</clipPath>
</defs>
</svg>
