<svg width="37" height="16" viewBox="0 0 37 16" fill="none" xmlns="http://www.w3.org/2000/svg">
<g clip-path="url(#clip0_1_49379)">
<path d="M17.4832 7.5V11.7961H16.0957V1.17139H19.7032C20.582 1.17139 21.4145 1.49475 22.062 2.09527C22.7095 2.6496 23.0332 3.4811 23.0332 4.35879C23.0332 5.23648 22.7095 6.02178 22.062 6.6223C21.4145 7.22283 20.6282 7.54619 19.7032 7.54619L17.4832 7.5ZM17.4832 2.46483V6.16036H19.7957C20.3045 6.16036 20.8132 5.97559 21.137 5.60603C21.877 4.91312 21.877 3.75826 21.1832 3.06535L21.137 3.01916C20.767 2.6496 20.3045 2.41863 19.7957 2.46483H17.4832Z" fill="white"/>
<path d="M26.2245 4.31299C27.242 4.31299 28.0282 4.59015 28.6295 5.14448C29.2307 5.69882 29.5082 6.43792 29.5082 7.36181V11.7965H28.2132V10.7802H28.167C27.612 11.6117 26.8257 12.0274 25.9007 12.0274C25.1145 12.0274 24.4207 11.7965 23.8657 11.3345C23.357 10.8726 23.0332 10.2258 23.0332 9.53294C23.0332 8.79383 23.3107 8.1933 23.8657 7.73136C24.4207 7.26942 25.207 7.08464 26.132 7.08464C26.9645 7.08464 27.612 7.22322 28.1207 7.54658V7.22322C28.1207 6.76128 27.9357 6.29934 27.5657 6.02217C27.1957 5.69881 26.7332 5.51404 26.2245 5.51404C25.4382 5.51404 24.837 5.8374 24.4207 6.48412L23.2182 5.74501C23.9582 4.77493 24.9295 4.31299 26.2245 4.31299ZM24.467 9.57913C24.467 9.94868 24.652 10.272 24.9295 10.4568C25.2532 10.6878 25.6232 10.8264 25.9932 10.8264C26.5482 10.8264 27.1032 10.5954 27.5195 10.1797C27.982 9.76391 28.2132 9.25577 28.2132 8.70144C27.797 8.37808 27.1957 8.1933 26.4095 8.1933C25.8545 8.1933 25.392 8.33189 25.022 8.60905C24.652 8.84002 24.467 9.16338 24.467 9.57913Z" fill="white"/>
<path d="M36.9995 4.5437L32.4208 15.0298H31.0333L32.7445 11.3804L29.7383 4.5899H31.2183L33.392 9.80984H33.4383L35.5658 4.5899H36.9995V4.5437Z" fill="white"/>
<path d="M11.9792 6.57659C11.9792 6.16084 11.933 5.74509 11.8867 5.32935H6.10547V7.68525H9.38922C9.25047 8.42436 8.83422 9.11727 8.18672 9.53302V11.0574H10.1755C11.3317 9.99496 11.9792 8.42436 11.9792 6.57659Z" fill="white"/>
<path d="M6.10594 12.5353C7.77094 12.5353 9.15844 11.981 10.1759 11.0571L8.18719 9.53269C7.63219 9.90224 6.93844 10.1332 6.10594 10.1332C4.53344 10.1332 3.14594 9.07074 2.68344 7.59253H0.648438V9.16313C1.71219 11.2419 3.79344 12.5353 6.10594 12.5353Z" fill="white"/>
<path d="M2.68234 7.59253C2.40484 6.85342 2.40484 6.02192 2.68234 5.23662V3.66602H0.647344C-0.231406 5.3752 -0.231406 7.40775 0.647344 9.16313L2.68234 7.59253Z" fill="white"/>
<path d="M6.10461 2.74199C6.98336 2.74199 7.81586 3.06535 8.46336 3.66587L10.2209 1.91049C9.11086 0.894218 7.63086 0.293693 6.15086 0.339888C3.83836 0.339888 1.71086 1.63333 0.693359 3.71207L2.72836 5.28267C3.14461 3.80445 4.53211 2.74199 6.10461 2.74199Z" fill="white"/>
</g>
<defs>
<clipPath id="clip0_1_49379">
<rect width="37" height="16" fill="white"/>
</clipPath>
</defs>
</svg>
