<svg width="26" height="20" viewBox="0 0 26 20" fill="none" xmlns="http://www.w3.org/2000/svg">
<path d="M8.04004 2.5C9.57707 2.5 11.0019 2.95932 12.1904 3.73926C10.5106 5.28366 9.44044 7.49526 9.44043 9.96387C9.44043 12.4282 10.5063 14.6558 12.1885 16.1895C11.0003 16.9687 9.57631 17.4277 8.04004 17.4277C3.86749 17.4275 0.5 14.0852 0.5 9.96387C0.500027 5.8426 3.86751 2.50021 8.04004 2.5Z" stroke="white"/>
<path d="M17.957 2.5C22.1315 2.50004 25.5 5.86485 25.5 9.96387C25.5 14.0852 22.1325 17.4275 17.96 17.4277C16.4234 17.4277 14.9989 16.969 13.8105 16.1895C15.5086 14.6415 16.5596 12.4311 16.5596 9.96387C16.5596 7.49451 15.4883 5.28274 13.8076 3.73828C14.9943 2.95832 16.4197 2.5 17.957 2.5Z" stroke="white"/>
</svg>
