<svg width="59" height="15" viewBox="0 0 59 15" fill="none" xmlns="http://www.w3.org/2000/svg">
<g clip-path="url(#clip0_1_49357)">
<path d="M21.9871 3.30371H18.7331C18.5104 3.30371 18.321 3.47014 18.2863 3.6963L16.9702 12.2808C16.944 12.4502 17.0716 12.6029 17.2386 12.6029H18.7921C19.0148 12.6029 19.2041 12.4365 19.2389 12.2099L19.5938 9.89448C19.6281 9.66784 19.8179 9.5014 20.0401 9.5014H21.0702C23.2137 9.5014 24.4508 8.43427 24.7739 6.31958C24.9195 5.39441 24.7801 4.66749 24.359 4.1584C23.8965 3.59938 23.0762 3.30371 21.9871 3.30371ZM22.3625 6.43903C22.1846 7.64028 21.2924 7.64028 20.4298 7.64028H19.9388L20.2833 5.39686C20.3037 5.26126 20.4179 5.1614 20.5511 5.1614H20.7762C21.3638 5.1614 21.9181 5.1614 22.2046 5.50602C22.3754 5.71161 22.4277 6.01707 22.3625 6.43903Z" fill="white"/>
<path d="M10.3505 3.50055C10.2605 3.47362 10.1677 3.44915 10.0726 3.42712C9.97695 3.40558 9.87893 3.38649 9.77806 3.36985C9.42501 3.31111 9.03818 3.2832 8.62375 3.2832H5.12563C5.0395 3.2832 4.95767 3.30327 4.88439 3.3395C4.72309 3.41929 4.60319 3.57642 4.57417 3.7688L3.83001 8.61789L3.80859 8.75936C3.8576 8.4402 4.12263 8.20523 4.43713 8.20523H5.74655C8.31829 8.20523 10.3319 7.13076 10.9205 4.02236C10.9381 3.93034 10.9528 3.84076 10.9662 3.75313C10.8172 3.67187 10.6559 3.60236 10.4823 3.54313C10.4394 3.52845 10.3952 3.51425 10.3505 3.50055Z" fill="white"/>
<path d="M31.714 6.40028H30.1557C30.023 6.40028 29.9083 6.50014 29.8878 6.63574L29.8188 7.08413L29.7099 6.92161C29.3725 6.4179 28.6203 6.24951 27.8695 6.24951C26.1475 6.24951 24.6768 7.59126 24.3904 9.47343C24.2414 10.4123 24.4532 11.3101 24.9708 11.9362C25.4457 12.5118 26.1252 12.7517 26.9336 12.7517C28.321 12.7517 29.0904 11.8338 29.0904 11.8338L29.0209 12.2793C28.9947 12.4497 29.1223 12.6024 29.2883 12.6024H30.6919C30.9151 12.6024 31.1035 12.4359 31.1387 12.2093L31.9809 6.72238C32.0075 6.5535 31.8805 6.40028 31.714 6.40028ZM29.5419 9.52042C29.3916 10.4363 28.685 11.0511 27.7838 11.0511C27.3313 11.0511 26.9697 10.9018 26.7375 10.6189C26.5072 10.3379 26.4197 9.93797 26.493 9.49252C26.6333 8.58448 27.3518 7.94958 28.2392 7.94958C28.6817 7.94958 29.0414 8.10084 29.2783 8.38622C29.5158 8.67455 29.61 9.07692 29.5419 9.52042Z" fill="white"/>
<path d="M40.0141 6.40039H38.4482C38.2988 6.40039 38.1584 6.47675 38.0737 6.60452L35.914 9.87738L34.9986 6.73228C34.941 6.5355 34.7645 6.40039 34.5646 6.40039H33.0259C32.8389 6.40039 32.709 6.58836 32.7685 6.76948L34.4933 11.9769L32.8717 14.3319C32.7442 14.5175 32.8727 14.7725 33.093 14.7725H34.657C34.8054 14.7725 34.9443 14.6981 35.0286 14.5728L40.2367 6.8385C40.3614 6.65347 40.2334 6.40039 40.0141 6.40039Z" fill="white"/>
<path d="M45.1981 3.30371H41.9435C41.7213 3.30371 41.532 3.47014 41.4972 3.6963L40.1812 12.2808C40.155 12.4502 40.2825 12.6029 40.4486 12.6029H42.1186C42.2737 12.6029 42.4065 12.4864 42.4308 12.3278L42.8043 9.89448C42.8385 9.66784 43.0284 9.5014 43.2506 9.5014H44.2802C46.4242 9.5014 47.6608 8.43427 47.9844 6.31958C48.1305 5.39441 47.9901 4.66749 47.569 4.1584C47.107 3.59938 46.2872 3.30371 45.1981 3.30371ZM45.5735 6.43903C45.396 7.64028 44.5039 7.64028 43.6407 7.64028H43.1502L43.4951 5.39686C43.5156 5.26126 43.6288 5.1614 43.7625 5.1614H43.9876C44.5747 5.1614 45.1295 5.1614 45.416 5.50602C45.5868 5.71161 45.6387 6.01707 45.5735 6.43903Z" fill="white"/>
<path d="M54.9248 6.40028H53.3675C53.2338 6.40028 53.1201 6.50014 53.1001 6.63574L53.0311 7.08413L52.9217 6.92161C52.5843 6.4179 51.8326 6.24951 51.0817 6.24951C49.3598 6.24951 47.8896 7.59126 47.6031 9.47343C47.4547 10.4123 47.6655 11.3101 48.1831 11.9362C48.6589 12.5118 49.3374 12.7517 50.1458 12.7517C51.5333 12.7517 52.3027 11.8338 52.3027 11.8338L52.2332 12.2793C52.207 12.4497 52.3345 12.6024 52.5016 12.6024H53.9047C54.1269 12.6024 54.3163 12.4359 54.351 12.2093L55.1937 6.72238C55.2194 6.5535 55.0918 6.40028 54.9248 6.40028ZM52.7528 9.52042C52.6034 10.4363 51.8959 11.0511 50.9947 11.0511C50.5431 11.0511 50.1806 10.9018 49.9484 10.6189C49.7181 10.3379 49.6315 9.93797 49.7038 9.49252C49.8451 8.58448 50.5626 7.94958 51.45 7.94958C51.8925 7.94958 52.2522 8.10084 52.4892 8.38622C52.7276 8.67455 52.8218 9.07692 52.7528 9.52042Z" fill="white"/>
<path d="M56.7609 3.53917L55.4253 12.2808C55.3991 12.4502 55.5266 12.6029 55.6927 12.6029H57.0354C57.2586 12.6029 57.4479 12.4365 57.4822 12.2099L58.7992 3.62581C58.8254 3.45644 58.6979 3.30322 58.5318 3.30322H57.0283C56.8955 3.30371 56.7813 3.40357 56.7609 3.53917Z" fill="white"/>
<path d="M3.45629 14.2712L3.70513 12.645L3.15082 12.6318H0.503906L2.34337 0.63241C2.34908 0.596186 2.36764 0.56241 2.39476 0.538423C2.42188 0.514437 2.45662 0.501221 2.49278 0.501221H6.95584C8.4375 0.501221 9.46001 0.818423 9.99387 1.44451C10.2441 1.73821 10.4035 2.04514 10.4806 2.3829C10.5615 2.7373 10.5629 3.16073 10.4839 3.67716L10.4782 3.71486V4.04577L10.7285 4.19164C10.9393 4.30668 11.1068 4.43835 11.2352 4.58912C11.4494 4.84024 11.5878 5.1594 11.6463 5.53779C11.7068 5.92695 11.6868 6.39003 11.5878 6.9143C11.4736 7.51737 11.289 8.04262 11.0397 8.47241C10.8103 8.86842 10.5182 9.19689 10.1713 9.45143C9.84018 9.69325 9.44669 9.87681 9.00181 9.9943C8.57073 10.1098 8.07922 10.1681 7.54013 10.1681H7.19279C6.94442 10.1681 6.70319 10.2601 6.51382 10.4251C6.32397 10.5935 6.19836 10.8235 6.15982 11.0751L6.13365 11.2215L5.694 14.0876L5.67402 14.1928C5.66879 14.2261 5.65975 14.2428 5.64642 14.254C5.63453 14.2643 5.6174 14.2712 5.60074 14.2712H3.45629Z" fill="white"/>
<path d="M11.2881 4.66528C11.6611 5.16489 11.7691 5.9022 11.5771 6.91626C11.338 8.17949 10.8228 8.97058 10.1602 9.45532C9.48843 9.9466 8.60262 10.1692 7.54199 10.1692H7.19434C6.6956 10.1693 6.28163 10.517 6.16699 10.9836L6.15039 11.0667L6.12207 11.2229L6.12012 11.2356L5.68555 14.0735L5.66309 14.1946L5.66113 14.2024L5.66016 14.2112C5.65283 14.2571 5.62011 14.2717 5.60254 14.2717H3.4707L3.63379 13.2092L4.30371 8.83521C4.31718 8.74765 4.38317 8.70532 4.43848 8.70532H5.74805C7.09798 8.70527 8.36052 8.42337 9.37305 7.68286C10.2774 7.02146 10.9325 6.02932 11.2881 4.66528Z" fill="white" stroke="#DDDDDD"/>
<path d="M4.5744 3.76874C4.60342 3.57636 4.72332 3.41923 4.88462 3.33993C4.95837 3.30371 5.03974 3.28364 5.12586 3.28364H8.62399C9.03841 3.28364 9.42524 3.31154 9.77829 3.37028C9.87916 3.38692 9.97718 3.40601 10.0728 3.42755C10.168 3.44958 10.2608 3.47406 10.3507 3.50098C10.3954 3.51469 10.4397 3.52888 10.483 3.54308C10.6566 3.60231 10.8179 3.67231 10.9669 3.75308C11.142 2.6042 10.9654 1.82196 10.3616 1.11364C9.69598 0.333846 8.49457 0 6.95724 0H2.49417C2.18014 0 1.91226 0.234965 1.86373 0.554615L0.00475275 12.6773C-0.0318843 12.9172 0.14797 13.1336 0.383019 13.1336H3.13841L3.83024 8.61783L4.5744 3.76874Z" fill="white"/>
</g>
<defs>
<clipPath id="clip0_1_49357">
<rect width="59" height="15" fill="white"/>
</clipPath>
</defs>
</svg>
