<svg width="49" height="12" viewBox="0 0 49 12" fill="none" xmlns="http://www.w3.org/2000/svg">
<g clip-path="url(#clip0_1_49403)">
<mask id="mask0_1_49403" style="mask-type:luminance" maskUnits="userSpaceOnUse" x="0" y="0" width="49" height="13">
<path d="M49 0.00317383H0V12.0004H49V0.00317383Z" fill="white"/>
</mask>
<g mask="url(#mask0_1_49403)">
<path d="M12.5524 3.77448C12.1594 2.93398 11.4144 2.39105 10.2916 2.39105C9.94703 2.39717 9.60842 2.48393 9.3019 2.64457C8.9954 2.80523 8.72915 3.03552 8.52376 3.31768L8.48279 3.36857V0.0744673C8.48279 0.0554296 8.47538 0.0371728 8.46217 0.0237114C8.44896 0.0102497 8.43104 0.00268555 8.41237 0.00268555H6.82498C6.80654 0.00302762 6.78897 0.0107406 6.77604 0.0241653C6.7631 0.03759 6.75586 0.0556536 6.75586 0.0744673V9.52352C6.75586 9.54221 6.76316 9.56012 6.77612 9.57334C6.78908 9.58657 6.80665 9.59399 6.82498 9.59399H8.52504C8.54349 9.59399 8.56121 9.58662 8.57438 9.57342C8.58754 9.56024 8.5951 9.54233 8.59544 9.52352V5.49462C8.59544 4.71156 9.1075 4.15687 9.9268 4.15687C10.8229 4.15687 11.0495 4.90862 11.0495 5.67471V9.52352C11.0495 9.54221 11.0568 9.56012 11.0697 9.57334C11.0827 9.58657 11.1003 9.59399 11.1186 9.59399H12.8148C12.8333 9.59399 12.851 9.58662 12.8642 9.57342C12.8773 9.56024 12.8849 9.54233 12.8853 9.52352V5.44502C12.8853 5.30538 12.8853 5.16833 12.8673 5.03522C12.8382 4.59898 12.7315 4.17177 12.5524 3.77448Z" fill="white"/>
<path d="M4.06453 5.17495C4.06453 5.17495 3.19914 4.96743 2.88039 4.8839C2.56162 4.80038 2.00476 4.62288 2.00476 4.19349C2.00476 3.76411 2.45409 3.62706 2.90983 3.62706C3.36556 3.62706 3.87251 3.73931 3.91219 4.25483C3.91379 4.27342 3.92218 4.29068 3.93569 4.30327C3.9492 4.31584 3.96686 4.32276 3.98515 4.3227L5.66087 4.31618C5.67073 4.3162 5.68049 4.31415 5.68954 4.31016C5.69859 4.30617 5.70672 4.30031 5.71345 4.29295C5.72019 4.28562 5.72536 4.27693 5.72864 4.26745C5.73192 4.25796 5.73327 4.24789 5.73256 4.23786C5.62887 2.5882 4.20918 1.99829 2.89958 1.99829C1.34676 1.99829 0.211269 3.04238 0.211269 4.19349C0.211269 5.03399 0.444257 5.82229 2.27614 6.37043C2.59747 6.4657 3.034 6.58969 3.41549 6.69802C3.87378 6.82854 4.12085 7.02561 4.12085 7.33622C4.12085 7.69643 3.60879 7.947 3.10569 7.947C2.37729 7.947 1.8601 7.67163 1.81786 7.17698C1.81566 7.15889 1.80702 7.14223 1.79356 7.13019C1.78011 7.11816 1.76279 7.11159 1.74489 7.11173L0.0730125 7.11956C0.0632108 7.11956 0.0535098 7.12156 0.0444857 7.12547C0.0354617 7.12937 0.0273011 7.13508 0.0204907 7.14228C0.0136804 7.14945 0.00835901 7.15797 0.00484629 7.16729C0.00133357 7.17663 -0.000298973 7.18658 4.49472e-05 7.19657C0.076854 8.75357 1.55159 9.59275 2.92648 9.59275C4.97472 9.59275 5.90026 8.41816 5.90026 7.31795C5.90283 6.80111 5.78632 5.6239 4.06453 5.17495Z" fill="white"/>
<path d="M25.622 2.38858C24.7708 2.38858 24.0576 2.86886 23.5981 3.44835V2.45645C23.5981 2.43798 23.5909 2.42024 23.5782 2.40707C23.5657 2.39389 23.5484 2.38631 23.5302 2.38599H21.9403C21.9221 2.38599 21.9043 2.39339 21.8914 2.40661C21.8785 2.41983 21.8711 2.43777 21.8711 2.45645V11.7228C21.8715 11.7412 21.879 11.7589 21.892 11.7717C21.9049 11.7847 21.9223 11.792 21.9403 11.792H23.6417C23.6596 11.792 23.6768 11.7847 23.6896 11.7717C23.7023 11.7588 23.7094 11.7411 23.7094 11.7228V8.67664H23.7351C24.0051 9.09687 24.7438 9.60066 25.7091 9.60066C27.5242 9.60066 29.0374 8.06584 29.0374 5.99202C29.0388 4.00172 27.5333 2.38858 25.622 2.38858ZM25.4645 7.83484C25.1063 7.84391 24.7532 7.74392 24.4509 7.54764C24.1487 7.35134 23.9104 7.06765 23.7668 6.73278C23.6234 6.39789 23.5809 6.027 23.6452 5.66744C23.7092 5.30788 23.8771 4.97596 24.127 4.71406C24.3771 4.45212 24.6979 4.27208 25.0488 4.19691C25.3995 4.12174 25.7643 4.15482 26.0965 4.29196C26.4289 4.42909 26.7134 4.66405 26.9142 4.96685C27.1149 5.26967 27.2225 5.62655 27.2235 5.99202C27.2272 6.23089 27.1845 6.46818 27.0981 6.69025C27.0117 6.91231 26.883 7.11477 26.7196 7.286C26.5562 7.45723 26.3612 7.59386 26.1457 7.68804C25.9304 7.78224 25.6989 7.83211 25.4645 7.83484Z" fill="white"/>
<path d="M16.8363 1.98145C15.2502 1.98145 14.459 2.5309 13.824 2.97073L13.8048 2.98377C13.7721 3.00662 13.7491 3.04124 13.7402 3.08068C13.7315 3.12013 13.7376 3.16148 13.7575 3.19651L14.3847 4.29801C14.3965 4.31863 14.4126 4.33635 14.4318 4.34988C14.4511 4.36342 14.473 4.37245 14.4962 4.37633C14.5187 4.38049 14.5419 4.37948 14.564 4.37338C14.5862 4.36728 14.6067 4.35628 14.6242 4.34108L14.674 4.29933C15.0005 4.02003 15.5241 3.64676 16.7914 3.54496C17.4968 3.48756 18.1062 3.67548 18.5554 4.10356C19.0496 4.56819 19.3454 5.31863 19.3454 6.11083C19.3454 7.56866 18.503 8.48483 17.1499 8.50312C16.0348 8.49659 15.2859 7.90406 15.2859 7.02833C15.2859 6.5637 15.492 6.26092 15.8941 5.95813C15.9247 5.93575 15.9464 5.90281 15.9551 5.86538C15.9639 5.82796 15.959 5.78858 15.9414 5.75454L15.3781 4.66867C15.3678 4.64924 15.3537 4.63209 15.3368 4.61821C15.3199 4.60432 15.3004 4.59397 15.2796 4.58776C15.2582 4.58129 15.2359 4.57946 15.2138 4.58237C15.1917 4.58529 15.1705 4.59291 15.1515 4.60474C14.5192 4.98713 13.7434 5.68667 13.7856 7.03095C13.8368 8.74195 15.2322 10.0484 17.0461 10.1019H17.1371H17.2612C19.4169 10.0301 20.9736 8.3987 20.9736 6.18654C20.9736 4.15576 19.5219 1.98145 16.8363 1.98145Z" fill="white"/>
<path d="M35.7428 3.02539H34.6622C34.637 3.02573 34.6127 3.03615 34.5948 3.05442C34.5767 3.07271 34.5665 3.09741 34.5664 3.12328V5.43463C34.5665 5.46037 34.5768 5.48492 34.5949 5.50299C34.6128 5.52107 34.637 5.53122 34.6622 5.53122H35.7428C36.4008 5.53122 36.886 5.00264 36.886 4.2783C36.886 3.55396 36.4008 3.02539 35.7428 3.02539Z" fill="white"/>
<path d="M39.0605 7.11435C39.0605 7.44976 39.3383 7.63639 39.8222 7.63639C40.4802 7.63639 40.8692 7.27357 40.8692 6.63014V6.44482L39.8837 6.49703C39.3638 6.52312 39.0605 6.7437 39.0605 7.11435Z" fill="white"/>
<path d="M47.0619 0.0236932H32.545C32.307 0.0236929 32.071 0.071538 31.8511 0.164492C31.631 0.257446 31.4312 0.39369 31.2629 0.565434C31.0945 0.73718 30.961 0.941062 30.87 1.16543C30.7788 1.3898 30.7322 1.63025 30.7324 1.87305V9.9752C30.7324 10.4655 30.9233 10.9357 31.2633 11.2824C31.6032 11.6292 32.0643 11.8242 32.545 11.8245H47.0619C47.3004 11.8252 47.5367 11.778 47.7572 11.6856C47.9777 11.5931 48.1781 11.4572 48.3471 11.2857C48.5159 11.1141 48.6502 10.9104 48.7419 10.6859C48.8335 10.4615 48.8807 10.2209 48.8811 9.97782V1.87565C48.8815 1.63209 48.8348 1.39082 48.7436 1.16572C48.6523 0.940629 48.5183 0.736149 48.3493 0.56404C48.1803 0.391933 47.9795 0.255594 47.7586 0.162862C47.5377 0.0701289 47.3009 0.0228325 47.0619 0.0236932ZM35.7965 6.44096H34.6547C34.6293 6.44096 34.605 6.45126 34.5868 6.46962C34.5689 6.48798 34.5587 6.51288 34.5587 6.53885V8.19633C34.5587 8.22229 34.5486 8.24719 34.5306 8.26554C34.5126 8.28391 34.4882 8.29422 34.4628 8.29422H33.6587C33.6335 8.29388 33.6091 8.28346 33.5912 8.26516C33.5732 8.2469 33.5632 8.22219 33.5628 8.19633V2.21759C33.5628 2.19165 33.5729 2.16674 33.591 2.14838C33.609 2.13002 33.6333 2.11971 33.6587 2.11971H35.7965C37.0076 2.11971 37.8743 3.01894 37.8743 4.28099C37.8743 5.54304 37.014 6.44356 35.8031 6.44356L35.7965 6.44096ZM41.8133 8.19503C41.8136 8.208 41.8113 8.22085 41.8064 8.23289C41.8016 8.24491 41.7946 8.25587 41.7857 8.26509C41.7767 8.27431 41.7661 8.28165 41.7543 8.28665C41.7427 8.29164 41.73 8.29422 41.7173 8.29422H40.9582C40.9455 8.29422 40.9329 8.29164 40.9212 8.28665C40.9094 8.28165 40.8987 8.27431 40.8898 8.26509C40.881 8.25587 40.8738 8.24491 40.8692 8.23289C40.8644 8.22085 40.862 8.208 40.8623 8.19503V8.01624C40.8634 8.00054 40.8598 7.98484 40.8515 7.97151C40.8434 7.95816 40.8313 7.94785 40.8168 7.94212C40.8025 7.9364 40.7867 7.93558 40.7718 7.93977C40.7567 7.94394 40.7437 7.95291 40.7342 7.96533C40.5076 8.21722 40.1389 8.39993 39.5513 8.39993C38.686 8.39993 38.1136 7.94054 38.1136 7.14702C38.1053 6.95354 38.1445 6.76099 38.2277 6.58685C38.3108 6.41274 38.4354 6.26254 38.59 6.14992C38.9023 5.91108 39.3861 5.7871 40.1043 5.75838L40.8659 5.73228V5.50517C40.8659 5.04708 40.5639 4.85262 40.0786 4.85262C39.5935 4.85262 39.2875 5.02751 39.216 5.31333C39.2102 5.33352 39.1981 5.35117 39.1813 5.36348C39.1647 5.37579 39.1444 5.38201 39.1237 5.38119H38.3723C38.3585 5.38155 38.3447 5.3788 38.332 5.37317C38.3195 5.36753 38.3081 5.35912 38.2989 5.34855C38.2898 5.33796 38.283 5.3255 38.2791 5.31196C38.2752 5.29843 38.2741 5.28421 38.2763 5.27026C38.389 4.5916 38.9394 4.07607 40.1134 4.07607C41.3602 4.07607 41.8095 4.6673 41.8095 5.79622L41.8133 8.19503ZM46.5423 4.31621L44.8525 8.91154C44.4684 9.97911 43.7963 10.2532 43.0602 10.2532C42.9216 10.2567 42.7831 10.2395 42.6493 10.2023C42.6284 10.1966 42.6101 10.184 42.5967 10.1666C42.5837 10.1491 42.5765 10.1277 42.5763 10.1057V9.40748C42.5763 9.39287 42.5794 9.37843 42.5854 9.36519C42.5915 9.35195 42.6003 9.34023 42.6113 9.33089C42.6224 9.32153 42.6352 9.31479 42.6491 9.3111C42.6629 9.30743 42.6774 9.3069 42.6915 9.30959C42.8076 9.33204 42.9254 9.3434 43.0436 9.34354C43.2471 9.35394 43.4482 9.2944 43.6148 9.17442C43.781 9.05444 43.9032 8.88098 43.9614 8.68184L44.0115 8.5213C44.0192 8.49983 44.0192 8.47624 44.0115 8.45474L42.4316 4.31753C42.4268 4.30274 42.4255 4.28698 42.4277 4.27157C42.4301 4.25614 42.4359 4.24148 42.4445 4.22878C42.4535 4.21607 42.4652 4.20567 42.4787 4.1984C42.4922 4.19114 42.5073 4.18723 42.5225 4.18701H43.2907C43.3103 4.18721 43.3294 4.19339 43.3456 4.2048C43.3619 4.21619 43.3744 4.23227 43.3815 4.25097L44.4544 7.16921C44.4615 7.18827 44.474 7.20469 44.4904 7.21628C44.507 7.22788 44.5264 7.23407 44.5465 7.23407C44.5664 7.23407 44.5861 7.22788 44.6025 7.21628C44.6189 7.20469 44.6316 7.18827 44.6386 7.16921L45.5694 4.2588C45.5756 4.23896 45.5879 4.22167 45.6045 4.20946C45.6211 4.19724 45.6409 4.19075 45.6614 4.19094H46.4489C46.464 4.19087 46.4789 4.19448 46.4927 4.2014C46.5062 4.20834 46.5181 4.21843 46.5272 4.23087C46.5363 4.24331 46.5423 4.25774 46.5449 4.27303C46.5476 4.28829 46.5467 4.30398 46.5423 4.31883V4.31621Z" fill="white"/>
</g>
</g>
<defs>
<clipPath id="clip0_1_49403">
<rect width="49" height="12" fill="white"/>
</clipPath>
</defs>
</svg>
