<svg width="34" height="11" viewBox="0 0 34 11" fill="none" xmlns="http://www.w3.org/2000/svg">
<g clip-path="url(#clip0_1_49376)">
<path d="M17.584 3.50235C17.5646 5.0285 18.947 5.8802 19.9883 6.38654C21.0583 6.90612 21.4177 7.23927 21.4136 7.70384C21.4054 8.41495 20.5601 8.72874 19.7688 8.74096C18.3885 8.76236 17.586 8.36911 16.9479 8.07162L16.4507 10.3934C17.0909 10.6879 18.2762 10.9446 19.5054 10.9558C22.3907 10.9558 24.2784 9.5346 24.2886 7.33096C24.2999 4.53438 20.412 4.37953 20.4386 3.12947C20.4478 2.75048 20.8102 2.34602 21.6045 2.24313C21.9976 2.19117 23.0829 2.15144 24.3131 2.71686L24.796 0.470434C24.1345 0.23 23.284 -0.000246048 22.2253 -0.000246048C19.5095 -0.000246048 17.5993 1.44032 17.584 3.50235ZM29.4363 0.193323C28.9095 0.193323 28.4654 0.499979 28.2673 0.97066L24.1457 10.7908H27.0289L27.6027 9.20859H31.126L31.4588 10.7908H34L31.7825 0.193323H29.4363ZM29.8396 3.05612L30.6717 7.03551H28.3929L29.8396 3.05612ZM14.0882 0.193323L11.8156 10.7908H14.563L16.8346 0.193323H14.0882ZM10.0238 0.193323L7.16407 7.40635L6.00733 1.27324C5.87154 0.588614 5.33554 0.193323 4.74032 0.193323H0.0653414L0 0.500998C0.959702 0.708831 2.05009 1.04401 2.71065 1.40263C3.11495 1.62167 3.23032 1.8132 3.36304 2.3338L5.55402 10.7908H8.45763L12.909 0.193323H10.0238Z" fill="white"/>
</g>
<defs>
<clipPath id="clip0_1_49376">
<rect width="34" height="11" fill="white"/>
</clipPath>
</defs>
</svg>
