<svg width="1331" height="467" viewBox="0 0 1331 467" fill="none" xmlns="http://www.w3.org/2000/svg">
<path d="M1306.84 12.2722C1306.75 12.2046 1306.73 12.079 1306.78 11.9127C1306.79 11.9015 1306.8 11.8899 1306.8 11.8779C1306.77 11.9407 1306.76 12.0105 1306.76 12.0799C1306.77 12.1493 1306.79 12.2158 1306.84 12.2722Z" fill="#884F56"/>
<path d="M1318.03 7.86648C1316.9 8.05977 1317.38 7.87615 1318 7.65967C1317.89 7.73505 1317.87 7.80656 1318.03 7.86648Z" fill="#884F56"/>
<path d="M1299.98 12.079C1303.94 11.566 1307.9 10.7646 1311.85 9.99609C1307.88 10.7723 1303.92 11.5757 1299.98 12.079Z" fill="#884F56"/>
<path d="M1290.75 10.3945C1292.64 10.2843 1294.51 10.0311 1296.38 9.83203C1294.5 10.0968 1292.56 10.2921 1290.75 10.3945Z" fill="#884F56"/>
<path d="M1259.27 3.4125C1264.34 2.40978 1269.38 3.95452 1274.35 2.27815L1274.7 1.85034C1281.54 2.70788 1288.38 3.59252 1295.24 4.29133C1294.88 4.44426 1293.52 4.46556 1293.64 5.09274C1289.1 4.72108 1284.41 4.72688 1279.94 4.24101C1284.65 4.75205 1289.38 5.07145 1294.1 5.53216C1294.24 5.64078 1294.41 5.70608 1294.59 5.71923C1294.77 5.73238 1294.95 5.69276 1295.1 5.60572C1296.73 5.71799 1298.56 5.79929 1300.1 6.04126C1298.6 5.81091 1297.09 5.5883 1295.6 5.34246C1295.86 5.14888 1296.1 4.61074 1295.79 4.34747C1306.22 5.41988 1316.83 6.4439 1327.14 8.279C1327.15 8.41452 1327.13 8.54981 1327.08 8.67777C1318.27 11.9937 1309.22 15.0348 1300.5 18.5734L1300.27 18.6702C1300.27 18.6544 1300.28 18.6383 1300.29 18.6218C1299.96 18.6713 1299.66 18.8114 1299.42 19.0244L1298.32 19.4329C1297.97 19.2606 1297.15 19.3187 1297.67 19.6787L1296.13 20.2594C1293.44 17.9927 1290.86 15.6136 1288.18 13.343C1288.23 13.3217 1288.27 13.3042 1288.31 13.281L1288.17 13.3371C1284.23 9.99215 1280.24 6.65103 1276.18 3.46477L1275.35 3.3583C1269.39 10.66 1263.54 18.0469 1257.62 25.3756C1257.52 25.0947 1257.32 24.8549 1257.06 24.6962C1256.65 24.8491 1256.61 24.9169 1256.08 25.2208C1261.27 18.7282 1266.37 12.1699 1271.6 5.70638C1269.31 7.35371 1265.83 6.88913 1263.15 7.36726C1259.66 7.98864 1256.2 9.4966 1253.3 11.4324C1252.96 11.2363 1252.58 11.1048 1252.19 11.0452C1252.71 10.2315 1253.18 9.39139 1253.6 8.52872C1252.52 8.91587 1251.33 9.22753 1250.17 9.16752C1250.05 9.27408 1249.91 9.3499 1249.75 9.38729C1249.6 9.42469 1249.43 9.42233 1249.28 9.38045C1248.01 8.13382 1258 3.66415 1259.27 3.4125ZM1318.99 7.23563C1319.08 7.26273 1318.27 7.46598 1318 7.65569C1317.39 7.87249 1316.9 8.05639 1318.03 7.86282C1317.87 7.80281 1317.89 7.73118 1318 7.65569C1318.53 7.46211 1319.16 7.25886 1318.99 7.23563ZM1321.02 8.50936C1321.16 8.48032 1320.26 8.7823 1320.39 8.92168C1320.76 9.30883 1322.18 8.2732 1321.02 8.50936ZM1323.75 8.00413C1323.63 7.98234 1323.5 8.00444 1323.4 8.06607C1323.22 8.24416 1323.14 8.45322 1323.38 8.56356C1323.78 8.61195 1323.9 8.43193 1323.75 8.00413ZM1325.53 8.72036C1317.74 10.1335 1310.91 13.1726 1303.51 15.5439C1310.76 13.2365 1318.06 10.0735 1325.53 8.72036ZM1312.25 11.7692H1312.27C1312.71 11.9434 1312.82 11.624 1312.25 11.7692ZM1306.84 11.804C1306.83 11.8273 1306.81 11.8524 1306.8 11.8776C1306.8 11.8896 1306.79 11.9012 1306.78 11.9124C1306.73 12.0847 1306.75 12.2047 1306.84 12.2725C1306.89 12.3144 1306.94 12.343 1307.01 12.355C1307.07 12.3669 1307.14 12.3618 1307.2 12.3402C1307.07 12.3612 1306.95 12.337 1306.84 12.2725C1306.8 12.2167 1306.77 12.1516 1306.77 12.0836C1306.76 12.0156 1306.77 11.9472 1306.8 11.8853C1306.81 11.8574 1306.83 11.8303 1306.84 11.804ZM1311.85 9.99602C1314.76 9.42691 1317.66 8.87522 1320.55 8.46871C1317.64 8.87522 1314.74 9.43659 1311.85 9.99602C1307.9 10.7703 1303.94 11.5659 1299.98 12.0789C1303.92 11.5756 1307.88 10.7723 1311.85 9.99602ZM1296.39 9.83149C1297.28 9.73857 1298.17 9.65533 1299.06 9.61081C1299.01 9.95058 1299.04 10.2981 1299.17 10.6213C1299.43 10.4767 1299.69 10.3328 1299.95 10.1896L1300.18 9.75793L1300.59 9.51983C1301.16 9.48498 1301.74 9.46046 1302.32 9.44627C1302.27 9.55401 1302.25 9.67232 1302.25 9.79083L1303.2 10.48L1303.77 9.87794L1303.42 9.46949C1303.46 9.43272 1303.5 9.39207 1303.53 9.35529C1307.59 9.02427 1311.75 8.27126 1315.73 8.00025C1311.77 8.26352 1307.82 8.43387 1303.87 8.91781C1303.98 8.75133 1304.08 8.58098 1304.19 8.41257C1304.08 8.58098 1303.99 8.75133 1303.87 8.91781C1303.51 8.95846 1303.15 8.99717 1302.79 9.02427C1302.77 8.98943 1302.75 8.95652 1302.73 8.92168L1302.05 8.6739L1302.72 8.92748C1302.68 8.9662 1302.64 9.00492 1302.6 9.04363C1302.13 9.07654 1301.66 9.11332 1301.19 9.16752L1302.04 8.68358C1301.79 8.62163 1301.32 8.68358 1301.78 8.23061C1301.45 7.87249 1300.83 8.0622 1300.23 8.20932C1299.39 7.35952 1299.14 8.98362 1299.08 9.39787C1298.2 9.55854 1297.29 9.70373 1296.38 9.83149C1294.5 10.0251 1292.63 10.2845 1290.74 10.3948C1292.57 10.2922 1294.5 10.0967 1296.39 9.83149ZM1303.17 7.03044C1303.16 7.09223 1303.16 7.15542 1303.18 7.21583C1303.2 7.27624 1303.23 7.33247 1303.27 7.38081L1303.66 7.73312C1304.04 7.56889 1304.39 7.33402 1304.68 7.04205C1304.79 7.04205 1306.81 7.12335 1306.84 7.12529C1306.16 7.07109 1305.49 6.93171 1304.81 6.90461C1304.85 6.85041 1304.89 6.79815 1304.94 6.74201C1305.03 6.68006 1305.95 6.21161 1305.85 5.90189C1305.65 5.29987 1303.51 6.60844 1303.32 6.7846C1297.27 5.89027 1290.94 6.84654 1284.91 6.59102C1290.99 6.85815 1297.09 6.82331 1303.17 7.03044ZM1271.32 6.85041C1270.9 6.95881 1270.83 7.10851 1271.11 7.29951C1270.64 7.49308 1270.44 7.77377 1270.51 8.16092C1271.5 8.3003 1271.72 7.79894 1271.51 7.09626C1271.55 6.94527 1271.56 6.80976 1271.32 6.85041ZM1272.08 6.06449C1271.96 6.18838 1271.84 6.31421 1271.72 6.44003C1272.09 6.63748 1272.33 6.43422 1272.08 6.06449ZM1255.54 6.93752C1254.88 8.05639 1254.33 9.38045 1253.56 10.4219C1255.93 8.83595 1258.54 7.60408 1261.3 6.76911C1264.8 5.74703 1268.56 6.17677 1271.71 4.30295C1271.66 4.31457 1271.61 4.32812 1271.57 4.3378C1268.09 5.00176 1264.32 3.86353 1260.8 4.07453C1257.1 4.29327 1254.36 5.81671 1251.6 8.13963C1252.95 7.88991 1254.25 7.3692 1255.54 6.93752Z" fill="#884F56"/>
<path d="M1185.54 96.0081C1185.96 96.1436 1186.33 96.0081 1186.62 95.5997C1189.75 94.4847 1193.06 93.7239 1195.96 92.094C1195.62 92.6263 1194.36 92.9767 1194.36 93.6097C1192.46 94.4417 1190.52 95.1764 1188.55 95.8107C1188.59 95.741 1188.64 95.6732 1188.69 95.6055C1188.43 95.5009 1188.13 95.5745 1187.87 95.8378C1187.79 95.9103 1187.72 95.998 1187.68 96.0952C1186.63 96.4553 1177.24 100.257 1176.77 99.1015C1176.58 98.6388 1184.79 96.2965 1185.54 96.0081Z" fill="#884F56"/>
<path d="M1233.21 61.35C1233.8 61.0848 1234.4 60.8273 1234.99 60.5757C1234.4 60.8389 1233.81 61.1003 1233.21 61.35Z" fill="#884F56"/>
<path d="M1177.06 91.941C1178.97 91.1106 1181.25 90.9073 1183.28 90.464C1183.25 90.4853 1183.23 90.5066 1183.2 90.526L1183.55 90.9576L1184.31 90.2395C1191.56 88.6908 1198.23 86.5325 1203.34 81.1898C1209.06 75.216 1215.51 64.9991 1225.01 64.2345C1235.14 51.43 1245.32 38.654 1255.52 25.9064L1255.88 27.1046L1256.12 27.215C1247.25 38.1888 1238.21 49.0465 1229.52 60.1577C1229.38 60.052 1229.2 59.9925 1229.02 59.9874C1228.92 60.4287 1228.92 60.51 1229.34 60.3958C1228.07 62.0161 1226.77 63.615 1225.47 65.2217C1227.97 63.8083 1230.55 62.5161 1233.2 61.3502C1233.8 61.1005 1234.39 60.8391 1234.99 60.5759C1243.98 56.7256 1253.44 53.7581 1261.97 49.1549C1257.47 51.532 1252.62 53.098 1247.85 54.8886C1249.18 53.127 1243.82 54.4724 1245.77 55.6745C1242.08 57.0489 1238.58 58.9479 1234.99 60.5778C1234.39 60.8333 1233.79 61.0908 1233.2 61.3521C1231.97 61.8739 1230.71 62.3352 1229.43 62.7342C1239.24 56.4837 1249.57 51.0539 1259.01 44.3039C1266.39 39.027 1274.44 34.3715 1282.08 29.4159C1286.77 26.3768 1291.41 23.266 1296.13 20.2617C1300.56 26.9594 1305.14 33.7172 1309.37 40.4614L1309.6 40.3897C1311.81 36.3537 1313.98 32.2925 1316.26 28.2912C1316.23 28.7094 1317.65 27.9776 1317.66 27.5169C1317.66 27.2595 1316.48 27.9254 1316.46 27.9428C1319.04 23.3757 1321.64 18.8189 1324.26 14.2725C1324.87 14.377 1324.83 13.7517 1324.77 13.3936C1325.36 12.387 1325.94 11.3804 1326.54 10.3796L1326.8 10.7416C1325.84 12.6542 1324.84 14.5473 1323.84 16.4444C1323.78 16.4199 1323.72 16.3986 1323.66 16.3805C1323.61 16.4541 1323.57 16.5276 1323.52 16.6012C1323.6 16.6012 1323.68 16.6012 1323.76 16.6012C1320.37 23.0666 1316.83 29.4643 1313.32 35.8678C1313.34 35.5794 1313.18 35.3587 1313.06 35.1225L1312.45 35.7788C1312.53 36.0014 1312.65 36.6189 1313.06 36.3363C1312.22 37.8655 1311.37 39.3941 1310.53 40.9221C1310.94 42.1784 1310.05 44.9233 1309.83 46.2667C1309.28 49.5524 1308.38 52.7774 1307.15 55.8933C1306.49 57.6006 1298.31 72.3724 1296.15 70.6747C1296.45 70.5547 1297.51 69.5636 1296.4 69.9353C1296.31 69.4884 1296.25 69.0354 1296.23 68.5802C1296.36 68.5575 1296.48 68.4938 1296.57 68.3994C1296.65 68.305 1296.71 68.1853 1296.71 68.0595C1296.64 68.0179 1296.55 67.996 1296.46 67.996C1296.37 67.996 1296.29 68.0179 1296.21 68.0595C1296.21 67.8272 1296.2 67.5814 1296.21 67.3123C1294.66 67.291 1292.78 67.1032 1291.37 66.4044C1291.91 66.0173 1292.44 65.6301 1292.97 65.243C1293.51 65.8682 1294.38 65.5101 1293.63 64.7165C1297.5 61.505 1301.23 57.8174 1303.95 53.6594C1306.51 49.7646 1307.51 45.3201 1309.82 41.4041C1281.47 50.0898 1252.82 57.9277 1224.43 66.5051C1222.5 69.2326 1219.39 71.6213 1217.2 74.221C1217.16 73.3693 1215.54 75.1618 1216.84 74.6353C1210.71 81.6795 1205.83 87.5429 1197.34 92.09C1197.47 91.8447 1197.5 91.5634 1197.43 91.2983C1203.73 87.8411 1208.45 83.4585 1212.78 77.8506C1212.87 77.8781 1212.97 77.8873 1213.06 77.8777L1213.02 77.9087L1213.12 77.8758H1213.07C1213.4 77.6177 1213.48 77.3776 1213.32 77.1557C1214.99 74.9179 1216.86 72.8641 1218.66 70.7289C1215.99 73.0867 1213.51 75.6032 1211.01 78.1197C1210.82 78.05 1210.63 78.0025 1210.42 77.9784C1213.1 75.2431 1215.78 72.5485 1218.61 69.9585C1220.39 68.3286 1222.9 66.9774 1224.32 65.1055C1218.62 67.442 1214.2 70.9574 1210.05 75.3419C1209.23 75.1947 1207.23 76.6775 1208.14 77.357C1206.17 79.4186 1204.29 81.604 1202.12 83.4682C1202.95 82.4596 1200.55 84.4264 1201.93 83.6346C1195.61 88.9077 1186.14 91.4261 1177.92 92.3688C1178.59 92.7889 1179.16 93.478 1179.83 93.9174C1179.74 94.0936 1179.65 94.2717 1179.57 94.4497C1179.52 94.4749 1179.47 94.4943 1179.42 94.5175C1179.01 93.7432 1177.64 93.569 1177.08 92.9805C1176.63 92.4927 1175.95 91.0389 1177.06 91.941ZM1255.03 49.722C1254.53 49.031 1253.48 49.2846 1252.88 49.6562C1252.4 50.0085 1252.35 50.3957 1252.75 50.8177C1248.02 53.1987 1243.03 55.7423 1238.11 57.5929C1243.22 55.6765 1248.3 53.4252 1253.18 51.0326C1253.86 51.2261 1255.1 50.9242 1255.13 50.0647C1256.99 49.0968 1258.93 47.9857 1260.75 47.1243C1258.87 48.0166 1256.96 48.9264 1255.03 49.722ZM1260.95 45.3801C1261.24 45.506 1261.48 45.4092 1261.66 45.0859C1261.37 44.9117 1261.13 45.0098 1260.95 45.3801ZM1308.1 48.067C1304.31 54.7008 1300.01 60.7752 1294.06 65.876C1295.22 66.0173 1296.38 66.116 1297.53 66.2941C1297.38 67.2755 1297.25 68.2589 1297.12 69.2423C1303.54 62.529 1306.27 56.6327 1308.22 47.8482C1308.18 47.9218 1308.14 47.9953 1308.1 48.067ZM1283.98 40.9395C1283.48 40.8195 1283.19 40.975 1283.12 41.406L1283.78 41.3267C1283.98 41.2105 1284.06 41.0692 1283.98 40.9395ZM1294.26 24.9792C1294.42 24.8727 1294.57 24.7563 1294.71 24.6307C1294.67 24.0751 1293.62 25.3663 1294.27 24.9792H1294.26ZM1296.59 24.4313C1296.09 24.31 1295.8 24.4655 1295.73 24.8978L1296.39 24.8165C1296.58 24.6927 1296.67 24.5591 1296.6 24.4313H1296.59ZM1296.77 26.3303C1296.41 25.8657 1295.3 27.0756 1295.35 27.1046C1295.43 27.1336 1297.16 26.8046 1296.78 26.3303H1296.77ZM1296.42 28.1925C1296.3 28.7287 1296.32 28.7365 1297.08 28.5003C1297 28.405 1296.9 28.3276 1296.79 28.2743C1296.68 28.2209 1296.56 28.1929 1296.43 28.1925H1296.42ZM1296.78 41.375C1297.39 41.2273 1297.96 40.988 1298.48 40.6666L1296.2 41.4564C1296.4 41.4452 1296.6 41.418 1296.79 41.375H1296.78ZM1294.01 35.8891C1294.38 35.8059 1296.03 35.5755 1295.88 34.8593C1295.74 34.2437 1293.42 35.6026 1293.71 35.4574C1293.78 35.617 1293.89 35.7636 1294.01 35.891C1293.72 36.0812 1293.46 36.3006 1293.22 36.5453C1293.46 36.3002 1293.73 36.0802 1294.02 35.8891H1294.01ZM1291.36 31.0497C1291.41 30.8832 1291.46 30.7167 1291.5 30.5503C1291.44 30.4946 1291.36 30.4637 1291.27 30.4637C1291.18 30.4637 1291.1 30.4946 1291.04 30.5503C1290.55 30.8968 1290.94 31.0032 1291.36 31.0555V31.0497ZM1289.62 24.7372C1289.65 24.7275 1289.7 24.6694 1289.74 24.6346C1289.65 24.5552 1289.57 24.5746 1289.51 24.6888C1289.54 24.712 1289.58 24.7507 1289.62 24.743V24.7372ZM1284.47 45.0182C1284.4 44.9221 1284.3 44.8442 1284.18 44.7908C1284.07 44.7374 1283.95 44.7098 1283.82 44.7104C1283.7 45.2388 1283.72 45.2466 1284.47 45.0182ZM1284.17 42.8482C1283.8 42.3836 1282.7 43.5934 1282.74 43.6225C1282.79 43.6515 1284.55 43.3127 1284.17 42.8404V42.8482ZM1280.89 37.5964L1279.99 37.8016C1280.51 38.4733 1281.87 38.6301 1280.89 37.5887V37.5964ZM1265.81 43.0166C1267.23 43.7251 1270.15 43.1501 1270.95 41.8551C1269.34 40.6414 1264.43 42.3236 1265.81 43.005L1265.81 43.0166ZM1265.07 53.3419C1257.86 55.8816 1250.39 58.3072 1242.88 60.2274C1250.18 58.3749 1257.96 55.8778 1265.07 53.3419ZM1247.61 57.8484C1253.17 55.4016 1258.99 53.4252 1264.5 51.1274C1260.61 52.7844 1256.35 53.5413 1252.45 55.2215C1250.35 56.1275 1248.28 57.1225 1246.19 58.0497C1240.8 60.4287 1235.25 63.0052 1229.63 64.7784C1235.73 62.8446 1241.78 60.421 1247.61 57.8503V57.8484ZM1222.86 66.9465C1222.61 67.171 1222.35 67.3878 1222.07 67.6317C1222.16 67.5717 1222.24 67.5136 1222.32 67.4575C1222.59 67.2639 1222.84 67.0703 1223.07 66.9271L1222.82 67.0045L1222.86 66.9465Z" fill="#884F56"/>
<path d="M1242.88 60.2288C1250.39 58.3085 1257.86 55.883 1265.06 53.3433C1257.96 55.8772 1250.18 58.3743 1242.88 60.2288Z" fill="#884F56"/>
<path d="M1179.83 94.8834C1180.07 94.7673 1180.31 94.6434 1180.54 94.4963L1180.56 94.4653C1180.64 94.5564 1180.69 94.6648 1180.72 94.7814C1180.75 94.898 1180.75 95.0194 1180.72 95.1351C1182.62 93.78 1186.01 93.42 1188.21 92.7173C1191.03 91.823 1193.97 91.008 1196.62 89.7207C1201.76 87.2275 1205.58 82.8333 1209.48 78.9192C1210.85 80.2123 1198.33 89.2407 1196.89 89.953C1194.45 91.1667 1191.77 91.9759 1189.17 92.8431C1187.59 93.3677 1182.3 95.8823 1180.68 95.2357C1180.46 95.799 1178.09 98.6194 1177.61 98.0155C1176.93 97.1754 1179.45 94.6995 1179.83 94.8834Z" fill="#884F56"/>
<path d="M1251.56 11.7904L1251.5 11.8522L1251.35 11.7208L1251.51 11.6357C1251.53 11.6886 1251.54 11.7404 1251.56 11.7904Z" fill="#884F56"/>
<path d="M1303.43 9.47173L1303.02 9.40021C1303.19 9.38475 1303.37 9.37315 1303.54 9.35962C1303.5 9.40021 1303.47 9.43307 1303.43 9.47173Z" fill="#884F56"/>
<path d="M1330.34 10.6526C1331.11 11.0668 1315.15 39.7316 1314.13 41.7273C1315.5 39.0328 1327.86 9.3169 1330.34 10.6526ZM1322.44 25.0024L1322.34 25.1127L1322.49 25.0953L1322.44 25.0024ZM1325.64 18.7944C1325.64 18.835 1325.62 18.8757 1325.61 18.9241H1325.76C1325.82 18.8021 1325.78 18.7576 1325.64 18.7944Z" fill="#884F56"/>
<path d="M1242.32 64.4281C1242.35 64.4651 1242.38 64.4988 1242.42 64.5286L1241.79 64.6407C1241.71 64.4049 1241.89 64.3353 1242.32 64.4281Z" fill="#884F56"/>
<path d="M1266.05 56.6325C1265.66 57.2287 1268.8 57.3642 1269.38 55.8582C1269.24 55.7383 1269.07 55.663 1268.88 55.6429C1268.69 55.6228 1268.5 55.6588 1268.34 55.7459C1269.83 55.1652 1287.38 48.9708 1287.68 49.7451C1287.74 49.9174 1270.26 56.7796 1268.6 57.4126C1262.07 59.902 1254.8 61.4429 1248.02 63.2896C1246.6 63.6768 1245.17 63.9768 1243.72 64.2575C1243.76 64.2135 1243.79 64.1654 1243.82 64.1142C1251.34 62.2075 1258.76 59.24 1266.05 56.6325Z" fill="#884F56"/>
<path d="M1229.18 56.222C1229.15 56.2033 1229.12 56.1896 1229.08 56.1814C1229.85 54.7315 1230.99 52.275 1232.4 51.2316C1232.48 51.0287 1232.61 50.8415 1232.76 50.678C1233.08 49.9003 1233.49 49.1574 1233.98 48.4616C1234.23 48.6822 1234.56 48.7255 1234.97 48.5913C1234.86 48.3157 1234.67 48.0803 1234.41 47.9215C1235.75 46.2161 1250.41 26.6436 1251.69 27.6754C1251.72 27.6986 1246.82 33.9027 1246.41 34.4989C1246.16 34.5862 1245.95 34.7261 1245.77 34.9074L1245.99 35.1184C1243.02 39.6386 1239.64 43.909 1235.9 47.8828C1232.03 51.9846 1229.45 56.9944 1225.79 61.2627C1226.84 60.0393 1227.82 58.1907 1228.76 56.7195C1228.88 56.6897 1228.98 56.6255 1229.06 56.5361C1229.13 56.4467 1229.18 56.3367 1229.18 56.222Z" fill="#884F56"/>
<path d="M1259.84 16.5059C1262.21 14.183 1264.66 11.7129 1266.75 9.32422C1265.53 10.7064 1264.72 12.2569 1263.76 13.8152C1262.36 16.1033 1260.57 18.3468 1258.74 20.4084C1257.11 22.2435 1254.79 23.5772 1253.28 25.0407C1255.63 22.7642 1257.02 19.6825 1259.18 17.2086C1259.67 17.1253 1259.77 16.984 1259.84 16.5059Z" fill="#884F56"/>
<path d="M1326.1 7.1389C1326.17 6.87177 1311.81 4.87794 1310.63 4.69017L1310.83 4.62435C1310.92 4.3381 1310.91 4.0354 1310.82 3.75227C1310.72 3.46915 1310.55 3.21752 1310.31 3.02734C1311.42 3.21511 1326.3 6.43235 1326.1 7.1389Z" fill="#884F56"/>
<path d="M1282.74 0.243905C1282.81 0.295701 1282.89 0.322878 1282.97 0.320386C1283.06 0.317894 1283.14 0.285904 1283.21 0.230356C1292.09 0.085174 1301.09 1.69379 1309.85 2.9559C1308.56 3.04689 1309.7 3.94702 1309.65 4.52581C1305.99 3.89088 1302.28 3.65665 1298.64 2.94623C1298.7 2.89783 1299.17 2.54552 1298.92 2.43518C1298.76 2.43367 1298.6 2.46784 1298.45 2.535C1298.31 2.60217 1298.18 2.70051 1298.08 2.82234C1297.41 2.66748 1296.75 2.47777 1296.08 2.32291C1289.08 0.667838 1281.79 0.987238 1274.68 0C1277.09 0.34263 1280.14 0.342629 1282.74 0.243905ZM1298.5 1.95125C1298.55 1.98222 1298.72 1.90866 1298.83 1.88349C1299.65 1.23114 1297.97 1.62023 1298.5 1.95125Z" fill="#884F56"/>
<path opacity="0.6" d="M-58 466.262C-37 464.762 8.9 460.562 24.5 455.762C44 449.762 131 403.262 146 395.762C161 388.262 213.5 355.262 221 323.762C228.5 292.262 188.5 285.262 168.5 301.762C154.804 313.061 158 369.762 184.5 387.262C211 404.762 293.5 363.762 332 275.262C370.5 186.762 537 222.262 566 195.762C595 169.262 798.5 217.262 822.5 233.262C846.5 249.262 942.5 212.262 960.5 195.762C976.379 181.207 987.5 138.262 999.5 119.762C1011.5 101.262 1058.5 93.762 1083 94.762C1095.5 95.2723 1109 95.2627 1118 97.2622C1125 99.2627 1172.2 104.362 1179 94.762" stroke="#50735F" stroke-dasharray="4 4"/>
</svg>
