<svg width="72" height="75" viewBox="0 0 72 75" fill="none" xmlns="http://www.w3.org/2000/svg">
<path fill-rule="evenodd" clip-rule="evenodd" d="M23.8708 0.84785C25.0264 2.0839 24.9335 5.33858 23.671 7.86433C21.8382 11.5294 16.7663 15.3694 10.8031 17.6065L8.16577 18.5957L11.453 15.5304C15.566 11.6953 17.5432 8.7788 18.7879 4.71092C20.1184 0.363786 22.0479 -1.10239 23.8708 0.84785ZM32.2014 2.9961C33.886 6.13364 29.6717 11.4036 24.4812 12.6502C23.4621 12.895 23.5337 12.7703 25.3498 11.1432C27.6221 9.10718 28.3337 7.91648 29.1758 4.74417C29.7047 2.75199 29.9 2.46253 30.7872 2.35975C31.4871 2.2785 31.9208 2.47387 32.2014 2.9961ZM37.914 15.383C38.6439 15.4522 40.5207 15.6985 42.0846 15.9309C49.7806 17.0729 54.9756 20.8899 54.9756 25.4021V26.7383L57.9508 26.9669C61.8128 27.2636 64.7273 28.3783 67.0245 30.4366C73.0363 35.8237 73.5224 45.5945 68.0297 50.6407L66.3345 52.198L67.2338 53.4114C71.7692 59.5266 67.8249 70.3903 59.9982 73.3419C58.1931 74.0228 57.299 74.1305 54.7861 73.9696C52.005 73.7916 47.7343 72.5045 47.7931 71.8621C47.8048 71.734 49.042 71.0459 50.5419 70.3332C57.6505 66.9557 61.8003 59.875 61.8003 51.1229C61.8003 35.4643 48.6916 21.6857 31.9026 19.6973C28.4952 19.2937 23.2016 19.7184 15.7893 20.99C12.75 21.5111 9.87344 21.937 9.39686 21.9362C8.60444 21.9351 8.63136 21.8735 9.71306 21.216C11.6535 20.0366 18.8877 17.5343 22.7682 16.6999C24.7603 16.2714 28.2579 15.7446 30.5407 15.5289C34.6204 15.1431 35.2577 15.1306 37.914 15.383ZM5.84235 21.2111C6.9597 22.5344 7.06093 23.4081 6.27306 24.9264C4.68444 27.9883 -0.000678403 26.8233 -0.000678403 23.3661C-0.000678403 20.1783 3.79003 18.7802 5.84235 21.2111ZM30.5028 22.7169C36.8869 23.6971 42.5256 27.3516 44.7421 31.9463C46.3584 35.2958 46.2473 39.8848 44.5002 41.9544C43.3806 43.2804 41.8685 43.461 40.1851 42.4698C38.8338 41.6744 38.3989 40.7112 37.8769 37.3579C37.2941 33.6146 36.35 31.6602 34.0228 29.3812C30.9548 26.3759 25.3639 23.8271 21.8405 23.8271C20.3459 23.8271 20.6575 23.1976 22.2742 22.9508C25.4128 22.4717 28.3595 22.3878 30.5028 22.7169ZM13.8973 23.8426C19.6399 24.9751 23.4321 28.9319 22.5616 32.8826C22.2461 34.3137 20.6006 35.9193 19.4492 35.9193C18.2875 35.9193 17.0666 34.4992 17.0329 33.1082C16.9426 29.4043 14.9233 26.6529 10.8865 24.7344C10.1119 24.3664 9.47799 23.9265 9.47799 23.7572C9.47799 23.3793 11.7722 23.4235 13.8973 23.8426ZM46.1548 28.9391C53.8469 35.0732 58.2427 42.5023 58.6693 50.0898C59.0223 56.3717 57.384 60.8121 53.1701 64.993C49.2164 68.9154 44.9047 70.6714 39.2069 70.6797C35.594 70.685 31.1371 69.6481 28.3121 68.1453C25.7449 66.7793 21.9785 63.0216 20.9373 60.788C18.5734 55.7138 19.5955 48.9112 23.2736 45.2457C25.4397 43.0869 26.7451 42.5469 29.7821 42.5549C32.0111 42.5605 32.7534 42.7355 34.2454 43.6069C37.5648 45.5458 38.9449 48.8473 37.7449 51.9788C37.3878 52.9099 36.9517 53.7605 36.7754 53.8694C36.5991 53.9778 36.7189 53.3962 37.042 52.577C38.1775 49.6957 36.8615 46.797 33.7066 45.2299C31.3533 44.0611 29.5952 43.9817 27.4606 44.948C24.195 46.4262 22.1718 50.3388 22.2253 55.0725C22.2647 58.5411 23.4757 61.1398 26.2882 63.791C30.2056 67.4832 34.4251 68.9456 40.5563 68.7367C44.4479 68.604 44.7618 68.5292 47.8644 66.9969C54.2844 63.8261 57.7646 58.147 57.7157 50.9204C57.6903 47.151 57.1292 44.7851 55.3677 41.0207C53.1853 36.3561 49.4518 31.9172 44.1699 27.7064C43.3358 27.0417 42.7451 26.4919 42.8573 26.4851C42.9696 26.478 44.4532 27.5825 46.1548 28.9391ZM26.4736 27.6328C31.3957 30.0841 33.2661 34.7807 30.4414 37.5959C28.3269 39.703 26.1847 38.0071 26.9862 34.8601C27.5129 32.7923 26.7352 30.6305 24.5923 28.2041C22.7819 26.1541 23.2308 26.0177 26.4736 27.6328ZM54.579 43.6447C55.6031 44.8747 53.9083 46.3541 52.7724 45.2219C52.2898 44.7405 52.2401 44.4454 52.5582 43.9421C53.1117 43.0661 53.9895 42.9369 54.579 43.6447ZM31.9739 48.6977C33.1011 49.9386 33.1269 51.4589 32.0607 53.7821C31.1462 55.7746 31.1129 56.0271 31.6077 57.2079C32.3584 58.9983 34.6553 61.1681 36.8956 62.2024C38.7292 63.0488 38.761 63.09 37.7806 63.3353C35.2016 63.9803 30.3811 62.513 27.718 60.2725C25.1216 58.0876 24.2708 53.985 25.7965 51.0046C27.1394 48.3814 30.5354 47.1132 31.9739 48.6977ZM54.5017 50.6804C55.0439 50.8898 55.3525 51.3247 55.3491 51.8726C55.3373 53.5735 54.0365 54.3428 52.7227 53.4257C51.122 52.3083 52.6427 49.9617 54.5017 50.6804ZM51.8666 57.9119C52.9301 58.9719 52.129 60.8594 50.6154 60.8594C50.1775 60.8594 49.6145 60.6553 49.3643 60.4059C49.114 60.1565 48.9093 59.5954 48.9093 59.1589C48.9093 58.7225 49.114 58.1613 49.3643 57.9119C49.6145 57.6625 50.1775 57.4585 50.6154 57.4585C51.0534 57.4585 51.6164 57.6625 51.8666 57.9119ZM45.9451 62.5598C46.2681 63.2665 46.2681 63.7426 45.9451 64.4492C45.1637 66.1584 42.0846 65.4049 42.0846 63.5045C42.0846 61.6042 45.1637 60.8507 45.9451 62.5598Z" fill="#8F323A"/>
</svg>
