<svg width="229" height="160" viewBox="0 0 229 160" fill="none" xmlns="http://www.w3.org/2000/svg">
<path d="M148.455 69.2005C145.837 66.6902 142.368 64.5855 138.836 62.4814C135.303 60.3772 131.657 58.3444 127.504 56.5928C120.04 53.455 111.201 51.361 101.681 50.4753C91.8007 49.5516 81.3937 49.9509 71.3573 51.2541C62.03 52.465 51.1146 54.3234 44.8581 58.7336C42.0192 60.735 40.6848 63.2404 39.6484 65.6007C39.3929 66.17 39.1547 66.7415 38.9166 67.3129L38.0654 67.9369C34.9423 70.2647 32.1932 72.6433 30.0396 75.2549C27.9251 77.8193 26.3342 80.4954 24.8557 83.1612C23.2704 85.9197 22.227 88.7403 21.7438 91.574C21.3062 94.4541 21.991 97.1825 23.1078 99.9249C24.2695 102.755 25.9691 105.482 28.8656 107.87C31.6084 110.086 34.8109 112.112 38.4165 113.915C45.5427 117.551 54.4692 120.517 64.1997 121.806C69.2683 122.479 74.5758 122.98 79.8598 123.066C84.8793 123.145 89.9434 122.724 94.9008 122.045C99.9716 121.351 105.091 120.463 109.604 118.894C112.003 118.06 114.146 116.964 116.414 116.026C118.681 115.087 121.324 114.485 123.673 113.571C125.213 112.936 126.664 112.237 128.012 111.48C128.624 111.283 129.196 111.048 129.715 110.78C129.907 110.682 130.029 110.55 130.058 110.412C131.927 109.462 133.83 108.533 135.599 107.526C137.442 106.475 139.622 105.662 141.369 104.548C143.117 103.434 144.87 102.254 146.491 101.072C149.553 98.8402 151.401 96.3859 152.667 93.7585C154.02 90.9463 155.153 87.9602 155.584 85.0986C156.407 79.4537 153.346 73.8903 148.455 69.2005ZM48.2262 115.353C46.1642 114.427 44.3088 113.376 42.6917 112.216C44.5825 113.146 47.284 114.032 48.2262 115.353ZM26.3042 102.068C23.9341 97.9633 23.0422 93.7207 24.2547 89.3175C25.4169 85.1237 27.9457 80.9065 30.8897 76.9151C32.1151 75.27 33.582 73.6726 35.2752 72.1392C34.121 73.644 33.0897 75.1825 32.025 76.6554C29.984 79.4558 28.4469 82.3385 27.4364 85.2607C26.4105 88.1196 25.8416 91.0025 25.736 93.8764C25.6904 96.7989 27.1225 99.5706 29.2466 102.145C31.1708 104.459 33.5946 106.624 36.4706 108.599C36.5317 108.687 36.5952 108.779 36.655 108.865C38.2414 111.089 40.6166 113.094 43.6538 114.775C35.9287 111.512 29.2894 107.233 26.3076 102.067L26.3042 102.068ZM36.6319 72.9767L36.377 73.6046C35.1855 76.4892 34.0349 79.3871 33.3006 82.3048C32.5663 85.2225 32.5636 88.1494 32.5991 91.0798C32.6183 96.1343 32.7251 101.166 34.9863 105.953C33.7742 104.921 32.6593 103.852 31.6519 102.764C29.3607 100.283 27.8411 97.6034 27.549 94.7514C27.2631 91.9315 28.163 88.9132 29.0233 86.0912C29.9214 83.2552 31.3389 80.4536 33.2542 77.7292C34.3097 76.1451 35.4187 74.5461 36.6353 72.9759L36.6319 72.9767ZM106.205 118.594C101.353 120.025 95.6877 120.798 90.4047 121.358C85.1127 121.906 79.7585 121.99 74.5501 121.607C71.8338 121.419 69.1059 121.185 66.4323 120.863C73.0089 121.418 79.9629 121.373 86.4766 120.973C91.9228 120.661 97.3248 119.959 102.541 118.885C105.834 118.162 109.037 117.304 112.121 116.319C110.235 117.145 108.351 117.953 106.208 118.594L106.205 118.594ZM150.773 75.2107C152.45 77.9373 153.289 80.8269 153.257 83.7695C153.227 86.6799 151.892 89.7144 150.701 92.5883C149.51 95.4623 147.58 98.1254 144.217 100.574C142.713 101.671 141.067 102.729 139.47 103.79C137.641 105.006 135.244 105.906 133.261 107.043C131.279 108.18 129.147 109.159 127.12 110.227C126.604 110.5 126.09 110.77 125.572 111.035C124.105 111.437 122.523 111.766 121.179 112.173C118.481 112.979 115.836 113.849 113.171 114.692C107.941 116.347 102.588 117.86 96.8009 118.721C86.231 120.302 75.2358 120.433 64.8199 119.449C59.0275 118.908 53.6473 117.636 49.0979 115.732C49.2529 115.698 49.3822 115.633 49.4588 115.552C49.5354 115.471 49.5534 115.379 49.509 115.296C48.9756 114.231 47.5462 113.571 46.1056 112.871C44.1315 111.913 42.2335 110.909 40.4308 109.853C40.0057 109.6 39.5869 109.342 39.1744 109.08C37.2374 106.759 36.3162 104.097 35.5276 101.593C34.5872 98.605 34.7186 95.4898 34.6994 92.4275C34.6859 89.3218 34.5504 86.2412 35.2167 83.1215C35.8438 80.2043 36.9803 77.3035 38.1672 74.4179C38.971 72.4548 39.7687 70.4903 40.5601 68.5246C42.8878 66.3238 45.8029 64.3067 49.2014 62.5451C50.8001 61.7357 52.4871 60.9804 54.2515 60.2842C54.6938 60.1172 55.1374 59.952 55.5893 59.7932C56.7107 59.3983 57.9081 59.1132 59.0543 58.7312C59.8117 58.4781 60.5323 58.2066 61.2981 57.983C61.7355 57.8781 62.1605 57.7551 62.6001 57.6476C63.8407 57.35 63.1517 56.3775 61.9012 56.6376C61.0104 56.829 60.1447 57.0591 59.3129 57.3256C56.8221 58.0416 54.439 58.8746 52.193 59.8144C50.9605 60.3206 49.7715 60.8587 48.6306 61.4267L48.4924 61.4977C46.1485 62.6638 43.9512 63.9149 41.9179 65.2411C42.9646 62.9706 44.4332 60.7395 47.267 58.8632C50.7726 56.5529 56.0277 55.2042 60.9855 54.1745C66.0159 53.1394 71.1791 52.3598 76.4055 51.8464C86.8262 50.8162 97.5538 50.909 107.431 52.4212C117.308 53.9334 125.917 57.0743 133.007 60.9805C140.58 65.1235 147.265 69.5258 150.777 75.2099L150.773 75.2107Z" fill="#50735F"/>
<path d="M165.311 31.5046C165.061 31.5373 164.841 31.6241 164.695 31.7477C164.659 31.787 164.831 31.7905 164.591 31.8625L164.686 31.6986C164.386 31.8222 164.13 31.9803 163.935 32.1633L163.607 32.3473L163.677 32.2703C163.408 32.3833 163.184 32.5296 163.021 32.6989C163.057 32.6229 163.106 32.4735 162.883 32.6148L162.746 32.7659C162.7 32.7728 162.758 32.6902 162.488 32.9158C162.62 32.8934 162.286 33.1126 162.135 33.1232C162.242 33.1395 162.464 33.0326 162.557 33.0617C162.213 33.2486 162.491 33.3051 162.183 33.4741L162.143 33.4091C161.962 33.5317 161.818 33.6717 161.718 33.823L161.697 33.7913C161.28 34.0812 161.086 34.3134 160.681 34.4541L160.517 34.6354C160.541 34.5752 160.499 34.5853 160.386 34.6448C160.209 34.76 160.067 34.9968 160.186 34.9489C159.545 35.2927 159.562 35.4922 158.963 35.9348C158.896 35.8771 158.701 36.1069 158.723 35.9916L158.599 36.1467C158.621 36.1225 158.573 36.1386 158.561 36.1346C158.53 36.147 158.506 36.1641 158.491 36.184C158.476 36.2038 158.47 36.2257 158.475 36.2474L158.474 36.2297L158.217 36.4226L158.283 36.4627L158.043 36.5815C158.057 36.4461 158.383 36.2574 158.336 36.1747C158.066 36.3068 157.863 36.4797 157.747 36.6749C157.578 36.8002 157.407 36.9231 157.24 37.0492C157.175 37.0482 157.255 37.0326 157.077 37.1493C156.932 37.2436 156.968 37.2687 156.812 37.4079C156.842 37.3804 156.862 37.3497 156.871 37.3177C156.639 37.4719 156.718 37.5489 156.623 37.69C156.709 37.6118 156.784 37.5294 156.846 37.4437C156.889 37.4321 156.874 37.4526 156.887 37.4566L157.065 37.2388C157.089 37.2698 157.02 37.2695 157.188 37.1687C157.045 37.3005 157.003 37.332 156.861 37.4815C156.852 37.5794 157.055 37.4317 156.999 37.5404C156.271 38.2667 155.63 38.7852 155.033 39.3122C154.364 39.8766 153.83 40.4926 153.446 41.1428C153.143 41.3459 152.899 41.5778 152.726 41.8286L152.795 41.7845C152.682 42.0149 152.46 42.0344 152.432 42.2293L152.424 42.4307C152.327 42.5127 152.15 42.7328 152.133 42.6751C152.087 42.8314 151.783 43.0948 151.924 43.1606C151.681 43.4724 151.51 43.6498 151.308 43.9607C151.325 43.9411 151.299 43.9307 151.299 43.9307C151.193 43.985 151.295 44.1023 151.155 44.1652C151.148 44.1145 151.313 43.8635 151.125 44.0529C151.137 44.2331 150.728 44.6251 150.636 44.6757C150.596 44.7539 150.573 44.835 150.57 44.9168C150.472 45.024 150.271 45.1588 150.361 44.9755C150.187 45.3206 150.046 45.3054 150.178 45.4032C150.044 45.8172 149.685 46.0345 149.625 46.435C149.211 47.0054 148.864 47.5991 148.403 48.027L148.435 48.0719C148.356 47.9596 148.014 48.4016 148.023 48.2064C147.977 48.415 147.86 48.6159 147.679 48.797L147.649 48.7023C147.89 48.4364 147.661 48.6167 147.893 48.2802C147.883 48.3176 147.866 48.3433 147.898 48.34C147.984 48.1514 148.203 47.7932 148.292 47.6038L148.329 47.6619C148.533 47.3785 148.381 47.2106 148.504 46.9115C148.729 46.7105 148.542 46.968 148.713 46.9538C148.895 46.6365 148.388 46.6323 148.813 46.403L148.792 46.4778C149.043 46.0948 148.765 46.6635 149.026 46.3979C149.377 45.7806 148.656 46.5476 148.903 45.9869C148.981 46.054 149.085 45.9353 149.225 45.818C149.151 45.7035 149.348 45.2744 149.335 45.0666C149.365 45.1031 149.494 44.9825 149.601 44.8065C149.613 44.9346 149.526 44.9984 149.382 45.2076C149.411 45.2455 149.45 45.3335 149.549 45.26C149.456 45.0501 149.92 44.4506 149.818 44.2575C149.812 44.3585 150.006 44.1517 150.064 44.1756C150.081 44.0608 150.121 43.9477 150.184 43.8388L150.047 43.9899C150.291 43.721 150.384 43.3309 150.597 42.9979L150.633 43.0092C150.727 42.7617 150.857 42.5194 151.022 42.2852C150.979 42.4232 151.171 42.332 151.256 42.2927C151.426 42.2724 151.125 42.8009 151.423 42.5275C151.513 42.286 151.412 42.1358 151.699 41.8262C151.68 41.7118 151.459 41.945 151.396 42.0222C151.531 41.7715 151.927 41.436 151.901 41.29C151.83 41.3862 151.785 41.4184 151.75 41.4018C151.768 41.4074 151.785 41.0246 151.91 40.9415C151.932 41.0162 151.957 40.9446 151.962 41.045C152.074 40.95 152.152 40.8425 152.192 40.7292C152.333 40.7735 151.922 41.0635 152.121 41.095C152.574 40.6279 152.486 40.4741 152.767 40.0364C152.913 39.8676 153.078 39.7049 153.261 39.5493C153.238 39.575 153.185 39.6339 153.231 39.6193C153.696 39.288 153.437 39.3306 153.837 39.0856C153.877 38.8771 154.269 38.4994 154.536 38.2707C154.524 38.3058 154.562 38.3332 154.542 38.3773C154.98 37.8939 155.281 37.445 155.87 37.0284L155.873 37.0468C156.185 36.7721 156.432 36.5139 156.82 36.2243C156.745 36.3074 156.737 36.3417 156.758 36.3543C157.293 35.9904 157.507 35.6191 158.09 35.22C158.286 35.1342 158.561 34.8673 158.623 34.9664C159.056 34.6269 158.313 35.0358 158.745 34.7154L158.7 34.7438C159.159 34.2883 159.761 33.9768 160.207 33.5655C160.447 33.4589 160.664 33.3355 160.853 33.198C160.924 33.0642 161.024 32.9365 161.151 32.8181C161.297 32.7338 161.44 32.6487 161.637 32.5223C161.331 32.6531 161.755 32.3924 161.814 32.3274C161.748 32.4505 161.943 32.341 161.732 32.5445C162.318 32.2412 161.851 32.2284 162.464 31.9125L162.645 31.9015C162.535 31.965 162.437 32.0348 162.351 32.1099C162.595 32.0029 162.81 31.8736 162.985 31.7269C163.03 31.6479 162.477 31.9418 162.897 31.6489C162.979 31.7444 163.205 31.4445 163.537 31.4054C163.602 31.2858 163.735 31.1831 163.913 31.114C163.96 31.1094 163.932 31.1296 163.925 31.1487C164.313 30.9679 163.947 31.0218 164.298 30.8466C164.396 30.8366 164.181 31.0156 164.391 30.9438C164.765 30.8225 164.448 30.8804 164.804 30.699C164.683 30.7385 164.688 30.6083 164.854 30.4914C164.936 30.5172 165.034 30.5693 164.769 30.7598C164.961 30.69 165.265 30.5546 165.083 30.744C165.338 30.463 165.868 30.1657 166.213 29.8838C166.368 29.8473 166.51 29.7927 166.629 29.7234C166.807 29.5852 166.794 29.4279 167.02 29.361C167.087 29.287 166.911 29.3501 166.871 29.3357C166.973 29.2745 167.078 29.2164 167.184 29.1583C167.434 29.0933 167.013 29.3471 167.185 29.3176L167.538 29.1937C167.798 29.0446 167.486 29.0903 167.361 29.0975C167.719 29.0158 167.71 28.8907 167.967 28.8297C167.519 29.0364 168.318 28.839 167.735 29.085L168 29.0072C168.08 29.0322 167.712 29.1904 167.706 29.2447C168.096 29.1091 168.133 29.0215 168.507 28.8964C168.481 29.001 168.061 29.0572 167.97 29.2013C168.455 29.0665 168.7 28.8972 168.907 28.9135C168.708 29.0161 168.317 29.0696 168.294 29.175C168.422 29.1873 168.554 29.1812 168.678 29.1573C168.802 29.1334 168.914 29.0924 169.005 29.0376C169.116 28.952 168.829 29.0172 168.632 29.0854L168.633 29.1206L168.561 29.0842C168.77 29.0278 169.046 28.8873 169.263 28.8157C169.317 28.813 169.37 28.8048 169.42 28.7913C169.42 28.7913 169.402 28.7857 169.389 28.7816C169.415 28.776 169.443 28.7741 169.47 28.776C169.536 28.755 169.599 28.7306 169.658 28.7031C169.706 28.6832 169.763 28.6489 169.823 28.6192C169.929 28.5593 170.054 28.5128 170.191 28.4825L169.815 28.6574C169.89 28.6984 170.175 28.6056 170.507 28.5235C170.774 28.4289 171.355 28.2288 171.196 28.1926L170.996 28.2753C171.003 28.1474 171.555 28.1462 171.396 28.0594C171.316 28.0761 171.242 28.1026 171.181 28.1372C171.332 28.0431 171.242 27.9972 170.921 28.081L170.785 28.2321C170.454 28.2621 170.367 28.4194 170.009 28.4949C169.997 28.4679 169.925 28.4783 169.989 28.4402C170.28 28.3409 170.542 28.215 170.766 28.0671C170.413 28.1948 170.717 28.005 170.524 28.0648C171.058 27.8756 170.646 27.8859 171.23 27.6829L171.072 27.8275C171.601 27.6658 171.508 27.5762 171.68 27.4517C171.88 27.3944 172.228 27.4006 172.513 27.2611C172.989 27.172 172.796 27.0977 173.133 26.9728C173.131 27.0517 172.81 27.1799 172.618 27.2612C172.643 27.2558 172.668 27.2493 172.692 27.2417C172.681 27.2538 172.653 27.2587 172.664 27.2719C172.984 27.2248 173.503 26.8852 173.361 27.0852C172.758 27.245 172.411 27.497 171.886 27.7339C171.712 27.7932 171.531 27.8454 171.345 27.89C171.334 27.9642 171.367 28.0229 171.601 28.0013C171.89 27.8282 171.743 27.8189 172.176 27.6503C172.507 27.5416 172.826 27.4207 173.131 27.2884L173.026 27.2554C173.368 27.1068 174.107 26.8848 174.026 26.836C174.006 26.8839 174.18 26.8514 174.333 26.7887L174.157 26.8986C174.291 26.9076 174.851 26.7479 174.713 26.8422C175.259 26.68 175.176 26.6266 175.745 26.5045C176.177 26.3918 176.192 26.1538 176.962 25.9882C177.143 26.0179 176.456 26.1825 176.837 26.1663C177.253 26.0881 177.625 25.9458 177.916 25.7543C177.677 25.7819 177.855 25.7058 177.826 25.6678L178.158 25.6148C178.125 25.6878 177.977 25.6357 177.856 25.7334C178.064 25.7191 178.266 25.6867 178.458 25.6372L178.35 25.7121C178.576 25.6781 178.814 25.5646 178.889 25.6233L179.26 25.4468C179.697 25.4092 179.765 25.3237 180.059 25.2357L179.754 25.2623L180.134 25.207C180.37 25.1257 179.867 25.189 180.285 25.0914C180.042 25.2285 180.724 25.0623 180.742 25.1591C180.541 25.1912 180.175 25.2528 180.275 25.2919C180.491 25.2656 180.712 25.258 180.932 25.2694C180.894 25.2573 181.231 25.2159 181.234 25.1914L180.854 25.0276C181.018 24.9489 181.428 25.1224 181.659 25.0748C181.265 25.172 181.746 25.0846 181.691 25.1488C181.927 25.0889 182.168 25.0154 182.42 24.9489C182.666 24.8859 182.921 24.8361 183.182 24.8L183.059 24.8662C183.383 24.7741 183.328 24.8713 183.737 24.7589C183.889 24.7077 183.371 24.7991 183.657 24.7201C185.408 24.4935 187.178 24.3215 188.96 24.2047C188.932 24.2932 189.662 24.2311 189.961 24.2359C190.123 24.1993 189.965 24.1654 189.792 24.2002C190.072 24.15 190.362 24.1223 190.655 24.1181C190.795 24.1816 191.101 24.1535 191.355 24.1245C191.253 24.1605 191.403 24.2058 190.92 24.182C191.049 24.1994 190.307 24.3195 190.988 24.3042C191.319 24.241 191.658 24.1918 192.002 24.157C192.376 24.1238 192.754 24.107 193.133 24.1066C193.42 24.1006 193.707 24.1128 193.99 24.1432L193.871 24.1696C193.931 24.1799 193.995 24.1809 194.056 24.1726C194.117 24.1643 194.174 24.147 194.22 24.1223C194.588 24.135 194.379 24.2129 194.259 24.2394C195.11 24.2505 195.336 24.143 196.24 24.2155C196.426 24.2544 196.25 24.3137 196.658 24.337C197.912 24.373 199.154 24.5023 200.354 24.7217L200.657 24.8346L201.025 24.7929C201.627 24.951 202.203 25.0758 202.783 25.2076C203.363 25.3393 203.952 25.4758 204.579 25.6496C204.443 25.6322 204.306 25.5871 204.217 25.5941C204.639 25.6897 205.138 25.67 205.496 25.7882C205.479 25.8171 205.455 25.8441 205.423 25.8683C205.923 25.9536 206.249 25.9472 206.795 26.0624C206.851 26.1016 206.532 26.036 206.691 26.1189L207.013 26.193C206.75 26.159 207.136 26.2938 207.048 26.2817C206.99 26.2537 206.924 26.2329 206.853 26.2203C206.818 26.2581 207.11 26.3439 207.263 26.4153C207.398 26.4481 207.522 26.4539 207.423 26.3994C207.619 26.496 207.435 26.4402 207.407 26.4781C207.692 26.5868 207.733 26.5806 207.825 26.5337C207.84 26.488 207.84 26.488 207.664 26.3956C207.951 26.5076 208.225 26.6307 208.484 26.764L208.697 26.7766L208.727 26.8016C208.745 26.7819 208.774 26.7793 208.795 26.7781L208.756 26.766C209.321 26.8765 209.866 27.0204 210.382 27.1955C210.947 27.3845 211.521 27.5843 212.062 27.7369L212.835 28.0594C212.376 27.9694 211.755 27.7045 211.528 27.6817L211.708 27.7382C211.748 27.7779 211.405 27.6254 211.314 27.663L211.534 27.7845C211.889 27.9502 211.868 27.74 212.138 27.9587C211.604 27.7909 212.279 28.0767 211.894 27.9947C211.998 28.0837 212.213 28.0948 212.448 28.1123C212.325 28.0725 212.206 28.0277 212.094 27.978C212.223 27.9815 212.623 28.1771 212.773 28.135C212.822 28.1536 212.864 28.1774 212.898 28.2052C212.973 28.2345 213.028 28.2785 213.052 28.3295C213.088 28.3407 213.129 28.3537 213.183 28.3706C213.202 28.3242 213.504 28.3803 213.704 28.4761C213.764 28.4947 213.536 28.4581 213.492 28.4774C213.864 28.7223 214.298 28.8586 214.777 29.0983C214.671 29.038 214.591 28.9637 214.544 28.8817C214.606 28.8964 214.666 28.9151 214.721 28.9373C214.736 28.9207 214.864 28.9587 214.957 28.9863L214.797 28.9669C214.915 29.0211 215.048 29.0628 215.19 29.0903C215.277 29.0886 215.347 29.0913 215.46 29.2064C215.404 29.1852 215.339 29.1728 215.272 29.1705C215.389 29.2253 215.512 29.2756 215.64 29.3211C215.625 29.3378 215.652 29.414 215.852 29.5237L215.877 29.4092C216.039 29.5176 216.224 29.613 216.428 29.6929C216.581 29.9137 217.58 30.0957 217.533 30.2206L217.118 30.0417C217.188 30.1646 216.582 30.011 216.699 30.1178L217.285 30.2865C216.895 30.0221 217.887 30.4017 217.892 30.283C218.112 30.3715 218.182 30.4983 218.494 30.5538C218.658 30.646 218.281 30.5489 218.483 30.6532C218.643 30.7032 218.66 30.6445 218.859 30.7519C218.829 30.7522 218.733 30.7414 218.754 30.7694C218.974 30.8908 218.961 30.8033 219.247 30.9066L219.198 30.8798C219.38 30.8865 219.5 31.0386 219.532 31.0797L220.284 31.316C220.158 31.3056 219.774 31.1946 219.956 31.3139C219.633 31.2843 219.078 30.8266 218.947 30.9716C219.098 31.0927 219.484 31.1402 219.592 31.2714C219.717 31.2389 220.027 31.3672 220.253 31.4305L220.285 31.4716C220.689 31.655 220.415 31.3687 220.846 31.5801C220.874 31.6219 220.68 31.5997 220.95 31.7173C221.018 31.7291 221.129 31.7738 221.182 31.7516L221.123 31.7116C221.1 31.6423 221.488 31.84 221.678 31.9326C221.541 31.909 221.464 31.9254 221.626 32.0191C221.297 31.8615 221.213 31.9904 220.939 31.8597C221.074 31.8825 221.418 31.9829 221.278 31.875C221.086 31.7409 220.792 31.7087 220.468 31.5932L220.658 31.6859C220.594 31.7998 220.057 31.5224 219.857 31.5721C219.947 31.6118 220.025 31.6384 220.006 31.6518C220.015 31.6236 219.698 31.5221 219.559 31.4571L219.755 31.4778C219.411 31.2241 219.375 31.3584 218.958 31.1419C219.036 31.124 219.71 31.3782 219.39 31.1962C219.333 31.2405 219.091 31.0788 219.014 31.0976L218.808 30.9066C218.531 30.8195 218.185 30.7205 217.997 30.6731C218.144 30.6995 218.289 30.7307 218.43 30.7665C218.062 30.6412 218.054 30.4541 217.705 30.4164L217.876 30.5226C217.712 30.439 217.527 30.3705 217.328 30.3193C217.175 30.3138 217.368 30.4464 217.522 30.5239C217.379 30.4596 217.134 30.3009 217.08 30.346C217.039 30.3078 216.983 30.2756 216.918 30.252C216.852 30.2284 216.778 30.2139 216.702 30.2098C216.473 30.0798 216.645 30.1415 216.668 30.0982C216.431 30.024 215.998 29.7926 215.995 29.8868C216.069 29.9393 216.388 30.0355 216.196 30.0294C216.177 29.9303 216.019 29.9952 215.856 29.9053C216.25 29.9843 215.524 29.6825 215.81 29.7376C215.604 29.6487 215.378 29.5775 215.138 29.5262L215.181 29.4779L214.797 29.3454C214.785 29.2601 215.051 29.2873 214.723 29.1281C214.379 29.0783 214.363 29.209 213.893 29.0614L214.053 29.0341C213.937 28.9725 213.495 28.8199 213.486 28.8772C213.564 28.962 213.67 29.0364 213.799 29.0959L213.749 29.0706C213.478 29.0066 214.045 29.3051 213.573 29.1123C213.788 29.0827 213.048 28.724 212.844 28.5706C212.621 28.5124 212.39 28.4652 212.154 28.4294C212.151 28.4577 212.375 28.567 212.218 28.5661C211.704 28.2744 211.276 28.2914 210.804 28.0151C210.824 28.0215 210.844 28.0004 210.679 27.9487L210.629 27.8981C210.524 27.8758 210.425 27.8445 210.334 27.8054L209.904 27.643C209.916 27.6295 209.81 27.6232 209.711 27.6155C209.747 27.6268 209.786 27.6389 209.832 27.6649L209.711 27.6155C209.647 27.6131 209.586 27.6004 209.533 27.579C209.411 27.6084 209.243 27.4411 209.081 27.3688C209.117 27.3822 209.155 27.394 209.194 27.4043C208.902 27.2817 208.657 27.3307 208.414 27.1728L208.385 27.1387C208.442 27.1564 208.496 27.1734 208.506 27.1766L208.367 27.133C208.234 27.0911 208.239 27.0927 208.29 27.1088C208.049 27.033 208.061 27.0815 207.695 26.9684L207.871 27.0509C207.807 27.0351 207.745 27.0156 207.686 26.9928C207.274 26.9117 206.878 26.8042 206.506 26.6723C206.213 26.6808 205.922 26.6508 205.652 26.5845L205.758 26.5363C205.586 26.4823 205.414 26.4282 205.244 26.375C205.339 26.3658 205.095 26.2776 204.758 26.1834L204.792 26.1939C204.591 26.087 204.333 26.024 204.063 26.0154C203.968 26.007 203.739 25.9911 203.724 25.9633C203.615 25.9968 203.327 25.9279 203.051 25.8799C203.017 25.8678 202.982 25.8568 202.946 25.8468L202.978 25.8726C202.774 25.7928 202.616 25.8577 202.358 25.7379C201.951 25.6235 202.572 25.6655 202.069 25.5403L201.807 25.5277C201.74 25.5067 201.794 25.5084 201.829 25.5036C201.596 25.4692 201.451 25.385 201.312 25.4287C201.584 25.5256 201.864 25.6137 202.152 25.6925C201.636 25.6177 201.544 25.6722 201.119 25.6027C201.084 25.6151 201.183 25.6228 201.233 25.6543C201.003 25.6208 200.83 25.5429 200.952 25.5349C200.75 25.4888 200.659 25.5418 200.376 25.5013L200.309 25.5968C199.932 25.5553 199.566 25.4865 199.218 25.3918C199.566 25.4372 199.889 25.4201 200.131 25.4553C200.106 25.3584 200.36 25.3838 200.65 25.4244C200.873 25.4793 201.107 25.5188 201.345 25.5419C201.124 25.4725 201.684 25.5319 201.227 25.4213C200.936 25.4328 200.855 25.3625 200.566 25.3204C200.424 25.2446 200.84 25.2765 200.306 25.196C200.514 25.2614 199.992 25.2447 200.415 25.2943C200.153 25.2792 199.894 25.2546 199.637 25.2207C199.427 25.1975 199.219 25.1727 198.873 25.1473C199.445 25.2108 198.605 25.199 198.93 25.28C198.904 25.1923 199.861 25.3453 199.143 25.2167L199.663 25.2655C199.696 25.309 199.124 25.2479 199.554 25.3558C199.223 25.3231 198.888 25.3035 198.552 25.297C198.649 25.2518 198.208 25.1889 198.155 25.1414C197.966 25.1284 197.777 25.166 197.588 25.101L197.898 25.0975C197.601 25.0621 197.588 24.9999 197.324 24.9597C197.147 24.9584 197.115 24.9932 197.192 25.0289C196.761 24.973 196.324 24.9853 195.869 24.9275C196.423 24.9677 195.984 24.855 196.429 24.8843L196.099 24.8331C195.439 24.8663 194.452 24.9289 194.288 25.0405C193.512 25.0819 193.723 24.8821 192.795 25.0138C192.929 25.0014 192.706 24.9412 192.771 24.9131C192.573 24.9034 192.374 24.9059 192.177 24.9206L192.543 24.9754C192.025 25.0022 191.505 25.0124 190.985 25.0059C191.082 24.986 190.914 24.9527 191.208 24.9229C191.203 24.8784 190.857 24.8959 190.703 24.8981C190.356 24.95 190.599 25.0129 190.206 25.0603C188.032 25.151 185.874 25.3468 183.754 25.6457C181.636 25.9473 179.559 26.342 177.541 26.8264L177.522 26.7931C176.29 27.1475 174.973 27.5236 173.653 27.9318C172.994 28.1344 172.335 28.3485 171.687 28.5682C171.363 28.6818 171.038 28.7893 170.72 28.9069L170.236 29.077C170.228 29.086 170.103 29.1262 170.059 29.1378L169.94 29.1742L169.703 29.2509L169.746 29.2646C168.861 29.4001 169.432 29.5677 168.491 29.7359C168.132 30.0597 167.277 30.2669 166.834 30.6575L166.727 30.6489C166.569 30.8037 166.353 30.9351 166.095 31.0328C165.964 31.0906 165.839 31.1523 165.719 31.2176L165.633 31.2699L165.513 31.3507L165.424 31.4022L165.378 31.4306C165.374 31.4681 165.338 31.4859 165.311 31.5046Z" fill="#50735F"/>
<path d="M209.711 27.6155C209.81 27.6232 209.916 27.6295 209.904 27.643L210.334 27.8054C210.425 27.8445 210.524 27.8758 210.629 27.8981L210.679 27.9487C210.844 28.0004 210.824 28.0215 210.804 28.0151C211.276 28.2914 211.704 28.2744 212.218 28.5661C212.375 28.567 212.151 28.4577 212.154 28.4294C212.39 28.4652 212.621 28.5124 212.844 28.5706C213.048 28.724 213.788 29.0827 213.573 29.1123C214.045 29.3051 213.478 29.0066 213.749 29.0706L213.799 29.0959C213.67 29.0364 213.564 28.962 213.486 28.8772C213.495 28.8199 213.937 28.9725 214.053 29.0341L213.893 29.0614C214.363 29.209 214.379 29.0783 214.723 29.1281C215.051 29.2873 214.785 29.2601 214.797 29.3454L215.181 29.4779L215.138 29.5262C215.378 29.5775 215.604 29.6487 215.81 29.7376C215.524 29.6825 216.25 29.9843 215.856 29.9053C216.019 29.9952 216.177 29.9303 216.196 30.0294C216.388 30.0355 216.069 29.9393 215.995 29.8868C215.998 29.7926 216.431 30.024 216.668 30.0982C216.645 30.1415 216.473 30.0798 216.702 30.2098C216.778 30.2139 216.852 30.2284 216.918 30.252C216.983 30.2756 217.039 30.3078 217.08 30.346C217.134 30.3009 217.379 30.4596 217.522 30.5239C217.368 30.4464 217.175 30.3138 217.328 30.3193C217.527 30.3705 217.712 30.439 217.876 30.5226L217.705 30.4164C218.054 30.4541 218.062 30.6412 218.43 30.7665C218.289 30.7307 218.144 30.6995 217.997 30.6731C218.185 30.7205 218.531 30.8195 218.808 30.9066L219.014 31.0976C219.091 31.0788 219.333 31.2405 219.39 31.1962C219.71 31.3782 219.036 31.124 218.958 31.1419C219.375 31.3584 219.411 31.2241 219.755 31.4778L219.559 31.4571C219.698 31.5221 220.015 31.6236 220.006 31.6518C220.025 31.6384 219.947 31.6118 219.857 31.5721C220.057 31.5224 220.594 31.7998 220.658 31.6859L220.468 31.5932C220.792 31.7087 221.086 31.7409 221.278 31.875C221.418 31.9829 221.074 31.8825 220.939 31.8597C221.213 31.9904 221.297 31.8615 221.626 32.0191C221.464 31.9254 221.541 31.909 221.678 31.9326C221.488 31.84 221.1 31.6423 221.123 31.7116L221.182 31.7516C221.129 31.7738 221.018 31.7291 220.95 31.7173C220.68 31.5997 220.874 31.6219 220.846 31.5801C220.415 31.3687 220.689 31.655 220.285 31.4716L220.253 31.4305C220.027 31.3672 219.717 31.2389 219.592 31.2714C219.484 31.1402 219.098 31.0927 218.947 30.9716C219.078 30.8266 219.633 31.2843 219.956 31.3139C219.774 31.1946 220.158 31.3056 220.284 31.316L219.532 31.0797C219.5 31.0386 219.38 30.8865 219.198 30.8798L219.247 30.9066C218.961 30.8033 218.974 30.8908 218.754 30.7694C218.733 30.7414 218.829 30.7522 218.859 30.7519C218.66 30.6445 218.643 30.7032 218.483 30.6532C218.281 30.5489 218.658 30.646 218.494 30.5538C218.182 30.4983 218.112 30.3715 217.892 30.283C217.887 30.4017 216.895 30.0221 217.285 30.2865L216.699 30.1178C216.582 30.011 217.188 30.1646 217.118 30.0417L217.533 30.2206C217.58 30.0957 216.581 29.9137 216.428 29.6929C216.224 29.613 216.039 29.5176 215.877 29.4092L215.852 29.5237C215.652 29.414 215.625 29.3378 215.64 29.3211C215.512 29.2756 215.389 29.2253 215.272 29.1705C215.339 29.1728 215.404 29.1852 215.46 29.2064C215.347 29.0913 215.277 29.0886 215.19 29.0903C215.048 29.0628 214.915 29.0211 214.797 28.9669L214.957 28.9863C214.864 28.9587 214.736 28.9207 214.721 28.9373C214.666 28.9151 214.606 28.8964 214.544 28.8817C214.591 28.9637 214.671 29.038 214.777 29.0983C214.298 28.8586 213.864 28.7223 213.492 28.4774C213.536 28.4581 213.764 28.4947 213.704 28.4761C213.504 28.3803 213.202 28.3242 213.183 28.3706C213.129 28.3537 213.088 28.3407 213.052 28.3295C213.028 28.2785 212.973 28.2345 212.898 28.2052C212.864 28.1774 212.822 28.1536 212.773 28.135C212.623 28.1771 212.223 27.9815 212.094 27.978C212.206 28.0277 212.325 28.0725 212.448 28.1123C212.213 28.0948 211.998 28.0837 211.894 27.9947C212.279 28.0767 211.604 27.7909 212.138 27.9587C211.868 27.74 211.889 27.9502 211.534 27.7845L211.314 27.663C211.405 27.6254 211.748 27.7779 211.708 27.7382L211.528 27.6817C211.755 27.7045 212.376 27.9694 212.835 28.0594L212.062 27.7369C211.521 27.5843 210.947 27.3845 210.382 27.1955C209.866 27.0204 209.321 26.8765 208.756 26.766L208.795 26.7781C208.774 26.7793 208.745 26.7819 208.727 26.8016L208.697 26.7766L208.484 26.764C208.225 26.6307 207.951 26.5076 207.664 26.3956C207.84 26.488 207.84 26.488 207.825 26.5337C207.733 26.5806 207.692 26.5868 207.407 26.4781C207.435 26.4402 207.619 26.496 207.423 26.3994C207.522 26.4539 207.398 26.4481 207.263 26.4153C207.11 26.3439 206.818 26.2581 206.853 26.2203C206.924 26.2329 206.99 26.2537 207.048 26.2817C207.136 26.2938 206.75 26.159 207.013 26.193L206.691 26.1189C206.532 26.036 206.851 26.1016 206.795 26.0624C206.249 25.9472 205.923 25.9536 205.423 25.8683C205.455 25.8441 205.479 25.8171 205.496 25.7882C205.138 25.67 204.639 25.6897 204.217 25.5941C204.306 25.5871 204.443 25.6322 204.579 25.6496C203.952 25.4758 203.363 25.3393 202.783 25.2076C202.203 25.0758 201.627 24.951 201.025 24.7929L200.657 24.8346L200.354 24.7217C199.154 24.5023 197.912 24.373 196.658 24.337C196.25 24.3137 196.426 24.2544 196.24 24.2155C195.336 24.143 195.11 24.2505 194.259 24.2394C194.379 24.2129 194.588 24.135 194.22 24.1223C194.174 24.147 194.117 24.1643 194.056 24.1726C193.995 24.1809 193.931 24.1799 193.871 24.1696L193.99 24.1432C193.707 24.1128 193.42 24.1006 193.133 24.1066C192.754 24.107 192.376 24.1238 192.002 24.157C191.658 24.1918 191.319 24.241 190.988 24.3042C190.307 24.3195 191.049 24.1994 190.92 24.182C191.403 24.2058 191.253 24.1605 191.355 24.1245C191.101 24.1535 190.795 24.1816 190.655 24.1181C190.362 24.1223 190.072 24.15 189.792 24.2002C189.965 24.1654 190.123 24.1993 189.961 24.2359C189.662 24.2311 188.932 24.2932 188.96 24.2047C187.178 24.3215 185.408 24.4935 183.657 24.7201C183.371 24.7991 183.889 24.7077 183.737 24.7589C183.328 24.8713 183.383 24.7741 183.059 24.8662L183.182 24.8C182.921 24.8361 182.666 24.8859 182.42 24.9489C182.168 25.0154 181.927 25.0889 181.691 25.1488C181.746 25.0846 181.265 25.172 181.659 25.0748C181.428 25.1224 181.018 24.9489 180.854 25.0276L181.234 25.1914C181.231 25.2159 180.894 25.2573 180.932 25.2694C180.712 25.258 180.491 25.2656 180.275 25.2919C180.175 25.2528 180.541 25.1912 180.742 25.1591C180.724 25.0623 180.042 25.2285 180.285 25.0914C179.867 25.189 180.37 25.1257 180.134 25.207L179.754 25.2623L180.059 25.2357C179.765 25.3237 179.697 25.4092 179.26 25.4468L178.889 25.6233C178.814 25.5646 178.576 25.6781 178.35 25.7121L178.458 25.6372C178.266 25.6867 178.064 25.7191 177.856 25.7334C177.977 25.6357 178.125 25.6878 178.158 25.6148L177.826 25.6678C177.855 25.7058 177.677 25.7819 177.916 25.7543C177.625 25.9458 177.253 26.0881 176.837 26.1663C176.456 26.1825 177.143 26.0179 176.962 25.9882C176.192 26.1538 176.177 26.3918 175.745 26.5045C175.176 26.6266 175.259 26.68 174.713 26.8422C174.851 26.7479 174.291 26.9076 174.157 26.8986L174.333 26.7887C174.18 26.8514 174.006 26.8839 174.026 26.836C174.107 26.8848 173.368 27.1068 173.026 27.2554L173.131 27.2884C172.826 27.4207 172.507 27.5416 172.176 27.6503C171.743 27.8189 171.89 27.8282 171.601 28.0013C171.367 28.0229 171.334 27.9642 171.345 27.89C171.531 27.8454 171.712 27.7932 171.886 27.7339C172.411 27.497 172.758 27.245 173.361 27.0852C173.503 26.8852 172.984 27.2248 172.664 27.2719C172.653 27.2587 172.681 27.2538 172.692 27.2417C172.668 27.2493 172.643 27.2558 172.618 27.2612C172.81 27.1799 173.131 27.0517 173.133 26.9728C172.796 27.0977 172.989 27.172 172.513 27.2611C172.228 27.4006 171.88 27.3944 171.68 27.4517C171.508 27.5762 171.601 27.6658 171.072 27.8275L171.23 27.6829C170.646 27.8859 171.058 27.8756 170.524 28.0648C170.717 28.005 170.413 28.1948 170.766 28.0671C170.542 28.215 170.28 28.3409 169.989 28.4402C169.925 28.4783 169.997 28.4679 170.009 28.4949C170.367 28.4194 170.454 28.2621 170.785 28.2321L170.921 28.081C171.242 27.9972 171.332 28.0431 171.181 28.1372C171.242 28.1026 171.316 28.0761 171.396 28.0594C171.555 28.1462 171.003 28.1474 170.996 28.2753L171.196 28.1926C171.355 28.2288 170.774 28.4289 170.507 28.5235C170.175 28.6056 169.89 28.6984 169.815 28.6574L170.191 28.4825C170.054 28.5128 169.929 28.5593 169.823 28.6192C169.763 28.6489 169.706 28.6832 169.658 28.7031C169.599 28.7306 169.536 28.755 169.47 28.776C169.443 28.7741 169.415 28.776 169.389 28.7816C169.402 28.7857 169.42 28.7913 169.42 28.7913C169.37 28.8048 169.317 28.813 169.263 28.8157C169.046 28.8873 168.77 29.0278 168.561 29.0842L168.633 29.1206L168.632 29.0854C168.829 29.0172 169.116 28.952 169.005 29.0376C168.914 29.0924 168.802 29.1334 168.678 29.1573C168.554 29.1812 168.422 29.1873 168.294 29.175C168.317 29.0696 168.708 29.0161 168.907 28.9135C168.7 28.8972 168.455 29.0665 167.97 29.2013C168.061 29.0572 168.481 29.001 168.507 28.8964C168.133 29.0215 168.096 29.1091 167.706 29.2447C167.712 29.1904 168.08 29.0322 168 29.0072L167.735 29.085C168.318 28.839 167.519 29.0364 167.967 28.8297C167.71 28.8907 167.719 29.0158 167.361 29.0975C167.486 29.0903 167.798 29.0446 167.538 29.1937L167.185 29.3176C167.013 29.3471 167.434 29.0933 167.184 29.1583C167.078 29.2164 166.973 29.2745 166.871 29.3357C166.911 29.3501 167.087 29.287 167.02 29.361C166.794 29.4279 166.807 29.5852 166.629 29.7234C166.51 29.7927 166.368 29.8473 166.213 29.8838C165.868 30.1657 165.338 30.463 165.083 30.744C165.265 30.5546 164.961 30.69 164.769 30.7598C165.034 30.5693 164.936 30.5172 164.854 30.4914C164.688 30.6083 164.683 30.7385 164.804 30.699C164.448 30.8804 164.765 30.8225 164.391 30.9438C164.181 31.0156 164.396 30.8366 164.298 30.8466C163.947 31.0218 164.313 30.9679 163.925 31.1487C163.932 31.1296 163.96 31.1094 163.913 31.114C163.735 31.1831 163.602 31.2858 163.537 31.4054C163.205 31.4445 162.979 31.7444 162.897 31.6489C162.477 31.9418 163.03 31.6479 162.985 31.7269C162.81 31.8736 162.595 32.0029 162.351 32.1099C162.437 32.0348 162.535 31.965 162.645 31.9015L162.464 31.9125C161.851 32.2284 162.318 32.2412 161.732 32.5445C161.943 32.341 161.748 32.4505 161.814 32.3274C161.755 32.3924 161.331 32.6531 161.637 32.5223C161.44 32.6487 161.297 32.7338 161.151 32.8181C161.024 32.9365 160.924 33.0642 160.853 33.198C160.664 33.3355 160.447 33.4589 160.207 33.5655C159.761 33.9768 159.159 34.2883 158.7 34.7438L158.745 34.7154C158.313 35.0358 159.056 34.6269 158.623 34.9664C158.561 34.8673 158.286 35.1342 158.09 35.22C157.507 35.6191 157.293 35.9904 156.758 36.3543C156.737 36.3417 156.745 36.3074 156.82 36.2243C156.432 36.5139 156.185 36.7721 155.873 37.0468L155.87 37.0284C155.281 37.445 154.98 37.8939 154.542 38.3773C154.562 38.3332 154.524 38.3058 154.536 38.2707C154.269 38.4994 153.877 38.8771 153.837 39.0856C153.437 39.3306 153.696 39.288 153.231 39.6193C153.185 39.6339 153.238 39.575 153.261 39.5493C153.078 39.7049 152.913 39.8676 152.767 40.0364C152.486 40.4741 152.574 40.6279 152.121 41.095C151.922 41.0635 152.333 40.7735 152.192 40.7292C152.152 40.8425 152.074 40.95 151.962 41.045C151.957 40.9446 151.932 41.0162 151.91 40.9415C151.785 41.0246 151.768 41.4074 151.75 41.4018C151.785 41.4184 151.83 41.3862 151.901 41.29C151.927 41.436 151.531 41.7715 151.396 42.0222C151.459 41.945 151.68 41.7118 151.699 41.8262C151.412 42.1358 151.513 42.286 151.423 42.5275C151.125 42.8009 151.426 42.2724 151.256 42.2927C151.171 42.332 150.979 42.4232 151.022 42.2852C150.857 42.5194 150.727 42.7617 150.633 43.0092L150.597 42.9979C150.384 43.3309 150.291 43.721 150.047 43.9899L150.184 43.8388C150.121 43.9477 150.081 44.0608 150.064 44.1756C150.006 44.1517 149.812 44.3585 149.818 44.2575C149.92 44.4506 149.456 45.0501 149.549 45.26C149.45 45.3335 149.411 45.2455 149.382 45.2076C149.526 44.9984 149.613 44.9346 149.601 44.8065C149.494 44.9825 149.365 45.1031 149.335 45.0666C149.348 45.2744 149.151 45.7035 149.225 45.818C149.085 45.9353 148.981 46.054 148.903 45.9869C148.656 46.5476 149.377 45.7806 149.026 46.3979C148.765 46.6635 149.043 46.0948 148.792 46.4778L148.813 46.403C148.388 46.6323 148.895 46.6365 148.713 46.9538C148.542 46.968 148.729 46.7105 148.504 46.9115C148.381 47.2106 148.533 47.3785 148.329 47.6619L148.292 47.6038C148.203 47.7932 147.984 48.1514 147.898 48.34C147.866 48.3433 147.883 48.3176 147.893 48.2802C147.661 48.6167 147.89 48.4364 147.649 48.7023L147.679 48.797C147.86 48.6159 147.977 48.415 148.023 48.2064C148.014 48.4016 148.356 47.9596 148.435 48.0719L148.403 48.027C148.864 47.5991 149.211 47.0054 149.625 46.435C149.685 46.0345 150.044 45.8172 150.178 45.4032C150.046 45.3054 150.187 45.3206 150.361 44.9755C150.271 45.1588 150.472 45.024 150.57 44.9168C150.573 44.835 150.596 44.7539 150.636 44.6757C150.728 44.6251 151.137 44.2331 151.125 44.0529C151.313 43.8635 151.148 44.1145 151.155 44.1652C151.295 44.1023 151.193 43.985 151.299 43.9307C151.299 43.9307 151.325 43.9411 151.308 43.9607C151.51 43.6498 151.681 43.4724 151.924 43.1606C151.783 43.0948 152.087 42.8314 152.133 42.6751C152.15 42.7328 152.327 42.5127 152.424 42.4307L152.432 42.2293C152.46 42.0344 152.682 42.0149 152.795 41.7845L152.726 41.8286C152.899 41.5778 153.143 41.3459 153.446 41.1428C153.83 40.4926 154.364 39.8766 155.033 39.3122C155.63 38.7852 156.271 38.2667 156.999 37.5404C157.055 37.4317 156.852 37.5794 156.861 37.4815C157.003 37.332 157.045 37.3005 157.188 37.1687C157.02 37.2695 157.089 37.2698 157.065 37.2388L156.887 37.4566C156.874 37.4526 156.889 37.4321 156.846 37.4437C156.784 37.5294 156.709 37.6118 156.623 37.69C156.718 37.5489 156.639 37.4719 156.871 37.3177C156.862 37.3497 156.842 37.3804 156.812 37.4079C156.968 37.2687 156.932 37.2436 157.077 37.1493C157.255 37.0326 157.175 37.0482 157.24 37.0492C157.407 36.9231 157.578 36.8002 157.747 36.6749C157.863 36.4797 158.066 36.3068 158.336 36.1747C158.383 36.2574 158.057 36.4461 158.043 36.5815L158.283 36.4627L158.217 36.4226L158.474 36.2297L158.475 36.2474C158.47 36.2257 158.476 36.2038 158.491 36.184C158.506 36.1641 158.53 36.147 158.561 36.1346C158.573 36.1386 158.621 36.1225 158.599 36.1467L158.723 35.9916C158.701 36.1069 158.896 35.8771 158.963 35.9348C159.562 35.4922 159.545 35.2927 160.186 34.9489C160.067 34.9968 160.209 34.76 160.386 34.6448C160.499 34.5853 160.541 34.5752 160.517 34.6354L160.681 34.4541C161.086 34.3134 161.28 34.0812 161.697 33.7913L161.718 33.823C161.818 33.6717 161.962 33.5317 162.143 33.4091L162.183 33.4741C162.491 33.3051 162.213 33.2486 162.557 33.0617C162.464 33.0326 162.242 33.1395 162.135 33.1232C162.286 33.1126 162.62 32.8934 162.488 32.9158C162.758 32.6902 162.7 32.7728 162.746 32.7659L162.883 32.6148C163.106 32.4735 163.057 32.6229 163.021 32.6989C163.184 32.5296 163.408 32.3833 163.677 32.2703L163.607 32.3473L163.935 32.1633C164.13 31.9803 164.386 31.8222 164.686 31.6986L164.591 31.8625C164.831 31.7905 164.659 31.787 164.695 31.7477C164.841 31.6241 165.061 31.5373 165.311 31.5046C165.338 31.4859 165.374 31.4681 165.378 31.4306L165.424 31.4022L165.513 31.3507L165.633 31.2699L165.719 31.2176C165.839 31.1523 165.964 31.0906 166.095 31.0328C166.353 30.9351 166.569 30.8037 166.727 30.6489L166.834 30.6575C167.277 30.2669 168.132 30.0597 168.491 29.7359C169.432 29.5677 168.861 29.4001 169.746 29.2646L169.703 29.2509L169.94 29.1742L170.059 29.1378C170.103 29.1262 170.228 29.086 170.236 29.077L170.72 28.9069C171.038 28.7893 171.363 28.6818 171.687 28.5682C172.335 28.3485 172.994 28.1344 173.653 27.9318C174.973 27.5236 176.29 27.1475 177.522 26.7931L177.541 26.8264C179.559 26.342 181.636 25.9473 183.754 25.6457C185.874 25.3468 188.032 25.151 190.206 25.0603C190.599 25.0129 190.356 24.95 190.703 24.8981C190.857 24.8959 191.203 24.8784 191.208 24.9229C190.914 24.9527 191.082 24.986 190.985 25.0059C191.505 25.0124 192.025 25.0022 192.543 24.9754L192.177 24.9206C192.374 24.9059 192.573 24.9034 192.771 24.9131C192.706 24.9412 192.929 25.0014 192.795 25.0138C193.723 24.8821 193.512 25.0819 194.288 25.0405C194.452 24.9289 195.439 24.8663 196.099 24.8331L196.429 24.8843C195.984 24.855 196.423 24.9677 195.869 24.9275C196.324 24.9853 196.761 24.973 197.192 25.0289C197.115 24.9932 197.147 24.9584 197.324 24.9597C197.588 24.9999 197.601 25.0621 197.898 25.0975L197.588 25.101C197.777 25.166 197.966 25.1284 198.155 25.1414C198.208 25.1889 198.649 25.2518 198.552 25.297C198.888 25.3035 199.223 25.3231 199.554 25.3558C199.124 25.2479 199.696 25.309 199.663 25.2655L199.143 25.2167C199.861 25.3453 198.904 25.1923 198.93 25.28C198.605 25.199 199.445 25.2108 198.873 25.1473C199.219 25.1727 199.427 25.1975 199.637 25.2207C199.894 25.2546 200.153 25.2792 200.415 25.2943C199.992 25.2447 200.514 25.2614 200.306 25.196C200.84 25.2765 200.424 25.2446 200.566 25.3204C200.855 25.3625 200.936 25.4328 201.227 25.4213C201.684 25.5319 201.124 25.4725 201.345 25.5419C201.107 25.5188 200.873 25.4793 200.65 25.4244C200.36 25.3838 200.106 25.3584 200.131 25.4553C199.889 25.4201 199.566 25.4372 199.218 25.3918C199.566 25.4865 199.932 25.5553 200.309 25.5968L200.376 25.5013C200.659 25.5418 200.75 25.4888 200.952 25.5349C200.83 25.5429 201.003 25.6208 201.233 25.6543C201.183 25.6228 201.084 25.6151 201.119 25.6027C201.544 25.6722 201.636 25.6177 202.152 25.6925C201.864 25.6137 201.584 25.5256 201.312 25.4287C201.451 25.385 201.596 25.4692 201.829 25.5036C201.794 25.5084 201.74 25.5067 201.807 25.5277L202.069 25.5403C202.572 25.6655 201.951 25.6235 202.358 25.7379C202.616 25.8577 202.774 25.7928 202.978 25.8726L202.946 25.8468C202.982 25.8568 203.017 25.8678 203.051 25.8799C203.327 25.9279 203.615 25.9968 203.724 25.9633C203.739 25.9911 203.968 26.007 204.063 26.0154C204.333 26.024 204.591 26.087 204.792 26.1939L204.758 26.1834C205.095 26.2776 205.339 26.3658 205.244 26.375C205.414 26.4282 205.586 26.4823 205.758 26.5363L205.652 26.5845C205.922 26.6508 206.213 26.6808 206.506 26.6723C206.878 26.8042 207.274 26.9117 207.686 26.9928C207.745 27.0156 207.807 27.0351 207.871 27.0509L207.695 26.9684C208.061 27.0815 208.049 27.033 208.29 27.1088C208.239 27.0927 208.234 27.0911 208.367 27.133L208.506 27.1766C208.496 27.1734 208.442 27.1564 208.385 27.1387L208.414 27.1728C208.657 27.3307 208.902 27.2817 209.194 27.4043C209.155 27.394 209.117 27.3822 209.081 27.3688C209.243 27.4411 209.411 27.6084 209.533 27.579C209.586 27.6004 209.647 27.6131 209.711 27.6155ZM209.711 27.6155C209.747 27.6268 209.786 27.6389 209.832 27.6649L209.711 27.6155Z" stroke="#50735F" stroke-width="0.5"/>
<path d="M223.215 32.7808C223.256 32.7354 223.344 32.7047 223.24 32.6799C223.218 32.673 223.117 32.7266 223.155 32.6804L223.307 32.6679C223.308 32.6443 223.295 32.6208 223.269 32.6016C223.216 32.5664 223.157 32.5337 223.094 32.5041L223.065 32.4403L223.125 32.4475C223.107 32.4012 223.15 32.3427 223.012 32.3286C223.08 32.3306 223.231 32.3297 223.203 32.2877L223.118 32.2611C223.131 32.2475 223.198 32.2588 223.109 32.2096C223.049 32.2412 223.011 32.1788 223.104 32.1381C223.012 32.1656 222.989 32.2146 222.891 32.2381C222.903 32.1663 222.649 32.2379 222.672 32.1695L222.773 32.1547C222.762 32.1336 222.74 32.1146 222.71 32.0998C222.681 32.0851 222.645 32.0752 222.607 32.0714L222.659 32.0644C222.653 31.9749 222.503 31.9472 222.624 31.8593L222.534 31.831C222.544 31.8322 222.553 31.8323 222.563 31.8313C222.572 31.8303 222.581 31.8283 222.589 31.8252C222.596 31.8222 222.603 31.8182 222.607 31.8136C222.612 31.809 222.615 31.8039 222.616 31.7985C222.608 31.761 222.445 31.7445 222.413 31.7676C222.472 31.629 222.25 31.6425 222.209 31.5094C222.318 31.4894 222.212 31.4521 222.321 31.4514L222.242 31.4266C222.242 31.4266 222.272 31.4205 222.28 31.4153C222.289 31.4101 222.263 31.3962 222.223 31.3973L222.24 31.4025L222.221 31.346L222.13 31.3643L222.181 31.3084C222.309 31.306 222.278 31.3795 222.397 31.3644C222.41 31.3493 222.498 31.2526 222.303 31.236L222.288 31.1207C222.339 31.1036 222.302 31.125 222.32 31.0859C222.338 31.0469 222.265 31.0688 222.25 31.0272C222.262 31.0352 222.279 31.0404 222.297 31.0418C222.311 30.9879 222.182 31.0058 222.114 30.9844C222.122 31.0064 222.174 31.0188 222.2 31.0327C222.226 31.0467 222.174 31.0382 222.162 31.044L222.249 31.0831C222.2 31.0909 222.257 31.074 222.224 31.1103C222.207 31.0833 222.181 31.0581 222.148 31.0358C222.056 31.0362 222.055 31.0843 221.987 31.0745C221.611 30.7429 221.974 30.4355 221.376 30.1796C221.429 30.1206 221.459 30.002 221.373 29.9847L221.356 30.0044C221.255 29.9727 221.439 29.9122 221.289 29.8961L221.135 29.8884C221.158 29.8627 221.115 29.8064 221.18 29.8036C221.098 29.7779 221.145 29.6955 220.968 29.7368C220.951 29.6696 220.92 29.6033 220.877 29.5394C220.887 29.5402 220.897 29.5394 220.907 29.5371C220.955 29.5075 220.783 29.5272 220.856 29.4883C220.899 29.488 220.945 29.5453 220.963 29.4868C220.818 29.4802 220.879 29.3516 220.927 29.322C220.895 29.3037 220.855 29.2911 220.812 29.286C220.815 29.2559 220.896 29.1938 220.949 29.228C220.855 29.1616 220.986 29.1251 220.806 29.1539C220.628 29.0982 220.795 28.9837 220.58 28.9393C220.514 28.7913 220.523 28.6378 220.606 28.497L220.553 28.5016C220.689 28.4901 220.717 28.3591 220.826 28.3817C220.711 28.3651 220.734 28.2866 220.76 28.2424L220.843 28.2433C220.792 28.3303 220.884 28.2562 220.893 28.3426C220.877 28.3374 220.871 28.3357 220.851 28.339C220.894 28.376 220.928 28.4623 220.974 28.5002L220.902 28.5066C220.907 28.582 221.146 28.5541 221.235 28.6111C221.168 28.6851 221.164 28.616 221.026 28.6639C221.073 28.7351 221.517 28.6008 221.312 28.7344L221.282 28.725C221.317 28.8176 221.181 28.7049 221.13 28.7919C221.239 28.927 221.35 28.6844 221.513 28.7877C221.401 28.803 221.388 28.8399 221.348 28.8837C221.489 28.8716 221.614 28.9537 221.77 28.9598C221.756 28.963 221.744 28.9679 221.734 28.9742C221.724 28.9804 221.717 28.9879 221.713 28.996C221.709 29.0042 221.708 29.0128 221.711 29.0214C221.713 29.0299 221.719 29.0381 221.727 29.0455C221.626 29.0409 221.648 29.0206 221.632 28.9651C221.583 28.969 221.487 28.974 221.455 29.0064C221.674 28.9958 221.705 29.1511 221.933 29.1354C221.866 29.128 221.848 29.1903 221.783 29.2046C221.877 29.2051 221.9 29.2415 221.93 29.2509L221.945 29.2071C221.92 29.2886 222.152 29.3266 222.227 29.3986L222.189 29.406C222.26 29.4516 222.404 29.4737 222.425 29.5325C222.356 29.5111 222.265 29.5697 222.226 29.5926C222.101 29.6385 221.925 29.5386 221.903 29.6288C222.015 29.6639 222.222 29.6398 222.24 29.721C222.346 29.7195 222.338 29.6549 222.318 29.6349C222.409 29.6772 222.366 29.7861 222.506 29.7832C222.483 29.7624 222.498 29.7496 222.541 29.7439C222.521 29.7472 222.829 29.7587 222.798 29.7934C222.717 29.7973 222.755 29.8054 222.668 29.8051C222.634 29.8429 222.702 29.8565 222.752 29.8705C222.598 29.9055 222.683 29.7962 222.496 29.8481C222.534 29.9726 222.732 29.9513 222.898 30.0269C222.918 30.074 222.956 30.1015 222.947 30.1548C222.947 30.1548 222.925 30.1363 222.908 30.1428C222.845 30.2627 223.008 30.1954 222.926 30.2977C223.085 30.3071 223.138 30.4033 223.154 30.4667C223.133 30.4598 223.074 30.4744 223.049 30.4705C223.175 30.5759 223.394 30.6429 223.369 30.7788L223.353 30.7736C223.423 30.8407 223.475 30.9129 223.509 30.9878C223.498 30.9802 223.483 30.975 223.466 30.9729C223.449 30.9709 223.432 30.9722 223.418 30.9765C223.402 31.0979 223.644 31.1368 223.657 31.2614C223.614 31.3082 223.704 31.3598 223.55 31.3793C223.617 31.4681 223.693 31.3059 223.741 31.3966L223.748 31.389C223.926 31.4781 223.86 31.605 224.029 31.6891C223.979 31.7302 223.959 31.7815 223.973 31.8326C224.052 31.8361 224.128 31.8526 224.193 31.8802C224.189 31.9121 224.194 31.9445 224.207 31.9761C224.265 31.9126 224.288 31.9916 224.33 31.9991C224.226 31.9937 224.226 32.0325 224.128 31.9978C224.103 32.1142 224.419 32.0017 224.413 32.1164L224.312 32.1584C224.331 32.1372 224.263 32.1275 224.244 32.1098C224.224 32.131 224.22 32.2053 224.318 32.2207C224.417 32.236 224.364 32.1243 224.471 32.1911C224.317 32.2416 224.481 32.1805 224.367 32.271C224.384 32.2673 224.402 32.2658 224.421 32.2667C224.439 32.2675 224.457 32.2706 224.473 32.2757C224.49 32.2809 224.504 32.2879 224.516 32.2965C224.527 32.305 224.535 32.3147 224.539 32.325C224.527 32.3386 224.51 32.3335 224.491 32.3352C224.525 32.4099 224.64 32.3179 224.694 32.3816C224.668 32.4103 224.531 32.3806 224.518 32.4253C224.476 32.4993 224.595 32.4492 224.6 32.513C224.626 32.4843 224.78 32.4726 224.824 32.5057C224.742 32.5304 224.612 32.5615 224.547 32.5099C224.507 32.5537 224.492 32.6169 224.37 32.5923C224.545 32.6317 224.601 32.7249 224.79 32.7864C224.748 32.8061 224.749 32.8317 224.769 32.8672C224.857 32.8946 225.097 32.8925 225.06 32.9333C225.131 32.9439 225.136 32.9107 225.18 32.9011L225.263 32.9602C225.219 33.0086 225.093 32.928 225.032 32.9635L225.014 33.0297C225.095 33.0763 225.196 33.0188 225.253 32.9941C225.221 33.0304 225.249 33.0452 225.282 33.0593C225.315 33.0735 225.354 33.0995 225.335 33.1323C225.293 33.0667 225.248 33.0894 225.198 33.105C225.149 33.1206 225.107 33.1209 225.076 33.0664C225.065 33.0848 225.057 33.1038 225.052 33.1231C225.007 33.1303 224.984 33.1017 224.949 33.0906C224.923 33.0758 224.891 33.0656 224.856 33.0615C224.844 33.1255 224.959 33.1522 224.961 33.2322C224.813 33.2169 224.942 33.1292 224.778 33.1088C224.719 33.2009 224.862 33.2634 224.728 33.2873C224.671 33.2461 224.793 33.1775 224.645 33.1662C224.572 33.1935 224.401 33.2117 224.485 33.277C224.562 33.301 224.608 33.2613 224.599 33.2253L224.546 33.2222L224.636 33.2155C224.606 33.2488 224.691 33.3088 224.697 33.3493C224.687 33.3503 224.679 33.3528 224.672 33.3564C224.665 33.36 224.66 33.3646 224.657 33.3698C224.667 33.37 224.676 33.3698 224.686 33.3691C224.678 33.3732 224.668 33.3761 224.657 33.3776C224.66 33.4172 224.799 33.4997 224.718 33.5229L224.666 33.4407C224.561 33.429 224.543 33.472 224.481 33.5027C224.466 33.5311 224.469 33.5621 224.491 33.5901C224.512 33.6182 224.55 33.6415 224.597 33.6559L224.584 33.6167C224.767 33.6974 224.472 33.663 224.689 33.7331C224.712 33.7307 224.705 33.715 224.689 33.6943C224.743 33.7464 224.858 33.7862 224.912 33.7413C224.867 33.7097 224.817 33.6803 224.769 33.6517C224.905 33.6379 224.721 33.5548 224.809 33.5148C224.856 33.5293 224.883 33.5185 224.899 33.5431C224.882 33.5742 224.876 33.6076 224.885 33.6408C224.893 33.6739 224.914 33.706 224.947 33.7346C224.952 33.6587 225.067 33.7723 225.084 33.7371C225.07 33.8569 225.272 33.8505 225.258 33.9975L225.13 33.8913C225.088 33.9964 225.273 34.0818 225.356 34.1797C225.352 34.1868 225.345 34.193 225.335 34.1974C225.324 34.2018 225.312 34.2042 225.299 34.2043C225.166 34.1841 225.001 34.1459 224.966 34.1852C224.694 34.1484 224.903 34.2547 224.758 34.283C224.703 34.2154 224.821 34.1824 224.886 34.1603C224.874 34.1593 224.861 34.1592 224.848 34.16C224.848 34.16 224.855 34.1524 224.858 34.1494C224.683 34.1139 224.594 34.2781 224.538 34.1422C224.769 34.1467 224.825 34.0576 224.888 33.9959C224.883 33.9733 224.874 33.9509 224.861 33.9291C224.887 33.9004 224.868 33.8478 224.935 33.8475C224.852 33.7993 224.747 33.7661 224.633 33.7524C224.722 33.8505 224.829 33.8839 224.826 33.9684C224.697 33.963 224.619 34.0065 224.536 34.0328L224.634 34.083C224.533 34.125 224.235 34.1363 224.306 34.2013C224.302 34.193 224.294 34.1854 224.284 34.1791C224.273 34.1727 224.26 34.1679 224.246 34.1649C224.232 34.162 224.217 34.161 224.202 34.1621C224.187 34.1633 224.173 34.1665 224.162 34.1714L224.211 34.117C224.132 34.0766 223.935 34.0848 223.957 34.0373C223.777 34.0506 223.812 34.116 223.602 34.0888C223.455 34.0814 223.447 34.3023 223.235 34.2665C223.195 34.1939 223.377 34.2063 223.287 34.1315C223.097 34.1204 223.055 34.1867 222.975 34.2627C223.034 34.2908 222.982 34.3211 222.979 34.3629L222.897 34.3372C222.918 34.2757 222.946 34.3526 222.985 34.2948C222.968 34.2805 222.946 34.2688 222.919 34.2605C222.893 34.2523 222.864 34.2479 222.835 34.2476L222.876 34.2023C222.819 34.1843 222.747 34.2396 222.745 34.1612L222.627 34.2485C222.526 34.1896 222.495 34.2593 222.411 34.2816L222.48 34.3186L222.39 34.2903C222.32 34.3208 222.44 34.3624 222.32 34.3674C222.395 34.2843 222.222 34.3094 222.241 34.2145C222.293 34.2192 222.384 34.2382 222.374 34.1804C222.337 34.1786 222.277 34.1209 222.232 34.0738C222.239 34.0895 222.158 34.0701 222.15 34.0908L222.185 34.3191C222.141 34.3675 222.095 34.1202 222.034 34.1222C222.142 34.0998 222.02 34.0986 222.049 34.0474C221.921 34.0809 221.773 34.1548 221.649 34.1372L221.69 34.0919C221.596 34.1302 221.638 34.0445 221.521 34.093C221.476 34.1196 221.608 34.105 221.526 34.1413C221.1 34.1046 220.671 34.0376 220.286 34.0099C220.318 33.9247 220.143 33.9319 220.083 33.9014C220.038 33.928 220.063 33.9691 220.109 33.9503C220.081 33.9639 220.048 33.9732 220.011 33.9774C219.975 33.9816 219.937 33.9806 219.901 33.9744C219.892 33.9035 219.817 33.9129 219.757 33.929C219.785 33.8972 219.769 33.8417 219.869 33.8904C219.845 33.8657 220.038 33.7922 219.888 33.7645C219.824 33.806 219.744 33.8386 219.654 33.8599C219.564 33.8812 219.466 33.8908 219.366 33.8879C219.274 33.8588 219.219 33.8959 219.184 33.8499L219.21 33.8212C219.155 33.804 219.143 33.8409 219.122 33.8675C219.042 33.8558 219.102 33.7776 219.135 33.7491C218.944 33.7551 218.875 33.8617 218.684 33.8327C218.649 33.8022 218.695 33.7314 218.604 33.7318C218.333 33.7681 218.046 33.7618 217.773 33.7134L217.701 33.6461L217.616 33.7398C217.343 33.658 217.049 33.6039 216.748 33.5798C216.781 33.5668 216.819 33.5788 216.835 33.5529C216.73 33.5567 216.628 33.6817 216.535 33.6526C216.533 33.6813 216.535 33.5866 216.542 33.5636C216.422 33.5879 216.355 33.6853 216.223 33.7101C216.206 33.6871 216.282 33.6684 216.236 33.6305L216.157 33.6406C216.218 33.6075 216.115 33.5788 216.135 33.5678C216.156 33.5568 216.165 33.5889 216.182 33.5824C216.198 33.5759 216.108 33.5321 216.064 33.5029C216.055 33.5043 216.046 33.507 216.038 33.5109C216.031 33.5147 216.025 33.5196 216.022 33.5251C216.019 33.5305 216.018 33.5364 216.02 33.5422C216.021 33.5481 216.025 33.5537 216.032 33.5585C215.976 33.5235 216.023 33.5249 216.022 33.4838C215.946 33.4598 215.938 33.4843 215.926 33.543C215.915 33.6016 215.93 33.5889 215.984 33.6269C215.9 33.5795 215.801 33.5695 215.742 33.5065L215.701 33.5518L215.69 33.5368L215.682 33.5769C215.452 33.6989 215.106 33.6094 214.826 33.671L214.606 33.6311C214.717 33.5669 214.894 33.6032 214.944 33.5604L214.896 33.5667C214.88 33.5422 214.979 33.5754 214.99 33.5168L214.921 33.4736C214.812 33.4393 214.864 33.6131 214.765 33.5062C214.907 33.4887 214.713 33.4473 214.809 33.3997C214.77 33.3543 214.726 33.4143 214.674 33.4678C214.706 33.4645 214.741 33.4677 214.771 33.4769C214.739 33.5116 214.625 33.4679 214.601 33.5479C214.593 33.5476 214.584 33.5463 214.577 33.5439C214.569 33.5415 214.563 33.5382 214.557 33.5342C214.53 33.5256 214.511 33.5002 214.5 33.4735L214.466 33.4764C214.47 33.5223 214.4 33.5722 214.339 33.5549C214.323 33.5497 214.376 33.5141 214.382 33.4847C214.26 33.3942 214.147 33.4111 214 33.3648C214.044 33.3973 214.075 33.4349 214.09 33.4745C214.075 33.48 214.058 33.4828 214.04 33.4824C214.037 33.4907 214.03 33.4983 214.02 33.5047C214.01 33.511 213.997 33.5158 213.983 33.5187L214.019 33.4794C213.978 33.4782 213.941 33.4724 213.912 33.4964C213.883 33.5204 213.868 33.5448 213.833 33.4871C213.845 33.4842 213.855 33.4799 213.863 33.4743C213.871 33.4688 213.877 33.4622 213.879 33.4551C213.846 33.4478 213.81 33.446 213.776 33.4497C213.773 33.4112 213.743 33.3741 213.694 33.3464L213.709 33.45C213.59 33.3875 213.607 33.4043 213.54 33.3969C213.471 33.2645 213.223 33.4411 213.212 33.3251L213.332 33.3357C213.3 33.2556 213.469 33.1845 213.412 33.1316L213.258 33.186C213.387 33.2752 213.109 33.2926 213.122 33.3861C213.058 33.3873 213.027 33.3057 212.946 33.3638C212.892 33.3466 213.005 33.2988 212.937 33.2774C212.869 33.256 212.896 33.3421 212.836 33.3233C212.85 33.3076 212.858 33.29 212.858 33.2719C212.787 33.2496 212.817 33.3173 212.724 33.3269C212.674 33.3813 212.634 33.2986 212.62 33.275L212.411 33.3277C212.443 33.293 212.549 33.2566 212.492 33.2192C212.569 33.1345 212.75 33.3215 212.775 33.1624C212.724 33.1136 212.624 33.2122 212.584 33.1334C212.56 33.2018 212.469 33.1983 212.407 33.2236L212.397 33.2008C212.277 33.1864 212.374 33.3297 212.247 33.2996C212.234 33.2759 212.285 33.2278 212.207 33.2208C212.193 33.2359 212.155 33.2433 212.157 33.2752L212.179 33.2821C212.193 33.3329 212.077 33.2984 212.018 33.2858C212.046 33.2556 212.077 33.2208 212.027 33.1953C212.124 33.216 212.129 33.0819 212.215 33.0992C212.189 33.1279 212.083 33.1566 212.126 33.1975C212.17 33.2383 212.262 33.172 212.354 33.1584L212.303 33.1422C212.307 33.0251 212.467 33.0733 212.509 32.9644C212.487 32.9575 212.464 32.9677 212.466 32.9507C212.466 32.9778 212.55 32.954 212.593 32.9614L212.547 33.0113C212.658 33.1061 212.65 32.9756 212.773 33.0219C212.757 33.0618 212.569 33.0764 212.664 33.1219C212.673 33.0662 212.749 33.1174 212.764 33.0775L212.836 33.1642C212.914 33.1421 212.987 33.1157 213.055 33.0853C213.018 33.1261 212.986 33.1221 212.941 33.1526C213.042 33.1339 213.073 33.2775 213.154 33.2L213.1 33.1712C213.183 33.1838 213.216 33.1747 213.253 33.1533C213.264 33.1347 213.264 33.1139 213.251 33.0949C213.238 33.0758 213.213 33.0597 213.182 33.0495C213.217 33.0607 213.3 33.1043 213.305 33.0493C213.343 33.0923 213.384 33.0741 213.409 33.0353C213.478 33.0707 213.432 33.0756 213.431 33.1182C213.496 33.1015 213.625 33.1519 213.612 33.0662C213.587 33.0468 213.503 33.0707 213.544 33.0137C213.563 33.0895 213.575 32.979 213.637 33.0041C213.538 33.0702 213.744 33.0786 213.674 33.1286C213.764 33.1568 213.785 33.1031 213.851 33.0927L213.849 33.1485L213.953 33.1345C213.969 33.2017 213.91 33.2667 214.005 33.3005C214.074 33.225 214.061 33.1237 214.192 33.095L214.163 33.1694C214.201 33.1814 214.318 33.1756 214.31 33.1226C214.293 33.0879 214.255 33.0573 214.203 33.0364L214.219 33.0415C214.286 33.0101 214.116 32.9353 214.247 32.9492C214.21 33.0443 214.428 33.1129 214.499 33.1817C214.564 33.1576 214.621 33.1267 214.665 33.0904C214.661 33.0639 214.595 33.041 214.625 32.9922C214.786 33.0855 214.869 32.9351 215.018 33.0419C215.011 33.0495 215 33.0616 215.057 33.0641L215.076 33.0933C215.102 33.084 215.134 33.0764 215.155 33.0871L215.274 33.1031C215.277 33.1195 215.285 33.091 215.318 33.0741C215.308 33.0699 215.297 33.0665 215.285 33.0638L215.318 33.0741C215.332 33.059 215.344 33.0454 215.362 33.0568C215.381 32.9968 215.448 33.0974 215.495 33.1182C215.484 33.1178 215.473 33.12 215.465 33.1243C215.55 33.1508 215.59 33.0372 215.667 33.114L215.678 33.1368C215.664 33.1325 215.654 33.1291 215.648 33.139L215.681 33.1493C215.716 33.1604 215.711 33.1587 215.697 33.1544C215.76 33.1547 215.748 33.1179 215.847 33.124L215.794 33.0937C215.811 33.0914 215.828 33.0922 215.845 33.0959C215.902 33.0713 216.059 33.041 216.148 33.0863C216.235 33.0168 216.22 32.9752 216.35 32.9558L216.335 33.0267L216.473 33.0525C216.449 33.0782 216.519 33.1097 216.605 33.1232C216.662 33.211 216.752 33.15 216.792 33.1295C216.831 33.1089 216.868 33.0836 216.874 33.1086C216.894 33.0549 216.967 33.0641 217.038 33.0553C217.046 33.0594 217.055 33.0623 217.065 33.0639L217.054 33.0449C217.109 33.0815 217.14 32.9885 217.213 33.0519C217.322 33.0862 217.168 33.1585 217.297 33.1949L217.358 33.1618C217.376 33.1771 217.364 33.179 217.355 33.1881C217.413 33.1828 217.451 33.2452 217.481 33.1732C217.417 33.131 217.343 33.0941 217.262 33.0635C217.387 33.0486 217.405 32.9785 217.513 32.9755C217.527 32.9604 217.495 32.9602 217.48 32.9458C217.539 32.939 217.589 32.9801 217.557 33.0125C217.606 33.0279 217.626 32.9548 217.699 32.9562L217.709 32.8525C217.808 32.8159 217.913 32.8819 217.99 32.9097C217.9 32.9009 217.822 32.9676 217.763 32.9666C217.783 33.1496 217.51 33.0096 217.462 33.0663C217.521 33.1022 217.396 33.1389 217.5 33.1637C217.57 33.106 217.593 33.154 217.665 33.1554C217.702 33.2116 217.593 33.2355 217.732 33.2404C217.679 33.214 217.813 33.1512 217.699 33.1603C217.877 33.0996 217.91 33.137 218.079 33.1048C217.938 33.1092 218.152 33.0247 218.063 32.9794C218.071 33.0635 217.835 33.0262 218.011 33.0679L217.883 33.0819C217.875 33.0406 218.016 33.0347 217.906 32.9786C218.018 32.9401 218.051 32.9814 218.159 32.9202C218.133 32.9722 218.245 32.9879 218.257 33.0364C218.302 33.0331 218.352 32.9771 218.397 33.0242L218.319 33.0561C218.394 33.0661 218.394 33.1243 218.46 33.1448C218.525 33.1654 218.505 33.0949 218.495 33.0667C218.599 33.0993 218.718 33.0493 218.824 33.0905C218.688 33.0748 218.789 33.1685 218.677 33.1606L218.757 33.1955C218.925 33.126 219.185 33.0523 219.247 32.9416C219.45 32.9065 219.358 33.0931 219.616 32.982C219.579 32.9918 219.622 33.0575 219.598 33.0832C219.634 33.0943 219.696 33.114 219.743 33.0937L219.668 33.0294C219.787 32.991 219.929 33.0549 220.047 33.0631C220.031 33.0813 220.05 33.1183 219.98 33.1372C219.971 33.1788 220.054 33.1836 220.089 33.1908C220.182 33.1618 220.144 33.08 220.249 33.0606C221.282 33.2045 222.265 33.2531 223.189 33.3317L223.188 33.3666C223.272 33.3559 223.38 33.349 223.445 33.3424C223.445 33.3424 223.445 33.3424 223.455 33.3318C223.49 33.3352 223.525 33.341 223.558 33.3489C223.582 33.3458 223.602 33.3388 223.618 33.3287C223.633 33.3186 223.642 33.306 223.645 33.2924L223.601 33.2904C223.737 33.2867 223.656 33.2726 223.585 33.2736C223.558 33.2734 223.531 33.2721 223.504 33.2696L223.533 33.2651L223.571 33.2421C223.297 33.2084 223.501 33.0841 223.274 33.0363L223.351 33.0137C223.101 32.9683 223.41 32.8207 223.215 32.7808Z" fill="#50735F"/>
<path d="M215.318 33.0741C215.285 33.091 215.277 33.1195 215.274 33.1031L215.155 33.0871C215.134 33.0764 215.102 33.084 215.076 33.0933L215.057 33.0641C215 33.0616 215.011 33.0495 215.018 33.0419C214.869 32.9351 214.786 33.0855 214.625 32.9922C214.595 33.041 214.661 33.0639 214.665 33.0904C214.621 33.1267 214.564 33.1576 214.499 33.1817C214.428 33.1129 214.21 33.0443 214.247 32.9492C214.116 32.9353 214.286 33.0101 214.219 33.0415L214.203 33.0364C214.255 33.0573 214.293 33.0879 214.31 33.1226C214.318 33.1756 214.201 33.1814 214.163 33.1694L214.192 33.095C214.061 33.1237 214.074 33.225 214.005 33.3005C213.91 33.2667 213.969 33.2017 213.953 33.1345L213.849 33.1485L213.851 33.0927C213.785 33.1031 213.764 33.1568 213.674 33.1286C213.744 33.0786 213.538 33.0702 213.637 33.0041C213.575 32.979 213.563 33.0895 213.544 33.0137C213.503 33.0707 213.587 33.0468 213.612 33.0662C213.625 33.1519 213.496 33.1015 213.431 33.1182C213.432 33.0756 213.478 33.0707 213.409 33.0353C213.384 33.0741 213.343 33.0923 213.305 33.0493C213.3 33.1043 213.217 33.0607 213.182 33.0495C213.213 33.0597 213.238 33.0758 213.251 33.0949C213.264 33.1139 213.264 33.1347 213.253 33.1533C213.216 33.1747 213.183 33.1838 213.1 33.1712L213.154 33.2C213.073 33.2775 213.042 33.1339 212.941 33.1526C212.986 33.1221 213.018 33.1261 213.055 33.0853C212.987 33.1157 212.914 33.1421 212.836 33.1642L212.764 33.0775C212.749 33.1174 212.673 33.0662 212.664 33.1219C212.569 33.0764 212.757 33.0618 212.773 33.0219C212.65 32.9756 212.658 33.1061 212.547 33.0113L212.593 32.9614C212.55 32.954 212.466 32.9778 212.466 32.9507C212.464 32.9677 212.487 32.9575 212.509 32.9644C212.467 33.0733 212.307 33.0251 212.303 33.1422L212.354 33.1584C212.262 33.172 212.17 33.2383 212.126 33.1975C212.083 33.1566 212.189 33.1279 212.215 33.0992C212.129 33.0819 212.124 33.216 212.027 33.1953C212.077 33.2208 212.046 33.2556 212.018 33.2858C212.077 33.2984 212.193 33.3329 212.179 33.2821L212.157 33.2752C212.155 33.2433 212.193 33.2359 212.207 33.2208C212.285 33.2278 212.234 33.2759 212.247 33.2996C212.374 33.3297 212.277 33.1864 212.397 33.2008L212.407 33.2236C212.469 33.1983 212.56 33.2018 212.584 33.1334C212.624 33.2122 212.724 33.1136 212.775 33.1624C212.75 33.3215 212.569 33.1345 212.492 33.2192C212.549 33.2566 212.443 33.293 212.411 33.3277L212.62 33.275C212.634 33.2986 212.674 33.3813 212.724 33.3269C212.817 33.3173 212.787 33.2496 212.858 33.2719C212.858 33.29 212.85 33.3076 212.836 33.3233C212.896 33.3421 212.869 33.256 212.937 33.2774C213.005 33.2988 212.892 33.3466 212.946 33.3638C213.027 33.3057 213.058 33.3873 213.122 33.3861C213.109 33.2926 213.387 33.2752 213.258 33.186L213.412 33.1316C213.469 33.1845 213.3 33.2556 213.332 33.3357L213.212 33.3251C213.223 33.4411 213.471 33.2645 213.54 33.3969C213.607 33.4043 213.59 33.3875 213.709 33.45L213.694 33.3464C213.743 33.3741 213.773 33.4112 213.776 33.4497C213.81 33.446 213.846 33.4478 213.879 33.4551C213.877 33.4622 213.871 33.4688 213.863 33.4743C213.855 33.4799 213.845 33.4842 213.833 33.4871C213.868 33.5448 213.883 33.5204 213.912 33.4964C213.941 33.4724 213.978 33.4782 214.019 33.4794L213.983 33.5187C213.997 33.5158 214.01 33.511 214.02 33.5047C214.03 33.4983 214.037 33.4907 214.04 33.4824C214.058 33.4828 214.075 33.48 214.09 33.4745C214.075 33.4349 214.044 33.3973 214 33.3648C214.147 33.4111 214.26 33.3942 214.382 33.4847C214.376 33.5141 214.323 33.5497 214.339 33.5549C214.4 33.5722 214.47 33.5223 214.466 33.4764L214.5 33.4735C214.511 33.5002 214.53 33.5256 214.557 33.5342C214.563 33.5382 214.569 33.5415 214.577 33.5439C214.584 33.5463 214.593 33.5476 214.601 33.5479C214.625 33.4679 214.739 33.5116 214.771 33.4769C214.741 33.4677 214.706 33.4645 214.674 33.4678C214.726 33.4143 214.77 33.3543 214.809 33.3997C214.713 33.4473 214.907 33.4887 214.765 33.5062C214.864 33.6131 214.812 33.4393 214.921 33.4736L214.99 33.5168C214.979 33.5754 214.88 33.5422 214.896 33.5667L214.944 33.5604C214.894 33.6032 214.717 33.5669 214.606 33.6311L214.826 33.671C215.106 33.6094 215.452 33.6989 215.682 33.5769L215.69 33.5368L215.701 33.5518L215.742 33.5065C215.801 33.5695 215.9 33.5795 215.984 33.6269C215.93 33.5889 215.915 33.6016 215.926 33.543C215.938 33.4843 215.946 33.4598 216.022 33.4838C216.023 33.5249 215.976 33.5235 216.032 33.5585C216.025 33.5537 216.021 33.5481 216.02 33.5422C216.018 33.5364 216.019 33.5305 216.022 33.5251C216.025 33.5196 216.031 33.5147 216.038 33.5109C216.046 33.507 216.055 33.5043 216.064 33.5029C216.108 33.5321 216.198 33.5759 216.182 33.5824C216.165 33.5889 216.156 33.5568 216.135 33.5678C216.115 33.5788 216.218 33.6075 216.157 33.6406L216.236 33.6305C216.282 33.6684 216.206 33.6871 216.223 33.7101C216.355 33.6853 216.422 33.5879 216.542 33.5636C216.535 33.5866 216.533 33.6813 216.535 33.6526C216.628 33.6817 216.73 33.5567 216.835 33.5529C216.819 33.5788 216.781 33.5668 216.748 33.5798C217.049 33.6039 217.343 33.658 217.616 33.7398L217.701 33.6461L217.773 33.7134C218.046 33.7618 218.333 33.7681 218.604 33.7318C218.695 33.7314 218.649 33.8022 218.684 33.8327C218.875 33.8617 218.944 33.7551 219.135 33.7491C219.102 33.7776 219.042 33.8558 219.122 33.8675C219.143 33.8409 219.155 33.804 219.21 33.8212L219.184 33.8499C219.219 33.8959 219.274 33.8588 219.366 33.8879C219.466 33.8908 219.564 33.8812 219.654 33.8599C219.744 33.8386 219.824 33.806 219.888 33.7645C220.038 33.7922 219.845 33.8657 219.869 33.8904C219.769 33.8417 219.785 33.8972 219.757 33.929C219.817 33.9129 219.892 33.9035 219.901 33.9744C219.937 33.9806 219.975 33.9816 220.011 33.9774C220.048 33.9732 220.081 33.9639 220.109 33.9503C220.063 33.9691 220.038 33.928 220.083 33.9014C220.143 33.9319 220.318 33.9247 220.286 34.0099C220.671 34.0376 221.1 34.1046 221.526 34.1413C221.608 34.105 221.476 34.1196 221.521 34.093C221.638 34.0445 221.596 34.1302 221.69 34.0919L221.649 34.1372C221.773 34.1548 221.921 34.0809 222.049 34.0474C222.02 34.0986 222.142 34.0998 222.034 34.1222C222.095 34.1202 222.141 34.3675 222.185 34.3191L222.15 34.0908C222.158 34.0701 222.239 34.0895 222.232 34.0738C222.277 34.1209 222.337 34.1786 222.374 34.1804C222.384 34.2382 222.293 34.2192 222.241 34.2145C222.222 34.3094 222.395 34.2843 222.32 34.3674C222.44 34.3624 222.32 34.3208 222.39 34.2903L222.48 34.3186L222.411 34.2816C222.495 34.2593 222.526 34.1896 222.627 34.2485L222.745 34.1612C222.747 34.2396 222.819 34.1843 222.876 34.2023L222.835 34.2476C222.864 34.2479 222.893 34.2523 222.919 34.2605C222.946 34.2688 222.968 34.2805 222.985 34.2948C222.946 34.3526 222.918 34.2757 222.897 34.3372L222.979 34.3629C222.982 34.3211 223.034 34.2908 222.975 34.2627C223.055 34.1867 223.097 34.1204 223.287 34.1315C223.377 34.2063 223.195 34.1939 223.235 34.2665C223.447 34.3023 223.455 34.0814 223.602 34.0888C223.812 34.116 223.777 34.0506 223.957 34.0373C223.935 34.0848 224.132 34.0766 224.211 34.117L224.162 34.1714C224.173 34.1665 224.187 34.1633 224.202 34.1621C224.217 34.161 224.232 34.162 224.246 34.1649C224.26 34.1679 224.273 34.1727 224.284 34.1791C224.294 34.1854 224.302 34.193 224.306 34.2013C224.235 34.1363 224.533 34.125 224.634 34.083L224.536 34.0328C224.619 34.0065 224.697 33.963 224.826 33.9684C224.829 33.8839 224.722 33.8505 224.633 33.7524C224.747 33.7661 224.852 33.7993 224.935 33.8475C224.868 33.8478 224.887 33.9004 224.861 33.9291C224.874 33.9509 224.883 33.9733 224.888 33.9959C224.825 34.0576 224.769 34.1467 224.538 34.1422C224.594 34.2781 224.683 34.1139 224.858 34.1494C224.855 34.1524 224.848 34.16 224.848 34.16C224.861 34.1592 224.874 34.1593 224.886 34.1603C224.821 34.1824 224.703 34.2154 224.758 34.283C224.903 34.2547 224.694 34.1484 224.966 34.1852C225.001 34.1459 225.166 34.1841 225.299 34.2043C225.312 34.2042 225.324 34.2018 225.335 34.1974C225.345 34.193 225.352 34.1868 225.356 34.1797C225.273 34.0818 225.088 33.9964 225.13 33.8913L225.258 33.9975C225.272 33.8505 225.07 33.8569 225.084 33.7371C225.067 33.7723 224.952 33.6587 224.947 33.7346C224.914 33.706 224.893 33.6739 224.885 33.6408C224.876 33.6076 224.882 33.5742 224.899 33.5431C224.883 33.5185 224.856 33.5293 224.809 33.5148C224.721 33.5548 224.905 33.6379 224.769 33.6517C224.817 33.6803 224.867 33.7097 224.912 33.7413C224.858 33.7862 224.743 33.7464 224.689 33.6943C224.705 33.715 224.712 33.7307 224.689 33.7331C224.472 33.663 224.767 33.6974 224.584 33.6167L224.597 33.6559C224.55 33.6415 224.512 33.6182 224.491 33.5901C224.469 33.5621 224.466 33.5311 224.481 33.5027C224.543 33.472 224.561 33.429 224.666 33.4407L224.718 33.5229C224.799 33.4997 224.66 33.4172 224.657 33.3776C224.668 33.3761 224.678 33.3732 224.686 33.3691C224.676 33.3698 224.667 33.37 224.657 33.3698C224.66 33.3646 224.665 33.36 224.672 33.3564C224.679 33.3528 224.687 33.3503 224.697 33.3493C224.691 33.3088 224.606 33.2488 224.636 33.2155L224.546 33.2222L224.599 33.2253C224.608 33.2613 224.562 33.301 224.485 33.277C224.401 33.2117 224.572 33.1935 224.645 33.1662C224.793 33.1775 224.671 33.2461 224.728 33.2873C224.862 33.2634 224.719 33.2009 224.778 33.1088C224.942 33.1292 224.813 33.2169 224.961 33.2322C224.959 33.1522 224.844 33.1255 224.856 33.0615C224.891 33.0656 224.923 33.0758 224.949 33.0906C224.984 33.1017 225.007 33.1303 225.052 33.1231C225.057 33.1038 225.065 33.0848 225.076 33.0664C225.107 33.1209 225.149 33.1206 225.198 33.105C225.248 33.0894 225.293 33.0667 225.335 33.1323C225.354 33.0995 225.315 33.0735 225.282 33.0593C225.249 33.0452 225.221 33.0304 225.253 32.9941C225.196 33.0188 225.095 33.0763 225.014 33.0297L225.032 32.9635C225.093 32.928 225.219 33.0086 225.263 32.9602L225.18 32.9011C225.136 32.9107 225.131 32.9439 225.06 32.9333C225.097 32.8925 224.857 32.8946 224.769 32.8672C224.749 32.8317 224.748 32.8061 224.79 32.7864C224.601 32.7249 224.545 32.6317 224.37 32.5923C224.492 32.6169 224.507 32.5537 224.547 32.5099C224.612 32.5615 224.742 32.5304 224.824 32.5057C224.78 32.4726 224.626 32.4843 224.6 32.513C224.595 32.4492 224.476 32.4993 224.518 32.4253C224.531 32.3806 224.668 32.4103 224.694 32.3816C224.64 32.3179 224.525 32.4099 224.491 32.3352C224.51 32.3335 224.527 32.3386 224.539 32.325C224.535 32.3147 224.527 32.305 224.516 32.2965C224.504 32.2879 224.49 32.2809 224.473 32.2757C224.457 32.2706 224.439 32.2675 224.421 32.2667C224.402 32.2658 224.384 32.2673 224.367 32.271C224.481 32.1805 224.317 32.2416 224.471 32.1911C224.364 32.1243 224.417 32.236 224.318 32.2207C224.22 32.2053 224.224 32.131 224.244 32.1098C224.263 32.1275 224.331 32.1372 224.312 32.1584L224.413 32.1164C224.419 32.0017 224.103 32.1142 224.128 31.9978C224.226 32.0325 224.226 31.9937 224.33 31.9991C224.288 31.9916 224.265 31.9126 224.207 31.9761C224.194 31.9445 224.189 31.9121 224.193 31.8802C224.128 31.8526 224.052 31.8361 223.973 31.8326C223.959 31.7815 223.979 31.7302 224.029 31.6891C223.86 31.605 223.926 31.4781 223.748 31.389L223.741 31.3966C223.693 31.3059 223.617 31.4681 223.55 31.3793C223.704 31.3598 223.614 31.3082 223.657 31.2614C223.644 31.1368 223.402 31.0979 223.418 30.9765C223.432 30.9722 223.449 30.9709 223.466 30.9729C223.483 30.975 223.498 30.9802 223.509 30.9878C223.475 30.9129 223.423 30.8407 223.353 30.7736L223.369 30.7788C223.394 30.6429 223.175 30.5759 223.049 30.4705C223.074 30.4744 223.133 30.4598 223.154 30.4667C223.138 30.4033 223.085 30.3071 222.926 30.2977C223.008 30.1954 222.845 30.2627 222.908 30.1428C222.925 30.1363 222.947 30.1548 222.947 30.1548C222.956 30.1015 222.918 30.074 222.898 30.0269C222.732 29.9513 222.534 29.9726 222.496 29.8481C222.683 29.7962 222.598 29.9055 222.752 29.8705C222.702 29.8565 222.634 29.8429 222.668 29.8051C222.755 29.8054 222.717 29.7973 222.798 29.7934C222.829 29.7587 222.521 29.7472 222.541 29.7439C222.498 29.7496 222.483 29.7624 222.506 29.7832C222.366 29.7861 222.409 29.6772 222.318 29.6349C222.338 29.6549 222.346 29.7195 222.24 29.721C222.222 29.6398 222.015 29.6639 221.903 29.6288C221.925 29.5386 222.101 29.6385 222.226 29.5926C222.265 29.5697 222.356 29.5111 222.425 29.5325C222.404 29.4737 222.26 29.4516 222.189 29.406L222.227 29.3986C222.152 29.3266 221.92 29.2886 221.945 29.2071L221.93 29.2509C221.9 29.2415 221.877 29.2051 221.783 29.2046C221.848 29.1903 221.866 29.128 221.933 29.1354C221.705 29.1511 221.674 28.9958 221.455 29.0064C221.487 28.974 221.583 28.969 221.632 28.9651C221.648 29.0206 221.626 29.0409 221.727 29.0455C221.719 29.0381 221.713 29.0299 221.711 29.0214C221.708 29.0128 221.709 29.0042 221.713 28.996C221.717 28.9879 221.724 28.9804 221.734 28.9742C221.744 28.9679 221.756 28.963 221.77 28.9598C221.614 28.9537 221.489 28.8716 221.348 28.8837C221.388 28.8399 221.401 28.803 221.513 28.7877C221.35 28.6844 221.239 28.927 221.13 28.7919C221.181 28.7049 221.317 28.8176 221.282 28.725L221.312 28.7344C221.517 28.6008 221.073 28.7351 221.026 28.6639C221.164 28.616 221.168 28.6851 221.235 28.6111C221.146 28.5541 220.907 28.582 220.902 28.5066L220.974 28.5002C220.928 28.4623 220.894 28.376 220.851 28.339C220.871 28.3357 220.877 28.3374 220.893 28.3426C220.884 28.2562 220.792 28.3303 220.843 28.2433L220.76 28.2424C220.734 28.2866 220.711 28.3651 220.826 28.3817C220.717 28.3591 220.689 28.4901 220.553 28.5016L220.606 28.497C220.523 28.6378 220.514 28.7913 220.58 28.9393C220.795 28.9837 220.628 29.0982 220.806 29.1539C220.986 29.1251 220.855 29.1616 220.949 29.228C220.896 29.1938 220.815 29.2559 220.812 29.286C220.855 29.2911 220.895 29.3037 220.927 29.322C220.879 29.3516 220.818 29.4802 220.963 29.4868C220.945 29.5453 220.899 29.488 220.856 29.4883C220.783 29.5272 220.955 29.5075 220.907 29.5371C220.897 29.5394 220.887 29.5402 220.877 29.5394C220.92 29.6033 220.951 29.6696 220.968 29.7368C221.145 29.6955 221.098 29.7779 221.18 29.8036C221.115 29.8064 221.158 29.8627 221.135 29.8884L221.289 29.8961C221.439 29.9122 221.255 29.9727 221.356 30.0044L221.373 29.9847C221.459 30.002 221.429 30.1206 221.376 30.1796C221.974 30.4355 221.611 30.7429 221.987 31.0745C222.055 31.0843 222.056 31.0362 222.148 31.0358C222.181 31.0581 222.207 31.0833 222.224 31.1103C222.257 31.074 222.2 31.0909 222.249 31.0831L222.162 31.044C222.174 31.0382 222.226 31.0467 222.2 31.0327C222.174 31.0188 222.122 31.0064 222.114 30.9844C222.182 31.0058 222.311 30.9879 222.297 31.0418C222.279 31.0404 222.262 31.0352 222.25 31.0272C222.265 31.0688 222.338 31.0469 222.32 31.0859C222.302 31.125 222.339 31.1036 222.288 31.1207L222.303 31.236C222.498 31.2526 222.41 31.3493 222.397 31.3644C222.278 31.3795 222.309 31.306 222.181 31.3084L222.13 31.3643L222.221 31.346L222.24 31.4025L222.223 31.3973C222.263 31.3962 222.289 31.4101 222.28 31.4153C222.272 31.4205 222.242 31.4266 222.242 31.4266L222.321 31.4514C222.212 31.4521 222.318 31.4894 222.209 31.5094C222.25 31.6425 222.472 31.629 222.413 31.7676C222.445 31.7445 222.608 31.761 222.616 31.7985C222.615 31.8039 222.612 31.809 222.607 31.8136C222.603 31.8182 222.596 31.8222 222.589 31.8252C222.581 31.8283 222.572 31.8303 222.563 31.8313C222.553 31.8323 222.544 31.8322 222.534 31.831L222.624 31.8593C222.503 31.9472 222.653 31.9749 222.659 32.0644L222.607 32.0714C222.645 32.0752 222.681 32.0851 222.71 32.0998C222.74 32.1146 222.762 32.1336 222.773 32.1547L222.672 32.1695C222.649 32.2379 222.903 32.1663 222.891 32.2381C222.989 32.2146 223.012 32.1656 223.104 32.1381C223.011 32.1788 223.049 32.2412 223.109 32.2096C223.198 32.2588 223.131 32.2475 223.118 32.2611L223.203 32.2877C223.231 32.3297 223.08 32.3306 223.012 32.3286C223.15 32.3427 223.107 32.4012 223.125 32.4475L223.065 32.4403L223.094 32.5041C223.157 32.5337 223.216 32.5664 223.269 32.6016C223.295 32.6208 223.308 32.6443 223.307 32.6679L223.155 32.6804C223.117 32.7266 223.218 32.673 223.24 32.6799C223.344 32.7047 223.256 32.7354 223.215 32.7808C223.41 32.8207 223.101 32.9683 223.351 33.0137L223.274 33.0363C223.501 33.0841 223.297 33.2084 223.571 33.2421L223.533 33.2651L223.504 33.2696C223.531 33.2721 223.558 33.2734 223.585 33.2736C223.656 33.2726 223.737 33.2867 223.601 33.2904L223.645 33.2924C223.642 33.306 223.633 33.3186 223.618 33.3287C223.602 33.3388 223.582 33.3458 223.558 33.3489C223.525 33.341 223.49 33.3352 223.455 33.3318C223.445 33.3424 223.445 33.3424 223.445 33.3424C223.38 33.349 223.272 33.3559 223.188 33.3666L223.189 33.3317C222.265 33.2531 221.282 33.2045 220.249 33.0606C220.144 33.08 220.182 33.1618 220.089 33.1908C220.054 33.1836 219.971 33.1788 219.98 33.1372C220.05 33.1183 220.031 33.0813 220.047 33.0631C219.929 33.0549 219.787 32.991 219.668 33.0294L219.743 33.0937C219.696 33.114 219.634 33.0943 219.598 33.0832C219.622 33.0575 219.579 32.9918 219.616 32.982C219.358 33.0931 219.45 32.9065 219.247 32.9416C219.185 33.0523 218.925 33.126 218.757 33.1955L218.677 33.1606C218.789 33.1685 218.688 33.0748 218.824 33.0905C218.718 33.0493 218.599 33.0993 218.495 33.0667C218.505 33.0949 218.525 33.1654 218.46 33.1448C218.394 33.1243 218.394 33.0661 218.319 33.0561L218.397 33.0242C218.352 32.9771 218.302 33.0331 218.257 33.0364C218.245 32.9879 218.133 32.9722 218.159 32.9202C218.051 32.9814 218.018 32.9401 217.906 32.9786C218.016 33.0347 217.875 33.0406 217.883 33.0819L218.011 33.0679C217.835 33.0262 218.071 33.0635 218.063 32.9794C218.152 33.0247 217.938 33.1092 218.079 33.1048C217.91 33.137 217.877 33.0996 217.699 33.1603C217.813 33.1512 217.679 33.214 217.732 33.2404C217.593 33.2355 217.702 33.2116 217.665 33.1554C217.593 33.154 217.57 33.106 217.5 33.1637C217.396 33.1389 217.521 33.1022 217.462 33.0663C217.51 33.0096 217.783 33.1496 217.763 32.9666C217.822 32.9676 217.9 32.9009 217.99 32.9097C217.913 32.8819 217.808 32.8159 217.709 32.8525L217.699 32.9562C217.626 32.9548 217.606 33.0279 217.557 33.0125C217.589 32.9801 217.539 32.939 217.48 32.9458C217.495 32.9602 217.527 32.9604 217.513 32.9755C217.405 32.9785 217.387 33.0486 217.262 33.0635C217.343 33.0941 217.417 33.131 217.481 33.1732C217.451 33.2452 217.413 33.1828 217.355 33.1881C217.364 33.179 217.376 33.1771 217.358 33.1618L217.297 33.1949C217.168 33.1585 217.322 33.0862 217.213 33.0519C217.14 32.9885 217.109 33.0815 217.054 33.0449L217.065 33.0639C217.055 33.0623 217.046 33.0594 217.038 33.0553C216.967 33.0641 216.894 33.0549 216.874 33.1086C216.868 33.0836 216.831 33.1089 216.792 33.1295C216.752 33.15 216.662 33.211 216.605 33.1232C216.519 33.1097 216.449 33.0782 216.473 33.0525L216.335 33.0267L216.35 32.9558C216.22 32.9752 216.235 33.0168 216.148 33.0863C216.059 33.041 215.902 33.0713 215.845 33.0959C215.828 33.0922 215.811 33.0914 215.794 33.0937L215.847 33.124C215.748 33.1179 215.76 33.1547 215.697 33.1544C215.711 33.1587 215.716 33.1604 215.681 33.1493L215.648 33.139C215.654 33.1291 215.664 33.1325 215.678 33.1368L215.667 33.114C215.59 33.0372 215.55 33.1508 215.465 33.1243C215.473 33.12 215.484 33.1178 215.495 33.1182C215.448 33.0974 215.381 32.9968 215.362 33.0568C215.344 33.0454 215.332 33.059 215.318 33.0741ZM215.318 33.0741C215.308 33.0699 215.297 33.0665 215.285 33.0638L215.318 33.0741Z" stroke="#50735F" stroke-width="0.5"/>
<path d="M69.2368 68.3097C71.0852 68.3327 72.2263 68.6692 72.6599 69.3192L73.7212 71.9238L73.2003 72.1361C72.4189 72.4545 71.5515 71.7956 70.5979 70.1594L67.4942 71.4242C62.5841 74.4879 57.5477 83.3903 52.385 98.1315C52.1595 100.518 52.1768 102.527 52.4368 104.159C54.2131 107.856 56.541 109.118 59.4205 107.944L60.4406 107.529C62.6834 106.615 68.3316 101.698 77.3851 92.7783L78.4269 92.3538C78.7571 93.1641 74.2143 97.8329 64.7985 106.36C63.6088 107.25 62.2977 107.987 60.8652 108.57L58.8032 109.411C55.6922 110.678 53.3613 109.409 51.8106 105.604L51.6072 105.105C49.0601 98.8536 53.1402 88.1221 63.8478 72.91C65.6607 70.5684 67.457 69.035 69.2368 68.3097ZM77.8091 85.6204L78.8943 85.1782L79.1154 85.7208C79.6225 86.9652 79.889 89.1512 79.9149 92.2789L81.1996 92.3882L82.2848 91.946L86.1044 82.8729L86.647 82.6518L86.8681 83.1944C84.4546 89.6108 83.3187 92.9926 83.4602 93.3399C84.2641 94.2777 85.5633 94.381 87.3575 93.6499L94.3464 90.8021L94.7798 91.8656L90.4823 93.6168C90.1205 93.7642 90.0134 94.0187 90.1608 94.3805L82.5174 95.6222C81.6853 98.8802 80.9436 100.642 80.2925 100.907L79.3077 100.043L77.8091 85.6204ZM79.8145 93.5853L80.3686 96.4978L81.5325 94.7581C80.9022 94.205 80.5104 93.7404 80.3571 93.3642L79.8145 93.5853ZM95.3979 78.352L97.8072 77.3703C98.2991 77.1698 99.1952 77.5471 100.495 78.502L101.663 81.367C101.816 85.3876 101.961 87.5643 102.097 87.8971C102.834 87.9678 103.376 87.9324 103.724 87.7909L110.753 80.4468L110.957 80.946C107.581 85.6624 105.14 88.3272 103.635 88.9404C103.389 89.0407 102.362 89.2736 100.554 89.6392C100.233 91.9974 99.0301 93.6009 96.9465 94.45C95.6452 93.7823 94.4897 92.7684 93.4799 91.4083C91.4634 86.4596 92.1027 82.1075 95.3979 78.352ZM94.302 86.5937L95.0891 88.5254C95.4498 89.1208 95.8979 89.3094 96.4333 89.0912L97.3883 88.7021C98.7736 87.5471 99.4321 85.0431 99.3638 81.1903L100.319 80.8012L99.9296 79.8462C99.7468 79.3976 99.0748 79.1147 97.9134 78.9974C95.8297 79.8464 94.6259 82.3785 94.302 86.5937ZM96.8224 90.0462L94.5232 89.8695L94.9124 90.8245L96.3628 93.0175L96.8403 92.8229C98.8082 92.021 99.8882 90.0962 100.08 87.0483L99.5812 87.2517C98.8128 88.6784 97.8932 89.6099 96.8224 90.0462ZM115.682 73.225L116.767 72.7828C117.538 72.6038 118.047 72.8181 118.294 73.4259L119.4 76.1389C118.352 78.7426 118.184 80.9198 118.898 82.6707C120.591 81.9808 122.708 84.0708 125.249 88.9407C127.896 83.5935 130.334 79.2255 132.564 75.8366L133.006 76.9219C126.867 85.666 125.066 93.1491 127.601 99.3711C129.726 124.253 128.075 137.799 122.648 140.01L120.478 140.895C117.806 140.549 116.131 139.544 115.453 137.88C112.682 131.079 115.197 116.548 122.998 94.2867C124.436 92.6381 124.677 90.6418 123.722 88.2976C121.608 84.5189 119.17 83.1926 116.406 84.3188L116.185 83.7762C117.646 79.0808 118.061 75.959 117.43 74.4107C116.588 74.332 115.972 74.3722 115.581 74.5314C112.083 78.3694 110.945 81.7861 112.165 84.7813L111.623 85.0024C111.18 83.9172 110.778 83.4483 110.417 83.5957C110.989 77.8789 112.744 74.422 115.682 73.225ZM116.961 135.368L117.845 137.538C119.158 138.691 120.538 138.972 121.985 138.382C127.86 135.988 128.888 121.431 125.069 94.7087L124.847 94.166C117.208 111.857 114.579 125.591 116.961 135.368Z" fill="#50735F"/>
</svg>
