<svg width="28" height="19" viewBox="0 0 28 19" fill="none" xmlns="http://www.w3.org/2000/svg">
<path fill-rule="evenodd" clip-rule="evenodd" d="M16.8568 0.443071C16.058 1.12704 15.8927 1.68756 16.3019 2.32308C16.8338 3.14944 18.1961 3.81445 21.7019 4.95951C23.5232 5.55438 25.5653 6.22275 26.2396 6.44477C27.5731 6.88397 28.0012 6.79655 27.1952 6.24929C26.6968 5.91079 25.7033 5.10696 22.5658 2.50339C20.9538 1.16579 19.2943 0.239588 18.1394 0.0329452C17.623 -0.059528 17.3365 0.0321026 16.8568 0.443071ZM0.888779 7.37224C-0.696242 8.24958 -0.0254334 10.4325 1.82928 10.4325C3.29156 10.4325 4.20764 9.09827 3.49999 7.99912C2.92252 7.1022 1.84418 6.84331 0.888779 7.37224ZM9.69726 7.40763C7.94458 7.84514 6.79877 8.64707 7.0341 9.271C7.2121 9.74326 8.61084 10.4298 10.3182 10.8831C11.9258 11.31 15.838 11.4164 17.5859 11.0809C18.1421 10.9741 19.5286 10.7862 20.667 10.6632C21.8053 10.5401 23.8219 10.2315 25.148 9.97729C27.9115 9.44752 28.1752 9.09237 25.9606 8.88299C25.1848 8.80947 23.5831 8.56007 22.4014 8.32836C21.2198 8.09686 19.4613 7.80112 18.4937 7.67115C16.6256 7.42048 10.3933 7.23364 9.69726 7.40763ZM25.5309 12.4482C24.5633 12.7336 22.4211 13.6526 20.7705 14.4908C18.1034 15.845 17.7273 16.102 17.392 16.8005C16.9151 17.7935 17.0844 18.3627 17.9868 18.8006C19.2873 19.4317 20.8497 18.6137 24.015 15.6451C25.0337 14.6898 26.3503 13.5332 26.9408 13.075C28.6548 11.7448 28.3603 11.614 25.5309 12.4482Z" fill="white"/>
</svg>
