<svg width="1440" height="62" viewBox="0 0 1440 62" fill="none" xmlns="http://www.w3.org/2000/svg">
<path fill-rule="evenodd" clip-rule="evenodd" d="M179 6C178.853 6 178.1 6.87474 177 7.5C174.5 9.5 175.289 9.52279 171.911 6.85448C170.789 5.96718 168.419 4.54295 166.644 3.68988C164.434 2.62653 163.133 1.8024 162.509 1.06982L161.598 0.00149781H158.643H155.688L156.905 1.13591L158.121 2.27032L156.235 2.48118C155.197 2.59728 152.975 3.20529 151.297 3.83259C147.884 5.10797 146.105 5.2694 143.865 4.5064C142.363 3.9949 140.656 4.05573 138.174 4.70877C136.237 5.2188 136.282 5.63935 138.401 6.83985C139.781 7.62157 140.303 7.75113 142.059 7.74879C143.832 7.74674 144.422 7.59496 146.448 6.6211C150.143 4.84476 155.068 3.20499 156.598 3.24155L157.567 3.26465L156.689 3.57787C155.231 4.09843 153.001 5.65602 150.837 7.66544C149.711 8.71183 148.065 9.96644 147.18 10.454C145.194 11.5477 141.71 12.4069 140.066 12.2084C137.033 11.8425 133.033 9.47746 132.25 7.58736C131.955 6.87758 131.947 6.36638 132.212 5.22056C132.676 3.21055 132.642 2.7166 131.938 1.26371C131.445 0.244816 131.177 0.00149781 130.548 0.00179026C129.783 0.00208271 129.768 0.0386388 129.674 2.20482C129.59 4.15926 129.667 4.55757 130.359 5.73703C130.787 6.46815 131.076 7.1285 131 7.20425C130.924 7.28028 129.76 6.28361 128.414 4.98923C126.71 3.3521 125.298 2.3022 123.771 1.53832C122.564 0.934413 121.533 0.341325 121.479 0.220835C121.329 -0.117529 115.578 -0.0464639 115.578 0.293948C115.578 0.454795 115.348 0.590492 115.066 0.595756C114.259 0.610379 113.672 1.20405 112.839 2.84557C111.928 4.64356 111.904 4.78861 112.579 4.42743C112.861 4.27682 113.743 4.05602 114.538 3.9367C115.666 3.76767 116.28 3.4489 117.318 2.49317C118.051 1.81849 118.893 1.1789 119.189 1.07157C119.835 0.838197 122.875 1.58541 124.359 2.34227C125.385 2.86546 131.205 8.46207 130.968 8.69837C130.779 8.88759 128.054 8.00585 126.816 7.35515C126.188 7.02439 125.224 6.35029 124.675 5.85722C124.127 5.36415 123.366 4.88278 122.985 4.78715C122.095 4.56401 117.919 4.94946 117.919 5.25507C117.919 5.38258 118.301 5.6452 118.768 5.83851C119.235 6.03181 119.895 6.48628 120.236 6.84834L120.855 7.50693L120.151 7.82746C119.764 8.00351 118.656 8.30357 117.688 8.49366C115.424 8.93906 113.658 8.41996 111.628 6.71235C111.306 6.44154 109.963 5.65689 108.643 4.96905C106.921 4.07182 105.928 3.3249 105.131 2.32794C103.665 0.492814 102.497 0.00120536 99.6063 0.00266761L97.2907 0.00354496L98.1685 0.539898C98.6513 0.834688 99.221 1.4035 99.4343 1.80357C99.6476 2.20394 100.339 2.86692 100.972 3.27664C102.327 4.15487 102.257 4.24699 99.3831 5.37614L97.379 6.16371L95.5201 4.53242C94.3395 3.49627 92.7223 2.47387 91.0869 1.72958C89.671 1.08532 88.284 0.432861 88.0046 0.279618C87.3185 -0.095888 79.0898 -0.0830202 78.8566 0.293948C78.7572 0.454795 78.4648 0.586398 78.2068 0.586398C77.9487 0.586398 76.7385 1.17101 75.5175 1.88546C72.5215 3.6384 71.0909 3.99929 68.8882 3.5571C67.9446 3.3676 66.6413 2.8523 65.992 2.41216C64.8649 1.64741 64.6504 1.61143 61.2276 1.61085C59.256 1.61026 57.6432 1.69274 57.6432 1.79392C57.6429 1.89482 58.0168 2.13258 58.4739 2.3218C58.9312 2.51101 60.0539 3.43427 60.9692 4.37333C62.9168 6.37164 63.9356 6.70386 65.8814 5.97596C67.9013 5.21997 72.0273 4.10749 71.926 4.34613C71.7227 4.82663 68.1754 7.87659 66.4886 9.02153L64.6899 10.2422L63.5192 9.58186C62.8755 9.21835 61.0113 7.8026 59.3768 6.4354C55.4337 3.13685 54.0459 2.23669 51.0309 1.02186C49.2317 0.296872 48.0434 0.00149781 46.926 0.00149781C46.061 0.00149781 45.3535 0.105902 45.3535 0.233411C45.3535 0.360919 44.794 0.619152 44.1099 0.80749C42.5132 1.24704 40.3204 2.93185 38.6886 4.97315C35.2048 9.33094 35.5147 9.0575 34.4921 8.67849C33.9844 8.49015 32.8748 7.67831 32.0266 6.87407C30.8228 5.73264 30.3702 5.04187 29.964 3.72614C29.6776 2.79878 29.2375 1.85797 28.9861 1.63542C28.0056 0.767424 26.2687 0.00149781 25.2812 0.00149781H24.2462L24.8513 0.850772C25.184 1.31811 25.4565 1.80299 25.4565 1.92845C25.4565 2.05391 25.7341 2.73006 26.0738 3.43106C26.5859 4.48856 27.0222 4.87401 28.6341 5.69287C29.7027 6.23594 30.8404 6.89454 31.1622 7.15628C31.7281 7.61719 31.7185 7.62742 30.8696 7.46891C27.0883 6.76236 24.8259 6.43598 23.7008 6.43423C20.752 6.42955 19.2562 5.58641 17.9535 3.19417C17.5248 2.4069 16.7448 1.55353 16.0788 1.14293C15.4517 0.756604 14.935 0.341617 14.9306 0.220835C14.9262 0.100053 14.6216 0.00149781 14.2535 0.00149781C13.613 0.00149781 13.5917 0.0757802 13.7502 1.73514C13.9808 4.14639 15.0629 5.23489 17.7127 5.72065C18.3509 5.83763 19.1327 6.11224 19.4502 6.3307C19.9938 6.70503 19.976 6.72785 19.1429 6.72785C18.6563 6.72785 18.1335 6.84307 17.9804 6.98432C17.4426 7.48003 14.1675 8.54776 12.0224 8.92648C9.58885 9.35639 8.81842 9.19203 7.62811 7.99006C6.53231 6.88372 5.32853 6.46639 3.74876 6.64479C2.99443 6.73018 1.91238 6.71264 1.34444 6.60619L0.311554 6.41258L0.218201 3.13393C0.166995 1.33068 0.0967804 13.8379 0.0625458 30.9275L-6.10352e-05 62L1.40648 60.9899C3.56063 59.4431 3.9729 58.3301 3.41081 55.576C3.07344 53.9225 3.00263 53.7947 2.8493 54.5604C2.74075 55.104 2.22255 55.7989 1.48343 56.3929L0.292542 57.3492L0.298676 50.3897L0.30481 43.4303L1.1329 45.0388C1.58849 45.9234 2.12715 47.3453 2.33022 48.1984C2.53328 49.0515 2.75977 49.689 2.83409 49.615C2.90812 49.5411 2.83761 49.0059 2.67726 48.4262C2.51721 47.8463 2.49759 47.4407 2.63365 47.5246C2.76971 47.6088 2.96283 48.0499 3.0629 48.5052C3.39705 50.0268 4.65262 51.0945 6.86237 51.7374C7.98128 52.0626 8.94659 52.2793 9.00716 52.2184C9.06773 52.1579 8.92492 51.8008 8.68996 51.425C8.4547 51.0492 8.17821 50.3786 8.07521 49.935C7.74691 48.521 6.43604 47.3573 4.83521 47.0584C2.29306 46.5838 0.585129 44.2948 0.585129 41.3627C0.585129 38.5792 2.6831 35.4763 6.74005 32.2599C9.03699 30.4385 10.0087 29.3442 10.8102 27.6754L11.6505 25.9254L12.1222 27.5128C13.6774 32.7468 12.4131 36.096 8.43657 37.2763C7.60031 37.5246 6.7339 37.7275 6.51123 37.7275C6.1961 37.7275 2.9245 40.736 2.92625 41.024C2.92655 41.0609 4.10719 41.0849 5.54973 41.0778C8.49859 41.0638 9.1593 40.7108 10.1114 38.6426C10.38 38.0589 11.1423 36.7505 11.8053 35.7348L13.0106 33.888L13.3634 35.7348C13.5574 36.7505 13.7242 38.6625 13.7342 39.9844L13.7523 42.3871L15.1167 43.9324C15.8672 44.782 16.5686 45.5137 16.6751 45.5579C16.7819 45.6023 16.8679 45.2075 16.8665 44.6805C16.8653 44.1538 16.9695 43.1718 17.0982 42.4986C17.3265 41.3057 17.2937 41.2337 15.8078 39.6636C14.1789 37.9419 13.7716 36.8949 13.7593 34.3983C13.7435 31.1632 14.7916 29.5907 18.8219 26.8016C23.5858 23.5051 23.4454 23.5566 21.9879 25.6382C20.3727 27.9448 20.2455 28.9584 21.1493 32.3172L21.8574 34.9493L22.4935 33.7795C22.8435 33.1361 23.5999 31.9841 24.1746 31.2197C25.4784 29.4857 25.6894 28.1115 25.0266 25.6651C24.607 24.1155 24.5813 23.594 24.8701 22.5064C25.606 19.7378 28.7123 15.3771 31.3709 13.3802C32.2074 12.752 33.5367 11.6986 34.325 11.0391C35.7508 9.84565 35.7634 9.84185 36.9713 10.2194C37.6387 10.4282 39.5345 10.661 41.1839 10.737C42.8333 10.8131 44.1819 10.9622 44.1808 11.0681C44.1775 11.3176 40.3278 13.279 38.6236 13.899C36.2181 14.7746 35.6203 15.7309 35.2461 19.3032L35.0468 21.2041L35.738 20.5748C36.1181 20.2288 37.0585 19.653 37.8277 19.2956C39.4163 18.5574 39.9673 17.9044 40.4129 16.2325C41.0955 13.6703 41.4271 13.298 44.2761 11.8992C48.2833 9.93134 51.9195 9.03732 56.1181 8.98702C59.311 8.94871 59.6595 9.00164 61.2273 9.75938C62.1528 10.2065 62.9097 10.6911 62.9097 10.8362C62.9097 10.9809 62.489 11.3173 61.9743 11.5831C61.2273 11.9691 60.5803 12.0282 58.7615 11.8767C55.8914 11.6375 54.881 12.0247 52.9422 14.1072C51.6214 15.5262 51.0877 16.3743 51.7873 15.9421C51.9465 15.8438 53.5728 15.6631 55.4012 15.5405L58.7258 15.3174L60.1593 14.1137C60.9478 13.4516 62.3412 12.6315 63.2556 12.2911L64.9185 11.6723L66.9131 12.6757C69.5147 13.9844 72.6716 14.9159 75.8794 15.3212L78.4616 15.6476L77.5619 16.8878C77.0671 17.5701 76.6621 18.177 76.6621 18.2366C76.6621 18.2963 77.4849 18.4285 78.4909 18.5302C81.038 18.7885 82.2687 18.3636 84.2525 16.5407C85.181 15.6876 87.0937 14.3479 88.5029 13.5639C89.9121 12.7798 92.3846 11.0526 93.9971 9.72546C95.61 8.39861 97.0291 7.31275 97.1505 7.31275C97.2722 7.31275 98.1091 8.02662 99.0103 8.89899C101.244 11.0614 102.068 11.6077 104.745 12.7032L107.05 13.646L106.12 14.1836C105.609 14.4792 104.759 15.094 104.23 15.5499L103.269 16.3787H105.747C108.799 16.3787 109.282 16.2009 111.239 14.3555C112.661 13.0143 116.146 10.7116 118.805 9.3558C120.052 8.72001 124.306 8.08043 125.626 8.33018C126.754 8.54337 128.78 9.00047 130.355 9.39616C130.999 9.55818 133.105 10.4385 135.037 11.3529C138.425 12.9576 138.629 13.0146 140.889 12.9939C142.176 12.9819 143.615 12.8749 144.085 12.7561C145.686 12.3522 144.372 13.3501 142.011 14.3327C138.926 15.6166 136.403 15.6245 133.713 14.359C130.973 13.0702 129.645 12.9655 126.99 13.8285C124.869 14.5181 124.822 14.5529 125.601 14.8685C126.044 15.0483 127.031 15.4812 127.795 15.8309C129.277 16.5091 129.435 16.5176 135.831 16.2524C140.281 16.0678 142.013 15.6022 144.771 13.8493C145.619 13.3103 146.367 12.8693 146.433 12.8693C146.5 12.8693 146.431 13.2963 146.281 13.8177C145.939 15.0112 145.926 17.256 146.262 17.256C146.401 17.256 147.116 16.6135 147.851 15.8283C149.159 14.4298 149.648 13.3103 149.938 11.0429C150.133 9.52074 150.414 9.09815 152.531 7.14137C154.915 4.93805 158.307 3.42287 160.858 3.4217C164.42 3.42024 169.762 5.75399 173.368 8.88642C173.793 9.66243 173.405 9.27474 173.937 9.79945L174.187 10.0579C174.224 10.0528 174.149 10.0501 174.181 10.0501L174.5 10.0579L175.5 10C175.813 9.95171 176.336 10.7034 177.5 11.5C179.684 12.3311 180 12.5 180.5 12.5C180.491 12.0572 179.475 12.1013 177.83 11.1184C176.905 10.566 176.147 9.97228 176.147 9.79945C176.147 9.6269 176.454 8.51559 177.5 8C179.175 7.17441 179.791 6 179 6ZM115.725 9.65527C114.768 9.63802 112.771 8.82091 111.89 8.08686C110.6 7.01152 109.187 6.09557 107.687 5.3621C105.549 4.3163 103.096 4.35052 100.544 5.46241C99.5589 5.89085 98.5822 6.39533 98.3727 6.58338C97.9806 6.93519 98.0713 7.03053 101.46 9.82635C104.235 12.1157 107.108 13.0731 109.719 12.5783C111.321 12.2747 115.151 10.7692 116.047 10.091C116.57 9.69563 116.551 9.66989 115.725 9.65527ZM96.0099 6.4547C95.5816 6.22542 94.7003 6.17541 93.3812 6.30525C91.6674 6.474 91.2227 6.41171 90.1172 5.84816C89.4132 5.48903 88.3771 5.03632 87.815 4.84184L86.7929 4.48797L88.6767 3.97501C89.7131 3.69309 90.923 3.39245 91.3654 3.30706C91.8079 3.22196 92.1684 3.06842 92.1666 2.96606C92.1622 2.74088 88.6796 1.33565 87.0495 0.901366C85.4423 0.47322 83.6548 0.508314 80.978 1.0201C77.4914 1.68689 73.0394 4.31075 70.3705 7.27122C69.7388 7.97222 68.4598 9.06277 67.5288 9.69475C66.5977 10.3267 65.8358 10.8926 65.8358 10.9523C65.8358 11.3111 70.1116 13.3132 71.967 13.823C73.7882 14.3236 75.0464 14.4321 79.1493 14.4427C83.9181 14.4547 84.2081 14.4216 86.1717 13.6417C87.9294 12.9439 90.7071 11.5202 90.7071 11.3173C90.7071 11.2813 89.6209 11.2541 88.2931 11.2564C86.098 11.2605 85.7299 11.1745 84.2341 10.3104C83.2413 9.73657 82.1868 9.3599 81.5741 9.3599C79.6274 9.3599 77.8706 8.6045 76.5697 7.20834L75.3378 5.88617L76.6917 5.70018C78.5886 5.4396 80.32 5.96923 81.1237 7.05627C82.7819 9.29906 86.6346 11.0672 88.9948 10.6686C90.2284 10.4604 94.707 8.32462 95.9485 7.35252L96.6548 6.7995L96.0099 6.4547ZM59.4834 7.39551C55.5171 4.11013 52.7046 3.45328 50.688 5.34134C50.1566 5.8388 49.718 5.94788 48.4934 5.88705C47.6516 5.84523 46.4689 5.80663 45.8656 5.80166C45.2619 5.79639 44.7683 5.6838 44.7683 5.55161C44.7683 5.41913 45.4574 4.70848 46.2995 3.97238C47.7616 2.69379 47.9114 2.63355 49.6276 2.63355C50.616 2.63355 51.9883 2.83241 52.6774 3.07544C54.6346 3.76562 54.3912 3.35619 52.1864 2.24956C49.6791 0.990856 48.1312 0.717708 46.1497 1.18446C42.857 1.96003 41.5365 2.91635 37.685 7.31275L36.0197 9.21367L36.9561 9.64474C37.5752 9.92988 39.1518 10.1109 41.614 10.1796C44.7323 10.2665 45.7283 10.1799 47.7587 9.64474C53.142 8.22548 57.1045 7.84091 59.4991 8.50536C60.1177 8.67702 60.6824 8.75891 60.7544 8.68726C60.8261 8.61532 60.2544 8.03422 59.4834 7.39551ZM31.7191 8.48839C28.5823 7.48412 23.5993 6.85184 21.1092 7.14225C18.7368 7.4192 16.6081 8.57379 14.5754 10.6867C11.9437 13.4223 10.5337 16.2936 10.5337 18.9166C10.5337 19.5515 11.192 22.3844 11.9967 25.2121C12.8013 28.0401 13.465 30.5982 13.4714 30.8968C13.4799 31.2931 13.6078 31.2027 13.9445 30.5625C14.6843 29.1558 16.0609 27.8536 18.7997 25.9708C21.6257 24.0283 24.0689 21.6981 25.1747 19.8913C25.5711 19.2435 26.523 17.8392 27.2899 16.7709C28.0568 15.7023 28.6218 14.7655 28.5455 14.6892C28.3758 14.5199 24.3876 16.5387 22.3999 17.8C20.6657 18.9005 19.3685 18.9777 17.361 18.0998C16.5832 17.7596 15.6176 17.3815 15.2153 17.2593L14.4838 17.0373L15.3616 16.6884C15.8444 16.4966 16.5028 16.1012 16.8246 15.8093C18.0018 14.7421 19.3246 14.5012 21.1274 15.0249C23.2821 15.6511 23.862 15.6289 26.4013 14.8229C29.6655 13.787 34.5272 10.6809 34.5272 9.63129C34.5272 9.49705 33.2634 8.98293 31.7191 8.48839ZM14.7477 8.7785C14.6026 8.78026 13.7596 8.9762 12.8745 9.21367C11.9894 9.45114 10.8149 9.64708 10.2645 9.64884C9.71408 9.65088 8.3719 10.0632 7.28166 10.5654C4.23917 11.9671 2.72552 11.4243 1.06705 8.33632L0.438828 7.16652L0.361282 16.2038C0.318855 21.1743 0.340522 25.2975 0.409576 25.3666C0.617618 25.5745 1.83397 24.8361 3 23.7941C3.60393 23.2542 4.30034 22.8126 4.54788 22.8126C5.39468 22.8126 7.25827 21.66 8.13959 20.5914C8.62414 20.0039 9.31701 18.5852 9.67955 17.4391C10.8116 13.8581 11.6242 12.3248 13.3459 10.5206C14.262 9.56052 14.8929 8.77646 14.7477 8.7785ZM10.2926 21.0924L9.78665 18.9335L8.73914 20.6537C8.163 21.5998 7.34867 23.1352 6.92966 24.0657C5.95265 26.2351 4.74567 26.8648 2.53973 26.3556C0.101467 25.7932 0.290477 25.2572 0.310959 32.6828C0.323248 37.0558 0.422152 39.1056 0.599762 38.6634C1.42432 36.6095 3.32449 34.462 6.80121 31.6542C7.90988 30.759 9.23392 29.4234 9.74364 28.6862C10.5424 27.5307 10.6794 27.0631 10.7344 25.2984C10.7704 24.1503 10.5761 22.3031 10.2926 21.0924Z" fill="white"/>
<path fill-rule="evenodd" clip-rule="evenodd" d="M1260.32 7.0203C1260.46 7.0203 1261.48 7.53208 1262.58 8.15734C1264.91 9.47687 1264.71 9.52279 1268.09 6.85448C1269.21 5.96718 1271.58 4.54295 1273.36 3.68988C1275.57 2.62653 1276.87 1.8024 1277.49 1.06982L1278.4 0.00149782H1281.36H1284.31L1283.1 1.13591L1281.88 2.27032L1283.77 2.48118C1284.8 2.59728 1287.02 3.20529 1288.7 3.83259C1292.12 5.10797 1293.89 5.2694 1296.13 4.5064C1297.64 3.9949 1299.34 4.05573 1301.83 4.70877C1303.76 5.2188 1303.72 5.63935 1301.6 6.83985C1300.22 7.62157 1299.7 7.75113 1297.94 7.74879C1296.17 7.74674 1295.58 7.59496 1293.55 6.6211C1289.86 4.84476 1284.93 3.20499 1283.4 3.24155L1282.43 3.26465L1283.31 3.57787C1284.77 4.09843 1287 5.65602 1289.16 7.66544C1290.29 8.71183 1291.94 9.96644 1292.82 10.454C1294.81 11.5477 1298.29 12.4069 1299.93 12.2084C1302.97 11.8425 1306.97 9.47746 1307.75 7.58736C1308.04 6.87758 1308.05 6.36638 1307.79 5.22056C1307.32 3.21055 1307.36 2.7166 1308.06 1.26371C1308.56 0.244816 1308.82 0.00149782 1309.45 0.00179027C1310.22 0.00208272 1310.23 0.038639 1310.33 2.20482C1310.41 4.15926 1310.33 4.55757 1309.64 5.73703C1309.21 6.46815 1308.92 7.1285 1309 7.20425C1309.08 7.28028 1310.24 6.28361 1311.59 4.98923C1313.29 3.3521 1314.7 2.3022 1316.23 1.53832C1317.44 0.934413 1318.47 0.341325 1318.52 0.220835C1318.67 -0.117529 1324.42 -0.046464 1324.42 0.293948C1324.42 0.454795 1324.65 0.590492 1324.93 0.595756C1325.74 0.610379 1326.33 1.20405 1327.16 2.84557C1328.07 4.64356 1328.1 4.78861 1327.42 4.42743C1327.14 4.27682 1326.26 4.05602 1325.46 3.9367C1324.33 3.76767 1323.72 3.4489 1322.68 2.49317C1321.95 1.81849 1321.11 1.1789 1320.81 1.07157C1320.17 0.838197 1317.13 1.58541 1315.64 2.34227C1314.61 2.86546 1308.8 8.46207 1309.03 8.69837C1309.22 8.88759 1311.95 8.00585 1313.18 7.35515C1313.81 7.02439 1314.78 6.35029 1315.32 5.85722C1315.87 5.36415 1316.63 4.88278 1317.01 4.78715C1317.9 4.56401 1322.08 4.94946 1322.08 5.25507C1322.08 5.38258 1321.7 5.6452 1321.23 5.83851C1320.76 6.03181 1320.1 6.48628 1319.76 6.84834L1319.15 7.50693L1319.85 7.82746C1320.24 8.00351 1321.34 8.30357 1322.31 8.49366C1324.58 8.93906 1326.34 8.41996 1328.37 6.71235C1328.69 6.44154 1330.04 5.65689 1331.36 4.96905C1333.08 4.07182 1334.07 3.3249 1334.87 2.32794C1336.34 0.492814 1337.5 0.00120537 1340.39 0.00266762L1342.71 0.00354497L1341.83 0.539898C1341.35 0.834688 1340.78 1.4035 1340.57 1.80357C1340.35 2.20394 1339.66 2.86692 1339.03 3.27664C1337.67 4.15487 1337.74 4.24699 1340.62 5.37614L1342.62 6.16371L1344.48 4.53242C1345.66 3.49627 1347.28 2.47387 1348.91 1.72958C1350.33 1.08532 1351.72 0.432861 1352 0.279618C1352.68 -0.095888 1360.91 -0.0830202 1361.14 0.293948C1361.24 0.454795 1361.54 0.586398 1361.79 0.586398C1362.05 0.586398 1363.26 1.17101 1364.48 1.88546C1367.48 3.63841 1368.91 3.99929 1371.11 3.5571C1372.06 3.3676 1373.36 2.8523 1374.01 2.41216C1375.14 1.64741 1375.35 1.61143 1378.77 1.61085C1380.74 1.61026 1382.36 1.69274 1382.36 1.79392C1382.36 1.89482 1381.98 2.13258 1381.53 2.3218C1381.07 2.51101 1379.95 3.43427 1379.03 4.37333C1377.08 6.37164 1376.06 6.70387 1374.12 5.97596C1372.1 5.21997 1367.97 4.10749 1368.07 4.34613C1368.28 4.82663 1371.82 7.87659 1373.51 9.02153L1375.31 10.2422L1376.48 9.58186C1377.12 9.21835 1378.99 7.8026 1380.62 6.4354C1384.57 3.13685 1385.95 2.23669 1388.97 1.02186C1390.77 0.296872 1391.96 0.00149782 1393.07 0.00149782C1393.94 0.00149782 1394.65 0.105902 1394.65 0.233411C1394.65 0.360919 1395.21 0.619152 1395.89 0.80749C1397.49 1.24704 1399.68 2.93185 1401.31 4.97315C1404.8 9.33094 1404.49 9.0575 1405.51 8.67849C1406.02 8.49015 1407.13 7.67831 1407.97 6.87407C1409.18 5.73264 1409.63 5.04187 1410.04 3.72614C1410.32 2.79878 1410.76 1.85797 1411.01 1.63542C1411.99 0.767424 1413.73 0.00149782 1414.72 0.00149782H1415.75L1415.15 0.850772C1414.82 1.31811 1414.54 1.80299 1414.54 1.92845C1414.54 2.05391 1414.27 2.73006 1413.93 3.43106C1413.41 4.48856 1412.98 4.87401 1411.37 5.69287C1410.3 6.23594 1409.16 6.89454 1408.84 7.15628C1408.27 7.61719 1408.28 7.62742 1409.13 7.46891C1412.91 6.76235 1415.17 6.43598 1416.3 6.43423C1419.25 6.42955 1420.74 5.58641 1422.05 3.19417C1422.48 2.4069 1423.26 1.55353 1423.92 1.14293C1424.55 0.756604 1425.06 0.341617 1425.07 0.220835C1425.07 0.100053 1425.38 0.00149782 1425.75 0.00149782C1426.39 0.00149782 1426.41 0.0757802 1426.25 1.73514C1426.02 4.14639 1424.94 5.23489 1422.29 5.72065C1421.65 5.83763 1420.87 6.11224 1420.55 6.3307C1420.01 6.70503 1420.02 6.72785 1420.86 6.72785C1421.34 6.72785 1421.87 6.84307 1422.02 6.98432C1422.56 7.48003 1425.83 8.54776 1427.98 8.92648C1430.41 9.35639 1431.18 9.19203 1432.37 7.99006C1433.47 6.88372 1434.67 6.46639 1436.25 6.64479C1437.01 6.73018 1438.09 6.71264 1438.66 6.60619L1439.69 6.41258L1439.78 3.13393C1439.83 1.33068 1439.9 13.8379 1439.94 30.9275L1440 62L1438.59 60.9899C1436.44 59.4431 1436.03 58.3301 1436.59 55.5761C1436.93 53.9225 1437 53.7947 1437.15 54.5604C1437.26 55.104 1437.78 55.7989 1438.52 56.3929L1439.71 57.3492L1439.7 50.3897L1439.7 43.4303L1438.87 45.0388C1438.41 45.9234 1437.87 47.3453 1437.67 48.1984C1437.47 49.0515 1437.24 49.689 1437.17 49.615C1437.09 49.5411 1437.16 49.0059 1437.32 48.4262C1437.48 47.8463 1437.5 47.4407 1437.37 47.5246C1437.23 47.6088 1437.04 48.0498 1436.94 48.5052C1436.6 50.0268 1435.35 51.0945 1433.14 51.7374C1432.02 52.0626 1431.05 52.2793 1430.99 52.2184C1430.93 52.1579 1431.08 51.8008 1431.31 51.425C1431.55 51.0492 1431.82 50.3786 1431.92 49.935C1432.25 48.521 1433.56 47.3573 1435.16 47.0584C1437.71 46.5838 1439.41 44.2948 1439.41 41.3627C1439.41 38.5792 1437.32 35.4763 1433.26 32.2599C1430.96 30.4385 1429.99 29.3442 1429.19 27.6754L1428.35 25.9254L1427.88 27.5128C1426.32 32.7468 1427.59 36.096 1431.56 37.2763C1432.4 37.5246 1433.27 37.7275 1433.49 37.7275C1433.8 37.7275 1437.08 40.736 1437.07 41.024C1437.07 41.0609 1435.89 41.0849 1434.45 41.0778C1431.5 41.0638 1430.84 40.7108 1429.89 38.6426C1429.62 38.0589 1428.86 36.7505 1428.19 35.7348L1426.99 33.888L1426.64 35.7348C1426.44 36.7505 1426.28 38.6625 1426.27 39.9844L1426.25 42.3871L1424.88 43.9324C1424.13 44.782 1423.43 45.5137 1423.32 45.5579C1423.22 45.6023 1423.13 45.2075 1423.13 44.6805C1423.13 44.1538 1423.03 43.1718 1422.9 42.4986C1422.67 41.3057 1422.71 41.2337 1424.19 39.6636C1425.82 37.9419 1426.23 36.8949 1426.24 34.3983C1426.26 31.1632 1425.21 29.5907 1421.18 26.8016C1416.41 23.5051 1416.55 23.5566 1418.01 25.6382C1419.63 27.9448 1419.75 28.9584 1418.85 32.3172L1418.14 34.9493L1417.51 33.7795C1417.16 33.1361 1416.4 31.9841 1415.83 31.2197C1414.52 29.4857 1414.31 28.1115 1414.97 25.6651C1415.39 24.1155 1415.42 23.594 1415.13 22.5064C1414.39 19.7378 1411.29 15.3771 1408.63 13.3802C1407.79 12.752 1406.46 11.6986 1405.67 11.0391C1404.25 9.84565 1404.24 9.84185 1403.03 10.2194C1402.36 10.4282 1400.47 10.661 1398.82 10.737C1397.17 10.8131 1395.82 10.9622 1395.82 11.0681C1395.82 11.3176 1399.67 13.279 1401.38 13.899C1403.78 14.7746 1404.38 15.7309 1404.75 19.3032L1404.95 21.2041L1404.26 20.5748C1403.88 20.2288 1402.94 19.653 1402.17 19.2956C1400.58 18.5574 1400.03 17.9044 1399.59 16.2325C1398.9 13.6703 1398.57 13.298 1395.72 11.8992C1391.72 9.93134 1388.08 9.03732 1383.88 8.98702C1380.69 8.94871 1380.34 9.00164 1378.77 9.75938C1377.85 10.2065 1377.09 10.6911 1377.09 10.8362C1377.09 10.9809 1377.51 11.3173 1378.03 11.5831C1378.77 11.9691 1379.42 12.0282 1381.24 11.8767C1384.11 11.6375 1385.12 12.0247 1387.06 14.1072C1388.38 15.5262 1388.91 16.3743 1388.21 15.9421C1388.05 15.8438 1386.43 15.6631 1384.6 15.5405L1381.27 15.3174L1379.84 14.1137C1379.05 13.4516 1377.66 12.6315 1376.74 12.2911L1375.08 11.6723L1373.09 12.6757C1370.49 13.9844 1367.33 14.9159 1364.12 15.3212L1361.54 15.6476L1362.44 16.8878C1362.93 17.5701 1363.34 18.177 1363.34 18.2366C1363.34 18.2963 1362.52 18.4285 1361.51 18.5302C1358.96 18.7885 1357.73 18.3636 1355.75 16.5407C1354.82 15.6876 1352.91 14.3479 1351.5 13.5639C1350.09 12.7798 1347.62 11.0526 1346 9.72546C1344.39 8.39861 1342.97 7.31275 1342.85 7.31275C1342.73 7.31275 1341.89 8.02662 1340.99 8.89899C1338.76 11.0614 1337.93 11.6077 1335.25 12.7032L1332.95 13.646L1333.88 14.1836C1334.39 14.4792 1335.24 15.094 1335.77 15.5499L1336.73 16.3787H1334.25C1331.2 16.3787 1330.72 16.2009 1328.76 14.3555C1327.34 13.0144 1323.85 10.7116 1321.19 9.3558C1319.95 8.72001 1315.69 8.08043 1314.37 8.33018C1313.25 8.54337 1311.22 9.00047 1309.65 9.39616C1309 9.55818 1306.89 10.4385 1304.96 11.3529C1301.57 12.9576 1301.37 13.0146 1299.11 12.9939C1297.82 12.9819 1296.39 12.8749 1295.91 12.7561C1294.31 12.3522 1295.63 13.3501 1297.99 14.3327C1301.07 15.6166 1303.6 15.6245 1306.29 14.359C1309.03 13.0702 1310.35 12.9655 1313.01 13.8285C1315.13 14.5181 1315.18 14.5529 1314.4 14.8685C1313.96 15.0483 1312.97 15.4812 1312.2 15.8309C1310.72 16.5091 1310.56 16.5176 1304.17 16.2524C1299.72 16.0678 1297.99 15.6022 1295.23 13.8493C1294.38 13.3103 1293.63 12.8693 1293.57 12.8693C1293.5 12.8693 1293.57 13.2963 1293.72 13.8177C1294.06 15.0112 1294.07 17.256 1293.74 17.256C1293.6 17.256 1292.88 16.6135 1292.15 15.8283C1290.84 14.4298 1290.35 13.3103 1290.06 11.0429C1289.87 9.52074 1289.59 9.09815 1287.47 7.14137C1285.08 4.93805 1281.69 3.42287 1279.14 3.4217C1275.58 3.42024 1270.24 5.75399 1266.63 8.88642C1266.21 9.66243 1266.59 9.27474 1266.06 9.79945L1265.81 10.0579C1265.78 10.0528 1265.85 10.0501 1265.82 10.0501L1265.47 10.3477L1265.08 10.6712C1264.77 10.6229 1264.01 11.0076 1262.84 11.8042C1260.99 13.0731 1260.04 13.4589 1260.05 12.9424C1260.06 12.4996 1260.52 12.1013 1262.17 11.1184C1263.1 10.566 1263.85 9.97228 1263.85 9.79945C1263.85 9.6269 1263 9.06364 1261.95 8.54805C1260.28 7.72247 1259.52 7.0203 1260.32 7.0203ZM1324.28 9.65527C1325.23 9.63801 1327.23 8.82091 1328.11 8.08686C1329.4 7.01152 1330.81 6.09557 1332.31 5.3621C1334.45 4.3163 1336.9 4.35052 1339.46 5.46241C1340.44 5.89085 1341.42 6.39533 1341.63 6.58338C1342.02 6.93519 1341.93 7.03053 1338.54 9.82635C1335.76 12.1157 1332.89 13.0731 1330.28 12.5783C1328.68 12.2747 1324.85 10.7692 1323.95 10.091C1323.43 9.69563 1323.45 9.66989 1324.28 9.65527ZM1343.99 6.4547C1344.42 6.22542 1345.3 6.17541 1346.62 6.30526C1348.33 6.474 1348.78 6.41171 1349.88 5.84816C1350.59 5.48903 1351.62 5.03632 1352.18 4.84184L1353.21 4.48797L1351.32 3.97501C1350.29 3.69309 1349.08 3.39245 1348.63 3.30706C1348.19 3.22196 1347.83 3.06842 1347.83 2.96606C1347.84 2.74088 1351.32 1.33565 1352.95 0.901366C1354.56 0.47322 1356.35 0.508314 1359.02 1.0201C1362.51 1.68689 1366.96 4.31075 1369.63 7.27122C1370.26 7.97222 1371.54 9.06277 1372.47 9.69475C1373.4 10.3267 1374.16 10.8926 1374.16 10.9523C1374.16 11.3111 1369.89 13.3132 1368.03 13.823C1366.21 14.3236 1364.95 14.4321 1360.85 14.4427C1356.08 14.4547 1355.79 14.4216 1353.83 13.6417C1352.07 12.9439 1349.29 11.5202 1349.29 11.3173C1349.29 11.2813 1350.38 11.2541 1351.71 11.2564C1353.9 11.2605 1354.27 11.1745 1355.77 10.3104C1356.76 9.73657 1357.81 9.3599 1358.43 9.3599C1360.37 9.3599 1362.13 8.6045 1363.43 7.20834L1364.66 5.88617L1363.31 5.70018C1361.41 5.4396 1359.68 5.96923 1358.88 7.05627C1357.22 9.29906 1353.37 11.0672 1351.01 10.6686C1349.77 10.4604 1345.29 8.32462 1344.05 7.35252L1343.35 6.7995L1343.99 6.4547ZM1380.52 7.39551C1384.48 4.11013 1387.3 3.45328 1389.31 5.34134C1389.84 5.8388 1390.28 5.94788 1391.51 5.88705C1392.35 5.84523 1393.53 5.80663 1394.13 5.80166C1394.74 5.79639 1395.23 5.6838 1395.23 5.55161C1395.23 5.41913 1394.54 4.70848 1393.7 3.97238C1392.24 2.69379 1392.09 2.63355 1390.37 2.63355C1389.38 2.63355 1388.01 2.83241 1387.32 3.07544C1385.37 3.76562 1385.61 3.35619 1387.81 2.24956C1390.32 0.990856 1391.87 0.717708 1393.85 1.18446C1397.14 1.96003 1398.46 2.91635 1402.31 7.31275L1403.98 9.21367L1403.04 9.64474C1402.42 9.92988 1400.85 10.1109 1398.39 10.1796C1395.27 10.2665 1394.27 10.1799 1392.24 9.64474C1386.86 8.22548 1382.9 7.84091 1380.5 8.50536C1379.88 8.67702 1379.32 8.75891 1379.25 8.68726C1379.17 8.61532 1379.75 8.03422 1380.52 7.39551ZM1408.28 8.48839C1411.42 7.48412 1416.4 6.85184 1418.89 7.14225C1421.26 7.4192 1423.39 8.57379 1425.42 10.6867C1428.06 13.4223 1429.47 16.2936 1429.47 18.9166C1429.47 19.5515 1428.81 22.3844 1428 25.2121C1427.2 28.0401 1426.53 30.5982 1426.53 30.8968C1426.52 31.2931 1426.39 31.2027 1426.06 30.5625C1425.32 29.1558 1423.94 27.8536 1421.2 25.9708C1418.37 24.0283 1415.93 21.6981 1414.83 19.8913C1414.43 19.2435 1413.48 17.8392 1412.71 16.7709C1411.94 15.7023 1411.38 14.7655 1411.45 14.6892C1411.62 14.5199 1415.61 16.5387 1417.6 17.8C1419.33 18.9005 1420.63 18.9777 1422.64 18.0998C1423.42 17.7596 1424.38 17.3815 1424.78 17.2593L1425.52 17.0373L1424.64 16.6884C1424.16 16.4966 1423.5 16.1012 1423.18 15.8093C1422 14.7421 1420.68 14.5012 1418.87 15.0249C1416.72 15.6511 1416.14 15.6289 1413.6 14.8229C1410.33 13.787 1405.47 10.6809 1405.47 9.63129C1405.47 9.49705 1406.74 8.98293 1408.28 8.48839ZM1425.25 8.7785C1425.4 8.78026 1426.24 8.9762 1427.13 9.21367C1428.01 9.45114 1429.19 9.64708 1429.74 9.64884C1430.29 9.65088 1431.63 10.0632 1432.72 10.5654C1435.76 11.9671 1437.27 11.4243 1438.93 8.33632L1439.56 7.16652L1439.64 16.2038C1439.68 21.1743 1439.66 25.2975 1439.59 25.3666C1439.38 25.5745 1438.17 24.8361 1437 23.7941C1436.4 23.2542 1435.7 22.8126 1435.45 22.8126C1434.61 22.8126 1432.74 21.66 1431.86 20.5914C1431.38 20.0039 1430.68 18.5852 1430.32 17.4391C1429.19 13.8581 1428.38 12.3248 1426.65 10.5206C1425.74 9.56052 1425.11 8.77646 1425.25 8.7785ZM1429.71 21.0924L1430.21 18.9335L1431.26 20.6537C1431.84 21.5998 1432.65 23.1352 1433.07 24.0657C1434.05 26.2351 1435.25 26.8648 1437.46 26.3556C1439.9 25.7932 1439.71 25.2572 1439.69 32.6828C1439.68 37.0558 1439.58 39.1056 1439.4 38.6634C1438.58 36.6095 1436.68 34.462 1433.2 31.6542C1432.09 30.759 1430.77 29.4234 1430.26 28.6862C1429.46 27.5307 1429.32 27.0631 1429.27 25.2984C1429.23 24.1503 1429.42 22.3031 1429.71 21.0924Z" fill="white"/>
</svg>
