<svg width="486" height="460" viewBox="0 0 486 460" fill="none" xmlns="http://www.w3.org/2000/svg">
<path d="M279.794 6.4097C286.273 13.9477 287.191 25.3456 282.976 33.9374C281.139 37.6759 278.293 40.9389 274.696 43.4275C271.1 45.9161 266.87 47.5507 262.392 48.1817C263.475 49.2435 264.414 50.483 265.399 51.5933C265.447 51.6389 265.481 51.6948 265.498 51.7557C265.516 51.8167 265.515 51.8806 265.497 51.9414C265.479 52.0022 265.444 52.0578 265.396 52.1029C265.347 52.148 265.287 52.1811 265.22 52.199C264.285 52.4274 263.334 52.5974 262.374 52.7077C256.794 58.8366 256.964 67.4284 258.078 74.9139C258.973 81.063 262.705 89.0452 259.353 95.061C259.743 95.1461 260.107 95.3089 260.418 95.5375C262.038 92.4811 266.365 88.2458 270.263 89.6387C275.633 91.5484 273.816 97.9398 271.605 101.303C274.973 101.376 278.359 101.339 281.763 101.194C281.853 101.184 281.943 101.206 282.016 101.253C282.089 101.301 282.139 101.372 282.157 101.452C282.227 101.449 282.297 101.459 282.363 101.483C282.428 101.507 282.487 101.544 282.535 101.59C282.583 101.637 282.618 101.693 282.64 101.753C282.661 101.814 282.667 101.878 282.658 101.941C282.407 103.403 282.13 104.872 281.794 106.326C282.184 106.447 282.295 107.016 281.794 107.081L281.593 107.105C281.591 107.12 281.591 107.135 281.593 107.149C281.573 107.201 281.537 107.246 281.488 107.279C281.44 107.312 281.381 107.331 281.321 107.333C281.26 107.335 281.2 107.321 281.149 107.291C281.098 107.262 281.058 107.22 281.034 107.17L279.991 107.291C277.346 116.016 274.72 124.749 271.936 133.442C271.924 133.484 271.901 133.524 271.869 133.558C271.838 133.591 271.798 133.618 271.753 133.635C271.746 133.711 271.709 133.781 271.647 133.833C271.586 133.884 271.506 133.913 271.422 133.914C267.072 134.225 262.562 133.861 258.199 133.797C253.836 133.732 249.379 133.66 244.971 133.583C244.884 133.582 244.8 133.555 244.73 133.507C244.661 133.459 244.611 133.392 244.587 133.316C242.484 123.885 240.331 114.461 238.371 105.001C237.1 104.644 235.85 104.228 234.626 103.754C234.447 103.681 234.59 103.467 234.751 103.487L234.948 103.52C234.569 101.284 234.795 98.9981 235.606 96.8577C235.627 96.8072 235.658 96.7609 235.699 96.7216C235.74 96.6824 235.79 96.6509 235.844 96.6291C235.899 96.6072 235.958 96.5955 236.017 96.5946C236.077 96.5936 236.137 96.6035 236.192 96.6236H236.223C239.207 97.3449 242.19 97.9855 245.173 98.5454C244.077 95.7192 243.683 88.8312 247.97 88.2619C252.256 87.6926 255.796 92.5618 257.416 95.4769C257.726 95.2402 258.102 95.0852 258.503 95.0287C260.034 90.7853 259.787 86.9537 258.807 82.5609C257.957 78.7536 257.071 74.9906 256.776 71.1066C256.328 65.0059 256.525 57.5083 261.474 52.7965C260.451 52.878 259.422 52.8929 258.396 52.8409C258.337 52.8402 258.279 52.8274 258.226 52.8034C258.173 52.7794 258.127 52.7449 258.091 52.7025C258.055 52.6601 258.031 52.6109 258.019 52.5586C258.008 52.5064 258.009 52.4524 258.024 52.4008C258.642 50.9242 259.543 49.5574 260.687 48.3633L260.271 48.3956C260.178 48.405 260.085 48.3816 260.01 48.3305C259.936 48.2793 259.887 48.2043 259.872 48.1211C248.748 45.8238 242.421 32.9764 242.058 23.6498C241.7 14.9207 246.565 5.84848 255.483 1.89577C263.586 -1.71376 274.151 -0.1472 279.794 6.4097ZM283.396 30.5055C286.081 22.2932 284.479 11.4202 277.427 5.23074C270.871 -0.52673 260.042 -0.478277 252.856 4.24963C244.801 9.54683 241.691 18.9946 243.459 27.6227C245.128 35.7623 250.896 45.1616 260.239 47.6124C260.256 47.6105 260.272 47.6105 260.289 47.6124C271.117 46.9623 280.367 39.8119 283.396 30.5055ZM281.794 101.969H281.772C275.947 102.316 270.102 102.297 264.28 101.913C263.98 103.685 263.716 105.458 263.466 107.226C268.757 107.327 274.05 107.096 279.306 106.536C279.339 106.475 279.388 106.422 279.449 106.383C279.51 106.344 279.581 106.319 279.656 106.311C279.73 106.303 279.805 106.312 279.875 106.337C279.944 106.362 280.006 106.403 280.054 106.455L281.123 106.334C281.293 104.888 281.535 103.407 281.794 101.965V101.969ZM271.296 133.284C273.775 124.636 276.416 116.024 279.038 107.412C273.827 107.958 268.58 108.175 263.336 108.062C262.19 116.355 261.497 124.652 260.848 133.009C264.334 132.922 267.822 133.014 271.296 133.284ZM270.903 101.129C272.245 97.8994 275.024 92.8445 270.379 90.535C266.629 88.6697 262.745 93.3209 260.799 95.8685C261.071 96.1427 261.288 96.4568 261.443 96.7972C261.985 98.0084 261.644 99.5467 261.027 100.738C264.308 101.026 267.597 101.212 270.894 101.295C270.877 101.238 270.88 101.177 270.903 101.121V101.129ZM262.548 107.23C262.829 105.437 263.127 103.65 263.443 101.868C260.942 101.691 258.449 101.465 255.966 101.142C256.087 103.043 256.1 104.957 256.069 106.879C256.722 106.931 257.371 106.984 258.02 107.028C259.532 107.117 261.04 107.182 262.548 107.222V107.23ZM264.405 51.6458C263.355 50.5834 262.374 49.4657 261.47 48.2987L261.179 48.327C260.254 49.5167 259.502 50.8085 258.942 52.1707C260.781 52.2108 262.618 52.0316 264.405 51.6377V51.6458ZM260.266 100.665C260.548 99.7567 261 98.9007 260.933 97.9236C260.877 97.3295 260.619 96.7654 260.195 96.3086C260.17 96.2958 260.151 96.2759 260.141 96.2521C259.845 95.9319 259.42 95.7302 258.96 95.6909C258.902 95.7434 258.826 95.7762 258.744 95.7836C258.662 95.7909 258.58 95.7724 258.512 95.7313C258.388 95.7568 258.268 95.7948 258.154 95.8443C256.132 96.7568 257.147 98.9976 258.047 100.447C258.793 100.536 259.532 100.606 260.266 100.657V100.665ZM260.329 133.022C260.389 124.659 261.095 116.311 262.441 108.038C260.834 107.993 259.233 107.92 257.626 107.807L256.078 107.698C256.011 110.791 255.863 113.896 255.899 116.985C255.957 122.298 256.136 127.611 256.302 132.925C256.309 132.954 256.309 132.984 256.302 133.014H256.915C258.024 133.022 259.174 133.018 260.329 133.014V133.022ZM257.031 95.8564C255.514 93.3855 253.227 90.4583 250.198 89.3964C244.309 87.309 245.423 95.9049 245.947 98.6827V98.715C249.759 99.4094 253.587 99.972 257.429 100.403C256.718 99.4579 256.158 98.4081 256.382 97.2372C256.469 96.7333 256.692 96.2563 257.031 95.8484V95.8564ZM249.831 132.921L255.796 133.001C255.782 132.975 255.773 132.946 255.769 132.917C255.348 127.611 255.156 122.298 255.093 116.977C255.053 113.904 254.923 110.755 254.95 107.622C249.648 107.218 244.05 106.56 238.913 105.159C240.922 113.424 242.779 121.713 244.658 129.998C244.936 131.209 244.837 132.553 246.305 132.88C247.348 133.106 248.753 132.9 249.831 132.913V132.921ZM254.959 106.79C254.995 104.86 255.102 102.938 255.344 101.057C248.926 100.223 242.594 98.919 236.411 97.1565C235.695 99.1884 235.408 101.324 235.566 103.451C235.57 103.511 235.547 103.571 235.503 103.617C236.434 103.762 237.364 103.927 238.286 104.113C238.31 104.082 238.344 104.057 238.384 104.043C238.423 104.028 238.466 104.024 238.508 104.032C238.55 104.039 238.588 104.057 238.619 104.084C238.649 104.11 238.67 104.144 238.68 104.182C241.177 104.682 243.66 105.26 246.171 105.668C249.085 106.141 252.015 106.513 254.959 106.782V106.79Z" fill="#50735F"/>
<path opacity="0.8" d="M150.366 26.6695C149.43 26.0635 148.418 25.5613 147.351 25.1736C144.551 24.0405 141.543 23.3915 138.481 23.2598C136.88 23.1877 135.282 23.4513 133.812 24.0301C133.673 22.3444 131.651 20.7719 130.154 20.0782C128.017 19.0878 125.36 18.8661 122.995 18.8933C122.727 18.8933 122.458 18.9108 122.191 18.9299C121.04 18.8941 119.887 18.9512 118.747 19.1006C115.73 19.4807 112.816 20.3584 110.146 21.6905C109.167 22.1817 106.986 23.0413 106.618 24.2422C105.608 23.4177 104.318 22.9169 103.032 22.5613C102.475 22.4062 101.906 22.2889 101.331 22.2104C99.965 21.5326 98.387 21.0718 96.8282 21.2791C95.4643 21.4593 93.9617 22.3444 93.0051 23.2152C92.0484 24.0859 91.7061 25.2996 91.5464 26.4956C91.3357 28.0585 91.2199 29.513 91.5973 31.0647C91.5973 31.1668 91.6131 31.2673 91.6218 31.3694C91.0812 33.5223 91.42 35.8651 92.7734 37.7661C92.9682 38.0388 93.5159 37.8681 93.3772 37.5348C93.163 37.0181 93.1876 36.4839 93.1156 35.94C93.0437 35.3962 92.826 34.8237 92.7014 34.2862L92.6645 34.1267C92.6961 34.1953 92.726 34.2655 92.7576 34.3341C92.944 34.9242 93.1679 35.5041 93.4281 36.0708C93.6335 36.5174 93.902 37.0452 94.3058 37.3721C94.4338 37.4634 94.5714 37.543 94.7165 37.6098C94.8183 37.7788 94.9131 37.9511 95.029 38.1105L94.5182 38.3274C90.7003 38.3386 88.8221 41.8775 88.9923 45.0862C88.9467 45.2919 88.9063 45.4961 88.8712 45.7034C88.8484 45.8485 88.8273 45.9936 88.8098 46.1404C88.7167 46.5059 88.647 46.8759 88.6009 47.2487C88.1568 50.9168 90.3053 54.7523 93.7142 56.7266C95.1501 57.5591 97.4005 58.567 99.1558 58.2895C99.5701 58.2241 99.9317 58.0312 100.33 57.9227C100.681 57.827 101.101 58.3533 101.29 58.5431C101.403 58.6531 101.508 58.7679 101.612 58.8828C101.633 58.9194 101.654 58.9561 101.676 58.9928C101.709 59.0959 101.752 59.1958 101.806 59.291C102.366 60.2479 103.004 61.1617 103.532 62.1282C103.994 62.99 104.649 63.7552 105.454 64.3752C106.937 65.4916 108.891 66.0912 110.759 66.4022C114.731 67.0625 118.724 65.7133 121.619 63.235C123.173 61.9065 124.219 60.2272 125.079 58.4745C125.11 58.4107 125.14 58.3453 125.172 58.2799C125.807 57.6623 126.389 57.0006 126.911 56.3008C127.385 55.6541 127.796 54.9717 128.14 54.261C128.651 54.9117 129.529 55.4029 130.422 55.7761C131.561 56.776 132.736 57.5974 134.384 57.8621C136.339 58.1811 138.383 57.7122 140.185 57.0376C143.887 55.6533 146.764 52.9613 147.909 49.448C148.492 47.6124 148.43 45.6574 147.733 43.855C147.693 43.7481 147.651 43.6397 147.607 43.536C149.348 43.8263 151.293 43.6764 152.896 43.0305C154.283 42.4691 155.029 41.4357 155.367 40.2221C155.448 40.1503 155.525 40.0769 155.603 40.0036C160.512 35.2925 155.115 29.5289 150.366 26.6695ZM143.619 24.8307L143.719 24.8562C146.612 25.6026 149.262 26.7492 151.579 28.4158C152.617 29.4277 153.324 30.6824 153.621 32.0392C152.217 29.8814 150.11 28.0761 147.579 27.1288C145.59 26.3856 143.341 26.3314 141.232 26.5132C140.233 26.6074 139.241 26.7506 138.26 26.9422C136.936 27.191 135.751 27.6694 134.386 27.3409C134.14 27.2819 133.901 27.2197 133.662 27.1655C134.037 26.9236 134.427 26.7031 134.832 26.5052C135.549 26.1122 136.296 25.7642 137.066 25.4638C138.468 24.9588 139.962 24.696 141.47 24.6888C142.19 24.6827 142.908 24.7301 143.619 24.8307ZM131.507 23.9201C130.361 22.2312 128.066 21.6076 126.053 21.2089C123.449 20.7228 120.774 20.636 118.138 20.9521C117.333 21.0422 116.539 21.1975 115.765 21.4162C117.733 20.3908 119.881 19.6747 122.146 19.4738C124.221 19.5621 126.246 20.0838 128.063 20.9984C129.134 21.5406 130.01 22.2567 130.871 23.0318C131.481 23.574 132.153 24.1673 132.959 24.4671C132.574 24.7479 132.221 25.0631 131.905 25.408C131.811 25.5021 131.131 24.853 130.792 24.5325C130.869 24.5535 130.951 24.5535 131.028 24.5325L131.24 24.483C131.303 24.4679 131.361 24.4401 131.41 24.4015C131.46 24.363 131.499 24.3149 131.525 24.2607C131.55 24.2065 131.562 24.1477 131.56 24.0887C131.557 24.0297 131.539 23.972 131.509 23.9201H131.507ZM130.55 24.3108C130.191 24.0336 129.801 23.79 129.388 23.5836C127.658 22.6934 125.793 22.0405 123.854 21.6459C124.426 21.7049 124.996 21.783 125.562 21.8803C127.278 22.1785 129.423 22.6777 130.541 24.0046C130.502 24.1041 130.506 24.2137 130.552 24.3108H130.55ZM128.841 20.1643C129.899 20.4715 130.862 21.0035 131.649 21.7161C132.269 22.2854 133.031 23.1115 133.18 23.9488C132.139 23.5644 131.326 22.6315 130.547 21.9457C129.567 21.119 128.439 20.4503 127.212 19.9682C126.848 19.8204 126.482 19.6891 126.114 19.5742C127.041 19.6978 127.953 19.8936 128.842 20.1595L128.841 20.1643ZM108.793 22.8994C109.605 22.4433 110.474 22.043 111.333 21.6634C113.607 20.6746 116.034 20.0057 118.53 19.6795C117.363 20.0679 116.238 20.5516 115.168 21.1244C114.271 21.5829 113.423 22.1168 112.635 22.7192C112.261 22.9313 111.896 23.1609 111.543 23.4081C110.437 24.1816 108.91 25.1512 108.431 26.4382C108.117 25.7174 107.453 25.0252 106.951 24.5436L106.914 24.5085C107.088 23.7829 108.187 23.2359 108.794 22.8946L108.793 22.8994ZM106.83 25.2007C107.239 25.5907 107.577 26.0383 107.829 26.526L107.669 26.4255C107.525 26.2102 107.395 25.9885 107.266 25.8067C107.115 25.5983 106.938 25.4062 106.739 25.2342C106.774 25.2316 106.807 25.2181 106.832 25.1959L106.83 25.2007ZM105.993 25.3011C106.17 25.4371 106.334 25.5871 106.483 25.7493C106.186 25.5898 105.882 25.4463 105.575 25.3091C105.493 25.2121 105.404 25.1194 105.31 25.0316C105.043 24.7924 104.769 24.5532 104.492 24.3283C105.02 24.6146 105.523 24.9383 105.995 25.2964L105.993 25.3011ZM100.706 22.6873L100.851 22.7543C99.5911 22.6745 98.3027 22.9137 97.0968 23.2327C98.1939 22.7032 99.4419 22.5756 100.708 22.6825L100.706 22.6873ZM98.7556 22.2088C97.5599 22.3685 96.4565 22.8846 95.6188 23.6761C95.2344 23.8068 94.8534 23.9456 94.4743 24.0843C94.2363 24.1724 94.0073 24.2791 93.7897 24.4033L93.8002 24.3873C94.9956 22.8005 96.7545 22.0509 98.7573 22.204L98.7556 22.2088ZM93.902 23.4273C94.1389 23.2269 94.3924 23.0435 94.6604 22.8787C94.3512 23.1046 94.0645 23.3549 93.8037 23.6266C93.4079 24.0393 93.0629 24.4901 92.7751 24.971C93.0114 24.3828 93.3975 23.8538 93.902 23.4273ZM92.2432 29.5258C92.2116 29.1717 92.1994 28.814 92.2064 28.4525C92.328 27.3106 92.6903 26.2006 93.2736 25.1831C93.4083 25.0701 93.5495 24.9636 93.6967 24.8642C94.1729 24.5787 94.6896 24.3534 95.2326 24.1944C95.2357 24.23 95.25 24.2642 95.2738 24.2927C95.2976 24.3212 95.3299 24.3428 95.3669 24.3551C95.4039 24.3674 95.444 24.3697 95.4825 24.3619C95.5209 24.354 95.556 24.3363 95.5837 24.3108C95.7007 24.1885 95.8218 24.0737 95.947 23.9663L96.105 23.9169C97.834 23.3619 99.7035 22.9935 101.534 23.2789C101.677 23.3013 101.819 23.3284 101.961 23.3603C102.312 23.5724 102.647 23.7989 102.968 24.0301C103.242 24.2247 103.504 24.4304 103.762 24.6393C103.532 24.5707 103.3 24.5085 103.06 24.4527C102.573 24.3299 102.114 24.2406 101.738 24.1816C101.052 24.0738 100.354 24.0497 99.6613 24.1098C97.2758 24.2023 94.9377 25.0412 93.4772 26.821C92.8424 27.6238 92.4201 28.5488 92.2432 29.5242V29.5258ZM93.4193 38.8776C93.2141 39.0021 93.0187 39.1396 92.8348 39.2891C92.754 39.3561 92.6786 39.4247 92.6031 39.4932C92.0051 39.9182 91.4674 40.4089 91.0022 40.9541C90.5012 41.5361 90.0831 42.1732 89.7577 42.8503C90.2211 41.0051 91.4656 39.3896 93.4193 38.876V38.8776ZM101.243 57.4283C100.593 56.969 100 57.1923 99.312 57.4538C98.408 57.7935 97.0862 57.2944 96.2331 57.0041C95.1488 56.6354 94.1338 56.1163 93.2245 55.4651C93.0384 55.328 92.8594 55.1844 92.6838 55.0345C94.2777 56.0584 96.4894 56.4698 98.3729 56.6899C98.9259 56.7537 99.477 56.8 100.032 56.8319C100.546 56.8622 101.136 56.6819 101.369 57.2178C101.423 57.3451 101.462 57.4771 101.485 57.6117C101.403 57.5559 101.325 57.4873 101.243 57.4283ZM103.546 59.7886C104.045 60.1251 104.573 60.4238 105.126 60.6817C106.326 61.1991 107.608 61.5399 108.926 61.6912C111.384 62.0213 113.939 61.8283 116.385 61.495C116.911 61.4233 117.438 61.3356 117.973 61.2255C117.715 61.3468 117.449 61.4533 117.176 61.5445C115.386 62.1617 113.379 62.4376 111.478 62.546C110.058 62.6446 108.629 62.5494 107.239 62.2637C107.118 62.2127 106.997 62.1585 106.878 62.1043C105.636 61.5016 104.511 60.7195 103.546 59.7886ZM119.562 60.8252C120.395 60.58 121.197 60.255 121.954 59.8556C119.229 61.6654 116.013 62.7679 112.651 63.0452C112.051 63.0921 111.449 63.1001 110.848 63.0691H110.901C113.083 63.0314 115.245 62.6782 117.304 62.0229C118.135 61.7567 118.902 61.3474 119.562 60.8172V60.8252ZM121.133 62.4806C119.661 63.8382 117.816 64.8131 115.79 65.3038C113.763 65.7946 111.629 65.7835 109.609 65.2715C107.422 64.7261 105.621 63.7086 104.48 61.8985C104.415 61.7965 104.353 61.6944 104.29 61.5907C104.399 61.6705 104.51 61.7502 104.625 61.8204C104.93 62.016 105.255 62.1843 105.596 62.3227C106.109 62.6294 106.649 62.8962 107.211 63.1201C108.928 63.8027 110.806 63.9415 112.653 63.8218C116.404 63.581 120.108 62.1617 123.044 60.0486C123.125 59.9911 123.202 59.9305 123.281 59.8715C122.691 60.8191 121.968 61.6933 121.131 62.4726L121.133 62.4806ZM141.005 55.8495C139.092 56.7681 136.792 57.3821 134.623 57.1046C134.076 57.0336 133.547 56.876 133.06 56.6389C135.888 57.3231 138.9 57.0487 141.409 55.5991C144.065 54.0633 145.611 51.5419 145.85 48.7175C145.95 47.3242 145.711 45.9278 145.148 44.6285C144.846 43.9432 144.452 43.2941 143.977 42.6956C143.75 42.4037 143.505 42.1246 143.262 41.8456C143.001 41.5866 142.754 41.3156 142.523 41.0338C143.117 41.2491 143.717 41.9524 144.147 42.2395C144.909 42.7301 145.758 43.097 146.657 43.3239C147.148 44.2772 147.44 45.3044 147.521 46.354C147.846 50.3953 144.769 54.0378 141.005 55.8415V55.8495ZM152.174 42.4404C150.624 42.9811 148.804 42.9667 147.173 42.5999C146.963 42.2158 146.721 41.8469 146.448 41.4963C146.259 41.2898 146.089 41.0689 145.941 40.8361C145.975 40.8487 146.008 40.8636 146.039 40.8807C146.226 40.962 146.403 41.0641 146.578 41.1614C147.089 41.4453 147.568 41.7738 148.083 42.0513C148.795 42.4356 149.813 42.4532 150.61 42.3958C151.755 42.2972 152.855 41.9445 153.814 41.3687C153.384 41.8517 152.817 42.2194 152.174 42.4325V42.4404ZM154.623 39.7819C153.726 40.5458 152.644 41.1073 151.463 41.4213C150.602 41.6462 149.357 41.7403 148.543 41.332C147.97 41.0514 147.451 40.6734 146.893 40.3752C146.512 40.1694 146.062 39.9222 145.604 40.0036C144.942 40.12 144.967 40.785 145.176 41.206C145.321 41.4483 145.502 41.6715 145.713 41.8695C145.824 41.9947 145.926 42.1257 146.02 42.2618C145.086 41.9205 144.368 41.3623 143.61 40.7834C143.092 40.3895 142.501 40.0993 141.82 40.2763C141.734 40.2981 141.658 40.3448 141.604 40.4093C141.55 40.4737 141.52 40.5524 141.519 40.6335C141.53 41.0705 141.779 41.3241 142.118 41.6127C142.725 42.1294 143.219 42.8024 143.675 43.4292C144.478 44.5694 144.967 45.8686 145.1 47.2168C145.257 48.5124 145.074 49.8233 144.568 51.0427C144.061 52.262 143.244 53.3555 142.185 54.2339C139.933 56.1302 136.877 56.7011 133.915 56.186C133.08 56.0409 132.259 55.8383 131.458 55.5799C130.931 55.1446 130.434 54.6661 129.91 54.2148C129.58 53.9309 128.802 53.1559 128.263 53.1367C128.244 52.9836 128.251 52.8288 128.282 52.6774C128.344 52.368 127.836 52.2325 127.756 52.5466C127.687 52.811 127.674 53.0848 127.717 53.3536C127.408 53.6439 127.282 54.151 127.097 54.4987C126.84 54.9758 126.547 55.4361 126.22 55.8766C126.267 55.7602 126.316 55.6437 126.365 55.5273C126.671 54.7857 126.717 53.7603 127.336 53.1702C127.408 53.099 127.446 53.0054 127.444 52.909C127.442 52.8125 127.398 52.7206 127.323 52.6524C127.248 52.5842 127.147 52.545 127.041 52.5428C126.935 52.5406 126.832 52.5757 126.753 52.6407C126.202 53.1192 126.006 53.7986 125.816 54.4492C125.625 55.072 125.391 55.6829 125.114 56.2785C124.468 57.2804 123.608 58.1554 122.586 58.8525C121.941 59.2806 121.243 59.6382 120.506 59.9178C120.721 59.6761 120.922 59.4243 121.108 59.1634C121.268 58.9402 120.887 58.7504 120.72 58.9577C120.34 59.4386 119.906 59.8832 119.427 60.2846C118.239 60.6208 117.021 60.8578 115.786 60.9927C113.485 61.267 111.124 61.3898 108.819 61.0916C107.559 60.9329 106.335 60.5938 105.192 60.0868C104.225 59.6515 103.397 59.0151 102.524 58.4442C102.415 57.9163 102.428 57.3549 102.208 56.8494C102.098 56.5766 101.895 56.3434 101.627 56.1845C101.359 56.0256 101.042 55.9495 100.723 55.9675C99.5259 55.9873 98.3301 55.8803 97.16 55.6485C94.8956 55.2371 92.8629 54.4827 91.427 52.7779C90.207 51.333 89.6717 49.5309 89.6436 47.7176C90.6336 49.81 92.5838 51.5451 94.7499 52.6184C97.0318 53.7523 100.191 54.3631 102.649 53.4014C102.923 53.2946 102.726 52.8799 102.447 52.9661C100.067 53.6885 97.2653 53.0921 95.0887 52.0857C92.8118 51.0131 91.0296 49.239 90.0613 47.0813C89.9295 46.7782 89.8238 46.4663 89.7454 46.1483C89.7647 46.008 89.7857 45.8676 89.8103 45.7273C89.9952 45.1452 90.2245 44.5755 90.4967 44.0225C90.9531 43.0911 91.5657 42.2506 92.0975 41.3591C92.2429 41.1131 92.4078 40.877 92.5908 40.6527C92.9902 40.3188 93.4261 40.0228 93.8915 39.7691C94.349 39.5091 94.8649 39.3456 95.4011 39.2907C95.7943 39.2588 96.1436 39.3066 96.5316 39.2125C96.5946 39.1974 96.6536 39.171 96.7054 39.1351C96.7572 39.0991 96.8006 39.0542 96.8333 39.0029C96.8659 38.9516 96.887 38.895 96.8955 38.8363C96.904 38.7776 96.8996 38.7179 96.8826 38.6608C96.7291 38.3263 96.4598 38.0464 96.1155 37.8634C96.1147 37.8586 96.1147 37.8538 96.1155 37.849C96.1053 37.7972 96.0864 37.7472 96.0594 37.7007C96.4422 37.8871 96.8466 38.0342 97.2653 38.1393C97.3263 38.1563 97.3913 38.158 97.4532 38.144C97.5151 38.13 97.5717 38.101 97.6169 38.06C97.662 38.019 97.694 37.9675 97.7093 37.9113C97.7247 37.855 97.7229 37.796 97.7041 37.7406C97.6146 37.4328 97.3934 37.3403 97.0564 37.3371C97.0164 37.3368 96.9766 37.3427 96.9388 37.3546C96.008 37.0172 95.1884 36.468 94.5585 35.7598C94.0196 34.9163 93.5728 34.027 93.2245 33.1045C92.9658 32.0925 92.9706 31.0397 93.2385 30.0297C93.4431 29.313 93.7707 28.63 94.2092 28.0059C94.6759 27.5519 95.1936 27.1435 95.7539 26.7875C97.8165 25.467 100.441 24.6999 102.963 25.0938L103.1 25.1193C103.802 25.3107 104.68 25.6137 105.31 26.0379C105.408 26.1384 105.51 26.2373 105.605 26.341C105.7 26.4446 105.831 26.5786 105.956 26.7014C106.026 26.8259 106.069 26.9611 106.084 27.1001C106.094 27.1606 106.123 27.2172 106.168 27.2632C106.212 27.3092 106.27 27.3425 106.335 27.3594C106.4 27.3762 106.468 27.3757 106.533 27.358C106.597 27.3403 106.655 27.3061 106.699 27.2596C106.969 27.4181 107.292 27.4852 107.611 27.4493C108.099 27.7368 108.623 27.9683 109.174 28.1383C109.458 28.2212 109.7 27.8544 109.472 27.6726C109.368 27.5913 109.261 27.5131 109.156 27.4334C109.658 26.9374 110.034 26.3521 110.502 25.8211C110.528 25.8355 110.557 25.8449 110.587 25.8486C110.617 25.8524 110.647 25.8505 110.676 25.843C110.705 25.8355 110.732 25.8226 110.756 25.8051C110.779 25.7876 110.798 25.7659 110.811 25.7413C110.899 25.5611 110.996 25.3905 111.096 25.2246C111.94 24.4473 112.894 23.7759 113.934 23.2279C115.907 22.2072 118.205 21.9026 120.445 21.9935C122.685 22.0844 124.935 22.6315 127.018 23.3842C128.168 23.7973 129.323 24.3219 130.245 25.0779C130.74 25.4861 131.365 26.4749 132.197 26.1288C132.452 25.9993 132.667 25.8134 132.822 25.5882C133.12 25.2678 133.489 25.0076 133.905 24.8243C134.849 24.3554 135.994 24.1497 137.056 24.0524C138.175 23.9635 139.303 24.0032 140.412 24.1704C139.207 24.2714 138.022 24.5219 136.892 24.9152C136.123 25.1912 135.381 25.5268 134.675 25.9183C133.987 26.2899 133.26 26.6105 132.692 27.1352C132.532 27.2819 132.579 27.6136 132.841 27.6455C133.813 27.7699 134.674 28.1542 135.674 28.1239C136.675 28.0936 137.705 27.7141 138.702 27.5323C140.796 27.1495 142.969 26.955 145.095 27.2404C149.153 27.7858 152.248 30.6724 153.784 34.0055C153.736 35.0394 153.549 36.0641 153.226 37.0564C152.927 38.0133 152.631 39.4853 151.251 39.4486C150.93 39.4374 150.853 39.9063 151.174 39.9637C152.38 40.1726 153.033 39.5475 153.468 38.5938C153.903 37.5997 154.198 36.5596 154.346 35.4983C154.767 36.8491 154.974 38.4327 154.623 39.7739V39.7819ZM155.611 38.7437C155.641 37.4934 155.455 36.2465 155.06 35.0485C154.908 34.5728 154.725 34.1057 154.511 33.6499C154.525 32.4961 154.282 31.3516 153.798 30.2849C155.859 32.3374 157.528 35.1969 156.133 37.9208C155.984 38.2053 155.809 38.4784 155.611 38.7373V38.7437Z" fill="#50735F"/>
<path opacity="0.8" d="M359.59 106.565C360.127 106.039 360.732 105.573 361.392 105.178C363.104 104.062 365.032 103.247 367.077 102.774C368.146 102.524 369.264 102.501 370.346 102.707C370.178 101.553 371.298 100.238 372.2 99.5826C373.487 98.6466 375.245 98.1634 376.844 97.8847C377.025 97.851 377.209 97.8291 377.392 97.8085C378.163 97.6398 378.949 97.5335 379.741 97.4911C381.835 97.3685 383.937 97.5942 385.944 98.1571C386.681 98.3653 388.285 98.671 388.72 99.4344C389.272 98.7517 390.065 98.2521 390.878 97.8507C391.229 97.6762 391.594 97.5258 391.97 97.4005C392.786 96.7721 393.779 96.2631 394.863 96.2072C395.81 96.1574 396.961 96.5654 397.741 97.0324C398.522 97.4993 398.941 98.2746 399.234 99.061C399.619 100.088 399.922 101.054 399.909 102.148C399.924 102.217 399.929 102.287 399.939 102.356C400.638 103.74 400.773 105.362 400.155 106.814C400.066 107.022 399.67 106.976 399.712 106.734C399.776 106.359 399.677 106.001 399.641 105.626C399.605 105.25 399.663 104.837 399.664 104.459L399.664 104.346C399.653 104.397 399.644 104.448 399.633 104.498C399.599 104.919 399.538 105.338 399.45 105.753C399.381 106.08 399.282 106.47 399.06 106.741C398.988 106.818 398.908 106.889 398.82 106.953C398.778 107.079 398.741 107.207 398.687 107.329L399.065 107.412C401.642 106.94 403.458 109.09 403.841 111.274C403.903 111.407 403.962 111.54 404.018 111.675C404.056 111.77 404.093 111.866 404.127 111.962C404.247 112.197 404.351 112.438 404.44 112.683C405.309 115.101 404.455 117.956 402.462 119.716C401.623 120.457 400.261 121.42 399.034 121.453C398.745 121.461 398.471 121.376 398.185 121.353C397.934 121.333 397.732 121.74 397.634 121.892C397.575 121.98 397.522 122.071 397.47 122.161C397.461 122.189 397.453 122.216 397.443 122.244C397.438 122.317 397.424 122.39 397.402 122.461C397.173 123.176 396.885 123.873 396.678 124.591C396.5 125.23 396.177 125.828 395.73 126.347C394.903 127.286 393.679 127.936 392.467 128.38C389.89 129.324 386.988 128.916 384.651 127.608C383.397 126.908 382.431 125.907 381.579 124.833C381.548 124.794 381.518 124.754 381.486 124.714C380.962 124.377 380.467 124.004 380.006 123.598C379.586 123.221 379.203 122.813 378.861 122.377C378.617 122.88 378.101 123.321 377.557 123.685C376.943 124.502 376.279 125.203 375.208 125.589C373.939 126.049 372.488 125.99 371.168 125.761C368.456 125.293 366.098 123.839 364.781 121.614C364.103 120.45 363.841 119.124 364.032 117.821C364.042 117.744 364.054 117.666 364.067 117.59C362.938 118.005 361.603 118.148 360.422 117.914C359.4 117.709 358.736 117.106 358.319 116.331C358.254 116.292 358.19 116.253 358.127 116.213C354.085 113.653 356.831 109.089 359.59 106.565ZM363.855 104.478L363.792 104.508C361.957 105.374 360.347 106.48 359.043 107.895C358.5 108.707 358.217 109.642 358.228 110.594C358.84 108.963 359.981 107.481 361.541 106.525C362.767 105.774 364.275 105.455 365.727 105.312C366.415 105.251 367.106 105.223 367.797 105.229C368.729 105.23 369.602 105.404 370.472 105.011C370.629 104.94 370.78 104.868 370.933 104.802C370.643 104.686 370.345 104.586 370.042 104.503C369.497 104.329 368.939 104.188 368.373 104.082C367.349 103.917 366.301 103.928 365.283 104.112C364.796 104.199 364.319 104.321 363.855 104.478ZM371.883 102.343C372.394 101.06 373.845 100.352 375.141 99.83C376.822 99.1753 378.613 98.7808 380.439 98.6629C380.996 98.6226 381.556 98.6276 382.112 98.6778C380.626 98.2335 379.065 98.0205 377.507 98.1694C376.121 98.4896 374.836 99.0956 373.753 99.9405C373.115 100.441 372.635 101.033 372.174 101.664C371.847 102.106 371.486 102.591 370.989 102.894C371.292 103.035 371.579 103.203 371.845 103.396C371.924 103.448 372.281 102.925 372.46 102.666C372.411 102.69 372.356 102.7 372.301 102.696L372.15 102.689C372.106 102.687 372.062 102.675 372.023 102.655C371.984 102.636 371.95 102.608 371.924 102.575C371.898 102.541 371.881 102.503 371.874 102.463C371.866 102.423 371.869 102.382 371.882 102.343L371.883 102.343ZM372.589 102.486C372.788 102.254 373.013 102.041 373.26 101.85C374.288 101.033 375.445 100.358 376.692 99.8484C376.315 99.9601 375.943 100.084 375.577 100.221C374.465 100.638 373.096 101.244 372.547 102.279C372.59 102.341 372.604 102.415 372.588 102.486L372.589 102.486ZM373.099 99.4758C372.432 99.8159 371.866 100.295 371.445 100.875C371.116 101.336 370.73 101.989 370.759 102.572C371.402 102.182 371.805 101.451 372.224 100.891C372.757 100.211 373.414 99.6182 374.167 99.139C374.39 98.9936 374.616 98.8592 374.846 98.7356C374.24 98.9352 373.655 99.1819 373.097 99.4728L373.099 99.4758ZM387.044 98.8022C386.426 98.5967 385.777 98.4359 385.14 98.2878C383.452 97.9068 381.712 97.7605 379.978 97.854C380.825 97.9695 381.658 98.1543 382.469 98.4061C383.145 98.6025 383.8 98.856 384.425 99.1632C384.71 99.2593 384.992 99.3683 385.268 99.4906C386.134 99.8732 387.314 100.335 387.837 101.143C387.937 100.617 388.278 100.067 388.541 99.6795L388.561 99.6512C388.331 99.1838 387.505 98.953 387.042 98.7992L387.044 98.8022ZM388.725 100.107C388.51 100.422 388.351 100.766 388.257 101.126L388.349 101.038C388.413 100.875 388.466 100.709 388.525 100.571C388.595 100.411 388.684 100.259 388.792 100.118C388.768 100.121 388.744 100.116 388.723 100.104L388.725 100.107ZM389.305 100.07C389.207 100.184 389.119 100.306 389.045 100.434C389.22 100.289 389.402 100.154 389.588 100.023C389.629 99.947 389.674 99.8734 389.724 99.8024C389.867 99.6076 390.014 99.4119 390.167 99.2255C389.855 99.4848 389.566 99.7662 389.303 100.067L389.305 100.07ZM392.466 97.6436L392.378 97.707C393.216 97.495 394.122 97.4945 394.984 97.5581C394.162 97.3389 393.301 97.4096 392.464 97.6406L392.466 97.6436ZM393.707 97.0761C394.538 97.0336 395.362 97.243 396.05 97.6714C396.33 97.7113 396.608 97.757 396.885 97.8029C397.059 97.8324 397.231 97.8756 397.397 97.932L397.387 97.9226C396.335 97.0028 395.032 96.7183 393.705 97.0731L393.707 97.0761ZM397.169 97.288C396.979 97.1827 396.779 97.0909 396.573 97.0134C396.816 97.1269 397.049 97.2597 397.267 97.4101C397.598 97.6386 397.9 97.8993 398.169 98.1874C397.918 97.8205 397.576 97.5123 397.169 97.288ZM399.234 101.191C399.201 100.949 399.153 100.706 399.093 100.463C398.833 99.7086 398.417 99.0057 397.866 98.393C397.757 98.3337 397.645 98.2796 397.531 98.2311C397.165 98.0984 396.782 98.0113 396.391 97.9723C396.394 97.9968 396.39 98.0216 396.378 98.0438C396.367 98.066 396.348 98.0847 396.325 98.0976C396.302 98.1105 396.276 98.1171 396.248 98.1167C396.221 98.1162 396.195 98.1086 396.172 98.0949C396.074 98.0272 395.975 97.965 395.874 97.9083L395.759 97.8948C394.507 97.7377 393.189 97.7241 391.999 98.1465C391.906 98.1795 391.814 98.2157 391.724 98.2549C391.52 98.442 391.329 98.6368 391.148 98.8331C390.994 98.9987 390.849 99.1702 390.707 99.3435C390.852 99.2684 390.998 99.1973 391.152 99.1295C391.461 98.9856 391.757 98.8677 392.001 98.7807C392.447 98.6219 392.914 98.518 393.391 98.4715C395.014 98.2343 396.721 98.5063 397.982 99.5228C398.535 99.9844 398.963 100.555 399.234 101.19L399.234 101.191ZM399.892 107.644C400.05 107.703 400.203 107.771 400.35 107.848C400.415 107.883 400.476 107.92 400.538 107.957C401.007 108.168 401.446 108.432 401.844 108.741C402.272 109.07 402.653 109.447 402.978 109.863C402.379 108.677 401.289 107.744 399.892 107.643L399.892 107.644ZM397.493 121.134C397.86 120.743 398.295 120.819 398.799 120.909C399.462 121.025 400.276 120.522 400.806 120.219C401.48 119.834 402.084 119.357 402.596 118.804C402.701 118.688 402.799 118.569 402.894 118.445C401.978 119.336 400.55 119.891 399.314 120.276C398.951 120.389 398.586 120.489 398.217 120.58C397.875 120.665 397.449 120.618 397.375 121.008C397.359 121.101 397.353 121.195 397.358 121.288C397.405 121.24 397.446 121.184 397.493 121.134ZM396.306 123.015C396.022 123.304 395.712 123.572 395.379 123.815C394.65 124.315 393.838 124.706 392.972 124.973C391.366 125.505 389.612 125.695 387.912 125.778C387.545 125.796 387.176 125.803 386.798 125.796C386.991 125.845 387.187 125.883 387.385 125.911C388.689 126.102 390.085 126.036 391.384 125.87C392.357 125.758 393.306 125.515 394.199 125.148C394.273 125.098 394.346 125.046 394.418 124.995C395.162 124.432 395.799 123.764 396.306 123.015ZM385.665 125.725C385.065 125.664 384.473 125.546 383.901 125.372C386.02 126.25 388.36 126.589 390.67 126.354C391.082 126.31 391.489 126.24 391.89 126.144L391.854 126.15C390.377 126.399 388.864 126.432 387.373 126.249C386.771 126.174 386.191 125.994 385.664 125.72L385.665 125.725ZM384.862 127.039C386.065 127.769 387.461 128.195 388.904 128.271C390.346 128.347 391.784 128.072 393.067 127.473C394.458 126.831 395.515 125.918 396.003 124.555C396.031 124.478 396.057 124.401 396.083 124.323C396.022 124.391 395.96 124.459 395.893 124.52C395.718 124.691 395.525 124.845 395.316 124.981C395.018 125.252 394.695 125.5 394.351 125.721C393.299 126.397 392.053 126.727 390.789 126.878C388.222 127.187 385.504 126.695 383.195 125.639C383.132 125.61 383.071 125.579 383.008 125.549C383.553 126.114 384.176 126.613 384.862 127.033L384.862 127.039ZM370.43 125.063C371.863 125.442 373.509 125.568 374.93 125.108C375.287 124.992 375.62 124.819 375.911 124.598C374.11 125.414 372.036 125.608 370.119 124.945C368.09 124.243 366.656 122.738 366.056 120.863C365.772 119.936 365.718 118.965 365.896 118.018C365.993 117.518 366.157 117.031 366.385 116.568C366.493 116.343 366.615 116.124 366.735 115.905C366.871 115.698 366.996 115.484 367.108 115.265C366.741 115.485 366.445 116.034 366.2 116.282C365.762 116.708 365.246 117.062 364.675 117.328C364.492 118.032 364.454 118.762 364.563 119.48C364.971 122.245 367.611 124.314 370.429 125.058L370.43 125.063ZM360.817 117.425C361.946 117.595 363.172 117.357 364.215 116.905C364.297 116.619 364.403 116.34 364.532 116.07C364.628 115.907 364.708 115.736 364.772 115.561C364.751 115.574 364.731 115.588 364.713 115.603C364.6 115.681 364.496 115.773 364.393 115.86C364.092 116.116 363.82 116.397 363.516 116.649C363.095 116.998 362.411 117.137 361.865 117.199C361.078 117.276 360.281 117.176 359.545 116.909C359.91 117.18 360.349 117.357 360.816 117.42L360.817 117.425ZM358.753 115.94C359.477 116.343 360.294 116.585 361.138 116.649C361.755 116.692 362.609 116.599 363.095 116.222C363.437 115.961 363.729 115.641 364.059 115.37C364.284 115.183 364.549 114.96 364.87 114.957C365.335 114.953 365.421 115.404 365.346 115.714C365.285 115.896 365.198 116.069 365.086 116.229C365.031 116.327 364.982 116.428 364.94 116.532C365.517 116.185 365.915 115.718 366.336 115.233C366.624 114.902 366.978 114.632 367.465 114.666C367.526 114.67 367.585 114.692 367.631 114.728C367.678 114.765 367.71 114.814 367.723 114.869C367.784 115.165 367.655 115.367 367.471 115.604C367.142 116.029 366.913 116.545 366.703 117.025C366.338 117.894 366.21 118.832 366.329 119.757C366.425 120.65 366.751 121.511 367.282 122.27C367.813 123.028 368.533 123.663 369.384 124.122C371.197 125.118 373.347 125.119 375.264 124.4C375.805 124.197 376.328 123.957 376.828 123.683C377.115 123.323 377.376 122.938 377.66 122.568C377.839 122.335 378.243 121.715 378.603 121.634C378.592 121.529 378.564 121.425 378.519 121.327C378.43 121.126 378.751 120.971 378.854 121.173C378.941 121.342 378.993 121.525 379.005 121.712C379.259 121.869 379.423 122.195 379.601 122.406C379.848 122.695 380.118 122.969 380.407 123.225C380.356 123.152 380.305 123.08 380.254 123.008C379.933 122.546 379.743 121.86 379.234 121.54C379.174 121.501 379.134 121.443 379.12 121.378C379.107 121.312 379.122 121.245 379.162 121.19C379.202 121.134 379.264 121.095 379.336 121.08C379.407 121.065 379.482 121.076 379.545 121.11C379.991 121.363 380.229 121.797 380.457 122.212C380.683 122.608 380.936 122.99 381.215 123.357C381.806 123.951 382.521 124.433 383.319 124.775C383.82 124.983 384.347 125.136 384.887 125.232C384.704 125.096 384.53 124.951 384.364 124.799C384.222 124.668 384.449 124.493 384.594 124.612C384.925 124.888 385.286 125.133 385.672 125.344C386.525 125.421 387.384 125.428 388.237 125.364C389.832 125.26 391.443 125.046 392.952 124.556C393.777 124.29 394.55 123.908 395.242 123.423C395.826 123.008 396.286 122.475 396.786 121.98C396.778 121.611 396.682 121.234 396.752 120.865C396.784 120.668 396.885 120.485 397.041 120.344C397.197 120.203 397.399 120.112 397.617 120.084C398.427 119.947 399.217 119.725 399.971 119.422C401.434 118.86 402.688 118.096 403.392 116.766C403.991 115.639 404.072 114.357 403.81 113.13C403.467 114.665 402.42 116.08 401.126 117.076C399.763 118.127 397.727 118.936 395.92 118.596C395.719 118.558 395.787 118.254 395.989 118.277C397.706 118.465 399.503 117.711 400.815 116.759C402.184 115.75 403.111 114.33 403.429 112.754C403.471 112.533 403.494 112.309 403.498 112.085C403.463 111.993 403.427 111.901 403.388 111.809C403.174 111.44 402.93 111.085 402.661 110.746C402.209 110.176 401.665 109.686 401.168 109.152C401.032 109.004 400.884 108.865 400.726 108.737C400.405 108.562 400.065 108.417 399.712 108.305C399.363 108.187 398.989 108.142 398.619 108.172C398.349 108.2 398.121 108.276 397.845 108.261C397.8 108.259 397.756 108.248 397.715 108.231C397.675 108.213 397.639 108.188 397.609 108.158C397.579 108.127 397.556 108.092 397.541 108.053C397.526 108.015 397.52 107.974 397.522 107.933C397.574 107.688 397.712 107.466 397.916 107.299C397.916 107.296 397.915 107.293 397.914 107.29C397.913 107.253 397.918 107.217 397.929 107.182C397.699 107.356 397.449 107.506 397.183 107.63C397.145 107.649 397.101 107.658 397.057 107.656C397.013 107.655 396.971 107.642 396.934 107.62C396.897 107.598 396.868 107.568 396.848 107.532C396.829 107.496 396.821 107.456 396.825 107.416C396.838 107.197 396.973 107.107 397.2 107.063C397.227 107.057 397.254 107.056 397.282 107.06C397.857 106.715 398.325 106.242 398.64 105.685C398.872 105.049 399.036 104.393 399.128 103.728C399.145 103.013 398.979 102.304 398.641 101.656C398.392 101.199 398.065 100.779 397.672 100.414C397.287 100.166 396.875 99.9558 396.442 99.7862C394.846 99.1549 392.957 98.9672 391.317 99.5496L391.228 99.584C390.784 99.8012 390.239 100.116 389.88 100.481C389.829 100.561 389.776 100.64 389.728 100.722C389.68 100.804 389.612 100.911 389.547 101.009C389.52 101.102 389.511 101.199 389.523 101.294C389.525 101.336 389.515 101.378 389.492 101.415C389.469 101.451 389.435 101.481 389.394 101.501C389.353 101.52 389.306 101.528 389.26 101.524C389.214 101.521 389.17 101.505 389.133 101.479C388.975 101.62 388.768 101.706 388.547 101.721C388.263 101.977 387.945 102.198 387.6 102.382C387.421 102.474 387.201 102.257 387.327 102.106C387.384 102.038 387.444 101.972 387.503 101.905C387.087 101.633 386.743 101.286 386.345 100.987C386.329 101 386.312 101.01 386.292 101.016C386.272 101.022 386.251 101.025 386.231 101.023C386.21 101.022 386.19 101.017 386.171 101.008C386.153 100.999 386.137 100.987 386.124 100.972C386.037 100.861 385.945 100.758 385.852 100.659C385.162 100.241 384.414 99.9082 383.628 99.6693C382.139 99.229 380.542 99.3122 379.045 99.6547C377.549 99.9973 376.116 100.649 374.827 101.418C374.116 101.841 373.418 102.34 372.914 102.965C372.643 103.302 372.375 104.048 371.76 103.919C371.568 103.863 371.394 103.765 371.255 103.633C371.004 103.454 370.715 103.325 370.406 103.254C369.696 103.056 368.893 103.061 368.161 103.129C367.392 103.21 366.638 103.378 365.916 103.63C366.744 103.547 367.582 103.567 368.405 103.69C368.967 103.78 369.519 103.913 370.056 104.088C370.578 104.252 371.118 104.377 371.583 104.659C371.713 104.738 371.733 104.968 371.561 105.022C370.925 105.228 370.404 105.595 369.725 105.701C369.045 105.806 368.291 105.679 367.591 105.682C366.119 105.687 364.623 105.829 363.234 106.288C360.581 107.165 358.942 109.5 358.423 111.94C358.615 112.632 358.901 113.299 359.273 113.927C359.622 114.535 360.051 115.49 360.976 115.292C361.19 115.244 361.315 115.551 361.108 115.63C360.327 115.922 359.789 115.583 359.348 114.994C358.9 114.379 358.54 113.714 358.276 113.017C358.201 113.981 358.307 115.075 358.752 115.935L358.753 115.94ZM357.925 115.364C357.711 114.525 357.643 113.661 357.724 112.804C357.753 112.464 357.804 112.126 357.877 111.792C357.689 111.016 357.675 110.214 357.836 109.434C356.765 111.076 356.082 113.214 357.446 114.875C357.591 115.048 357.751 115.21 357.924 115.36L357.925 115.364Z" fill="#50735F"/>
<path d="M276.254 23.0369C276.285 23.0288 276.317 23.0313 276.345 23.0439C276.373 23.0564 276.395 23.0781 276.406 23.1045C276.416 23.131 276.415 23.1603 276.403 23.1865C276.39 23.2127 276.367 23.234 276.338 23.246C275.925 23.3586 275.524 23.5057 275.141 23.6855C276.664 23.9225 282.472 23.0569 277.796 24.2881C277.557 24.3492 272.754 25.5801 272.518 25.7402C272.51 25.7445 272.503 25.7494 272.496 25.7548C273.625 25.9949 277.289 25.6416 277.808 25.5432C278.004 25.4996 278.286 25.4209 278.435 25.5379C279.074 25.9998 273.69 26.8636 271.832 27.6527C273.034 27.5959 274.232 27.4834 275.423 27.3157C287.421 25.8664 274.314 28.4871 271.938 29.5359C272.306 30.0036 279.11 29.0994 279.498 29.358C280.594 30.1751 273.684 31.2731 270.763 32.0376C271.435 32.0667 272.11 32.0378 272.778 31.9514C276.167 31.6063 281.001 30.9975 276.364 32.4611C275.047 32.8655 268.694 34.897 268.309 35.1371C269.184 35.242 280.854 33.4352 276.553 34.8874C276.102 35.0434 268.735 37.1498 268.311 37.3993C269.537 37.4979 280.693 35.3874 267.212 40.0908C275.479 38.8658 264.645 42.8428 264.836 43.297C265.024 43.4196 265.61 43.2383 265.406 43.2925L265.437 43.273C265.704 43.2339 266.177 43.0185 266.271 43.2468C266.411 43.5772 264.433 43.9731 264.473 43.2657C264.424 42.6499 269.644 40.8047 269.938 40.092C269.273 39.9247 265.821 40.8755 266.167 40.3016C266.205 40.2297 266.26 40.1656 266.328 40.1136C266.396 40.0616 266.475 40.0229 266.561 40.0001C266.993 39.8206 271.166 38.4961 272.557 37.8577C272.348 37.9351 273.312 37.5485 273.404 37.3529L273.403 37.2781C272.204 37.0669 259.938 39.3938 276.023 34.7754C276.279 34.7049 276.531 34.6205 276.776 34.5227C272.179 34.8343 267.132 36.1196 267.989 35.0225C268.242 34.6948 276.857 32.0607 277.588 31.742C276.099 31.862 272.526 32.3896 270.588 32.3258C270.347 32.3179 270.31 32.3215 270.303 32.1086C270.3 31.792 270.67 31.7885 271.02 31.7224C270.54 31.8413 278.81 30.0588 279.229 29.6148L279.127 29.6091L279.17 29.6122C277.175 29.5491 271.247 30.5317 271.481 29.4582C271.553 29.0837 275.856 28.0554 278.948 27.1871C278.425 27.2522 273.47 27.8525 272.48 27.9428C271.588 28.0055 270.202 27.8122 272.087 27.2179C272.432 27.1093 274.629 26.4974 276.951 25.9123C272.94 26.3052 272.864 26.1212 272.224 25.9933C272.031 25.9596 272.089 25.8217 272.159 25.6558C272.28 25.2911 274.063 24.9479 278.483 23.8349C275.133 24.105 273.023 24.0194 276.254 23.0369Z" fill="#50735F"/>
<path d="M268.475 118.922C269.269 117.936 270.84 119.228 271.554 118.814C271.743 118.691 271.831 118.508 271.719 118.313C271.688 118.274 268.128 115.551 267.923 115.341C269.029 115.594 276.962 118.473 271.744 114.809C270.729 114.174 269.77 113.466 268.878 112.691C268.936 112.763 268.732 112.51 268.674 112.438C269.644 112.646 275.454 115.003 275.003 113.971C274.451 112.713 274.783 113.327 271.106 110.638C271.058 110.612 271.002 110.603 270.948 110.612C270.893 110.621 270.845 110.647 270.812 110.686C270.778 110.725 270.762 110.774 270.766 110.824C270.77 110.875 270.793 110.923 270.832 110.959C274.004 113.289 274.211 113.221 274.427 113.759C273.043 113.486 268.514 112.014 268.514 112.014L268.377 112.045C268.311 112.088 268.288 112.103 268.193 112.165C268.193 112.165 267.052 112.069 271.148 114.92C271.821 115.388 273.032 116.209 273.032 116.209C272.264 116.127 271.507 115.964 270.775 115.724C270.936 115.779 268.945 115.188 268.743 115.127C264.893 113.984 269.186 116.901 271.022 118.355C269.882 118.183 268.888 117.631 268.229 118.437C268.15 118.53 268.018 118.691 268.031 118.808C268.045 118.849 268.069 118.886 268.102 118.916C268.136 118.946 268.177 118.967 268.221 118.979C268.266 118.99 268.313 118.991 268.357 118.981C268.402 118.971 268.442 118.951 268.475 118.922Z" fill="#50735F"/>
<path d="M245.798 122.935C247.477 121.464 247.416 121.566 248.205 120.915C248.531 120.645 248.809 120.724 248.716 120.921C248.357 121.601 248.617 121.129 247.45 122.723C246.974 123.366 246.544 124.036 246.162 124.728C246.374 124.693 247.99 123.123 248.171 122.99C248.216 122.962 248.267 122.943 248.321 122.935C248.375 122.927 248.431 122.929 248.483 122.943C248.755 123.047 248.171 123.904 248.011 124.138L248.019 124.123C248.015 124.133 248.011 124.143 248.005 124.152C247.99 124.184 247.686 124.634 247.676 124.651C247.253 125.293 247.02 125.72 246.902 125.908C247.13 125.704 247.056 125.734 247.904 124.992C247.904 124.992 248.002 124.905 248.081 124.842C248.41 124.582 248.484 124.636 248.616 124.856C248.841 125.243 247.968 126.531 247.581 127.715C248.211 127.259 249.102 126.35 249.449 126.483C249.997 126.693 249.161 128.319 248.755 129.516C248.858 129.435 249.321 128.978 249.656 128.7C249.71 128.645 249.779 128.605 249.855 128.583C249.919 128.556 249.992 128.552 250.059 128.571C250.367 128.74 250.323 129.167 250.327 129.534C250.334 130.725 250.703 129.411 251.54 130.804C251.627 130.944 251.767 131.072 251.625 131.167C251.356 131.347 251.179 130.617 250.816 130.391C250.45 130.356 250.028 130.624 250.027 129.379C250.041 129.195 250.013 129.009 249.944 128.836C249.64 128.935 248.93 130.037 248.517 129.855C248.105 129.674 249.491 127.32 249.307 126.756C248.875 127.049 248.466 127.368 248.083 127.712C248.045 127.753 247.619 128.15 247.392 128.086C247.165 128.022 247.162 127.97 247.225 127.741C247.345 127.296 248.388 125.197 248.35 124.989C248.11 125.143 247.282 125.974 247.032 126.186C247.132 126.101 246.833 126.4 246.697 126.401C246.643 126.409 246.587 126.403 246.537 126.384C246.486 126.364 246.443 126.332 246.412 126.292C246.319 126.082 247.905 123.826 248.104 123.434C246.965 124.492 247.117 124.356 246.836 124.601C246.728 124.703 246.614 124.8 246.494 124.89C246.294 125.03 246.244 125.006 246.049 125.038C245.12 125.189 247.618 122.048 248.132 121.345C246.254 122.906 246.46 122.752 246.47 122.742C245.903 123.238 245.26 123.945 244.982 123.606C244.704 123.266 247.503 119.883 247.596 119.686C247.283 119.91 246.982 120.149 246.697 120.401C246.754 120.347 246.555 120.526 246.61 120.477C246.457 120.609 245.776 121.201 245.927 121.071C245.17 121.769 244.776 122.161 244.514 122.172C243.928 122.21 244.386 121.716 245.254 120.568C245.912 119.72 246.624 118.906 247.386 118.131C245.241 119.745 245.425 119.839 245.049 119.597C244.732 119.389 246.249 117.869 246.884 117.034C246.065 117.608 245.649 117.955 245.445 117.826C245.178 117.679 245.264 117.563 247.29 115.562C247.011 115.719 246.725 115.862 246.43 115.993C246.23 116.009 246.09 115.843 246.271 115.636C246.49 115.39 246.946 114.981 247.364 114.556C247.364 114.556 246.899 114.88 246.669 115.045C246.44 115.21 246.252 115.384 246.159 115.265C246.067 115.146 246.288 115.036 246.413 114.951C247.137 114.45 246.759 114.71 248.07 113.808C248.094 113.792 248.124 113.786 248.153 113.79C248.182 113.794 248.208 113.808 248.226 113.83C248.243 113.851 248.25 113.878 248.246 113.904C248.241 113.931 248.225 113.954 248.201 113.97L247.754 114.28C247.871 114.476 247.061 115.128 246.593 115.644L246.697 115.593C246.621 115.629 247.38 115.236 247.555 115.15C247.651 115.108 247.758 115.209 247.77 115.302C247.795 115.472 246.974 116.211 245.821 117.44C246.427 117.045 247.014 116.549 247.196 116.589C247.864 116.761 245.93 118.261 245.373 119.349C245.723 119.076 245.511 119.253 245.776 119.039C245.939 118.908 247.73 117.433 247.93 117.51C248.505 117.731 247.152 118.36 244.821 121.632C245.65 120.897 245.799 120.768 246.46 120.197L246.465 120.187C247.383 119.377 248.226 118.937 247.906 119.726C247.906 119.726 246.093 122.053 245.396 123.269C245.412 123.266 245.423 123.254 245.798 122.935ZM247.647 124.689C247.666 124.65 247.661 124.66 247.642 124.701L247.647 124.689ZM245.847 122.566C245.855 122.555 245.853 122.559 245.846 122.568L245.847 122.566ZM245.843 122.576C245.85 122.56 245.848 122.564 245.839 122.579L245.843 122.576Z" fill="#50735F"/>
<path d="M255.633 15.8418C257.059 13.6226 257.528 13.1897 257.888 11.7166C258.494 9.32043 255.987 7.50699 253.596 8.78675C251.205 10.0665 249.64 12.6233 249.038 14.9623C248.599 16.7458 248.475 19.2154 250.339 19.7818C252.845 20.5333 254.707 17.2903 255.633 15.8418ZM250.106 14.0556C250.536 13.0158 251.118 12.0323 251.838 11.1312C252.414 10.3859 253.149 9.75178 254.002 9.26598C254.746 8.88477 255.558 8.75951 256.311 9.23602C257.782 10.3143 257.234 11.9834 256.314 13.4592C255.004 15.5477 252.446 20.3264 250.264 19.0003C248.771 17.8703 249.546 15.4143 250.106 14.0556Z" fill="#50735F"/>
<path opacity="0.6" d="M257.043 131.915C264.043 185.915 359.543 199.415 376.543 202.415C393.543 205.415 440.043 211.415 473.043 251.915C498.965 283.728 477.543 378.415 444.043 393.415C423.811 402.473 398.543 395.915 345.043 393.415C291.543 390.915 272.543 420.415 203.043 420.415C127.043 420.415 92.043 466.415 0.0429688 458.415" stroke="#50735F" stroke-dasharray="4 4"/>
</svg>
