<svg width="21" height="21" viewBox="0 0 21 21" fill="none" xmlns="http://www.w3.org/2000/svg">
<path d="M10.5 2.625C6.15747 2.625 2.625 6.15747 2.625 10.5C2.625 14.8425 6.15747 18.375 10.5 18.375C14.8425 18.375 18.375 14.8425 18.375 10.5C18.375 6.15747 14.8425 2.625 10.5 2.625ZM10.5 3.9375C14.1324 3.9375 17.0625 6.86755 17.0625 10.5C17.0625 14.1324 14.1324 17.0625 10.5 17.0625C6.86755 17.0625 3.9375 14.1324 3.9375 10.5C3.9375 6.86755 6.86755 3.9375 10.5 3.9375ZM9.84375 5.25V11.1562H14.4375V9.84375H11.1562V5.25H9.84375Z" fill="#8F323A"/>
</svg>
