<svg width="28" height="4" viewBox="0 0 28 4" fill="none" xmlns="http://www.w3.org/2000/svg">
<path d="M20.2881 1.52588e-05C20.5441 0.0853488 20.9068 0.128016 21.3761 0.128016C21.8881 0.128016 22.2721 0.192015 22.5281 0.320015C22.5708 0.320015 22.6134 0.256015 22.6561 0.128016C22.6561 0.042682 22.6988 1.52588e-05 22.7841 1.52588e-05C22.8694 1.52588e-05 22.9121 0.042682 22.9121 0.128016C22.9548 0.213349 22.9974 0.277349 23.0401 0.320015C23.3814 0.234682 23.7868 0.234682 24.2561 0.320015C24.7681 0.405349 25.0881 0.362682 25.2161 0.192016C25.4294 0.320016 25.7708 0.426682 26.2401 0.512015C26.7521 0.554682 27.0934 0.618682 27.2641 0.704015C27.3494 0.874682 27.4348 1.21602 27.5201 1.72802C27.6054 2.19735 27.7334 2.53868 27.9041 2.75202C27.9041 2.83735 27.8401 2.90135 27.7121 2.94402C27.6268 2.98668 27.6054 3.05068 27.6481 3.13602C26.5814 2.96535 25.1094 2.83735 23.2321 2.75202C21.3974 2.62402 20.4161 2.56002 20.2881 2.56002C18.6241 2.56002 16.1921 2.68802 12.9921 2.94402C9.79209 3.15735 7.16809 3.28535 5.12009 3.32802C2.60275 3.62668 0.981419 3.64802 0.256086 3.39202C0.170753 3.17868 0.106753 2.92268 0.0640862 2.62402C0.0640862 2.28268 0.0427528 2.02668 8.60691e-05 1.85602C0.0427528 1.81335 0.128086 1.68535 0.256086 1.47202C0.384086 1.25868 0.448086 1.08802 0.448086 0.960016C2.36809 0.448016 5.07742 0.341349 8.57609 0.640015C9.13075 0.512015 9.81342 0.426682 10.6241 0.384016C11.4348 0.341349 12.0321 0.277349 12.4161 0.192016C12.5441 0.149349 12.6081 0.213349 12.6081 0.384016C13.1201 0.298682 14.1654 0.256015 15.7441 0.256015C17.3228 0.256015 18.4748 0.192015 19.2001 0.0640154C19.6694 0.362682 20.0321 0.341349 20.2881 1.52588e-05ZM20.8001 0.640015C20.6721 0.682682 20.1601 0.704015 19.2641 0.704015C14.7414 0.789349 11.2854 1.02402 8.89609 1.40802C10.0054 1.32268 11.4988 1.30135 13.3761 1.34402C15.2534 1.38668 16.6614 1.38668 17.6001 1.34402C17.5148 1.13068 17.5788 1.02402 17.7921 1.02402C17.8348 1.06668 17.8348 1.13068 17.7921 1.21602C17.7494 1.25868 17.7281 1.30135 17.7281 1.34402C18.1974 1.42935 19.1148 1.45068 20.4801 1.40802C21.8881 1.36535 22.9548 1.34402 23.6801 1.34402C23.8081 1.51468 23.9574 1.60002 24.1281 1.60002C24.1281 1.42935 24.1494 1.34402 24.1921 1.34402C24.3201 1.34402 24.4908 1.34402 24.7041 1.34402C24.9601 1.30135 25.1521 1.30135 25.2801 1.34402C25.4508 1.38668 25.5788 1.47202 25.6641 1.60002C25.7494 1.60002 25.8561 1.60002 25.9841 1.60002C26.1121 1.55735 26.1761 1.55735 26.1761 1.60002C26.1334 1.47202 26.1548 1.34402 26.2401 1.21602C26.3254 1.17335 26.3681 1.13068 26.3681 1.08802C25.8134 0.960015 24.8748 0.874682 23.5521 0.832016C22.2294 0.789349 21.3121 0.725349 20.8001 0.640015Z" fill="#50735F"/>
</svg>
